STARTFONT 2.1
COMMENT
COMMENT Converted from OpenType font "OldStandard-Regular.ttf" by "otf2bdf 3.0".
COMMENT
FONT -FreeType-Old Standard TT-Medium-R-Normal--26-260-72-72-P-138-ISO10646-1
SIZE 26 72 72
FONTBOUNDINGBOX 68 33 -21 -8
STARTPROPERTIES 19
FOUNDRY "FreeType"
FAMILY_NAME "Old Standard TT"
WEIGHT_NAME "Medium"
SLANT "R"
SETWIDTH_NAME "Normal"
ADD_STYLE_NAME ""
PIXEL_SIZE 26
POINT_SIZE 260
RESOLUTION_X 72
RESOLUTION_Y 72
SPACING "P"
AVERAGE_WIDTH 138
CHARSET_REGISTRY "ISO10646"
CHARSET_ENCODING "1"
FONT_ASCENT 24
FONT_DESCENT 7
COPYRIGHT "Copyright (C) 2006-2008 Alexey Kryukov <alexios@thessalonica.org.ru>"
_OTF_FONTFILE "OldStandard-Regular.ttf"
_OTF_PSNAME "OldStandardTT-Regular"
ENDPROPERTIES
CHARS 1456
STARTCHAR 0020
ENCODING 32
SWIDTH 269 0
DWIDTH 7 0
BBX 0 0 0 0
BITMAP
ENDCHAR
STARTCHAR 0021
ENCODING 33
SWIDTH 269 0
DWIDTH 7 0
BBX 3 18 2 0
BITMAP
E0
E0
E0
E0
E0
E0
40
40
40
40
40
40
40
40
00
E0
E0
E0
ENDCHAR
STARTCHAR 0022
ENCODING 34
SWIDTH 384 0
DWIDTH 10 0
BBX 6 5 2 13
BITMAP
CC
CC
CC
CC
48
ENDCHAR
STARTCHAR 0023
ENCODING 35
SWIDTH 692 0
DWIDTH 18 0
BBX 14 18 2 0
BITMAP
0420
0420
0420
0420
0420
FFFC
0840
0840
0840
0840
0840
1840
FFFC
1080
1080
1080
1080
1080
ENDCHAR
STARTCHAR 0024
ENCODING 36
SWIDTH 576 0
DWIDTH 15 0
BBX 11 22 2 -2
BITMAP
0900
0900
1F80
2940
4920
4920
4960
4960
6900
3D00
1F80
0FC0
09C0
0960
E920
E920
C920
C940
6940
1F80
0900
0900
ENDCHAR
STARTCHAR 0025
ENCODING 37
SWIDTH 846 0
DWIDTH 22 0
BBX 18 18 2 0
BITMAP
380200
440400
C60800
C60800
C61000
C62000
C62000
444000
384000
008600
011980
013080
0230C0
0430C0
0430C0
0830C0
081880
100F00
ENDCHAR
STARTCHAR 0026
ENCODING 38
SWIDTH 769 0
DWIDTH 20 0
BBX 18 18 1 0
BITMAP
078000
084000
184000
184000
18C000
1C8000
0F0000
061FC0
0F0600
170600
238400
61C400
C0E800
C0F000
C07000
E07880
60DC80
3F0F00
ENDCHAR
STARTCHAR 0027
ENCODING 39
SWIDTH 269 0
DWIDTH 7 0
BBX 2 5 2 13
BITMAP
C0
C0
C0
C0
40
ENDCHAR
STARTCHAR 0028
ENCODING 40
SWIDTH 384 0
DWIDTH 10 0
BBX 6 23 3 -4
BITMAP
08
10
30
20
40
40
C0
80
80
80
80
80
80
80
80
C0
40
40
60
20
10
18
0C
ENDCHAR
STARTCHAR 0029
ENCODING 41
SWIDTH 346 0
DWIDTH 9 0
BBX 6 23 1 -4
BITMAP
40
20
30
10
18
08
08
0C
04
04
04
04
04
04
0C
08
08
08
10
10
20
40
C0
ENDCHAR
STARTCHAR 002A
ENCODING 42
SWIDTH 538 0
DWIDTH 14 0
BBX 10 10 2 8
BITMAP
0C00
0C00
CCC0
C9C0
2B00
1C00
7B80
C9C0
0C00
0C00
ENDCHAR
STARTCHAR 002B
ENCODING 43
SWIDTH 923 0
DWIDTH 24 0
BBX 22 22 1 -4
BITMAP
001000
001000
001000
001000
001000
001000
001000
001000
001000
001000
FFFFFC
001000
001000
001000
001000
001000
001000
001000
001000
001000
001000
001000
ENDCHAR
STARTCHAR 002C
ENCODING 44
SWIDTH 269 0
DWIDTH 7 0
BBX 3 8 2 -4
BITMAP
C0
E0
E0
20
20
40
40
80
ENDCHAR
STARTCHAR 002D
ENCODING 45
SWIDTH 423 0
DWIDTH 11 0
BBX 7 1 2 6
BITMAP
FE
ENDCHAR
STARTCHAR 002E
ENCODING 46
SWIDTH 269 0
DWIDTH 7 0
BBX 3 3 2 0
BITMAP
E0
E0
E0
ENDCHAR
STARTCHAR 002F
ENCODING 47
SWIDTH 461 0
DWIDTH 12 0
BBX 8 24 2 -6
BITMAP
01
01
02
02
02
04
04
04
0C
08
08
18
10
10
10
20
20
20
40
40
40
80
80
80
ENDCHAR
STARTCHAR 0030
ENCODING 48
SWIDTH 576 0
DWIDTH 15 0
BBX 12 18 1 0
BITMAP
0F00
10C0
2040
6060
6020
C030
C030
C030
C030
C030
C030
C030
C030
6020
6060
2040
10C0
0F00
ENDCHAR
STARTCHAR 0031
ENCODING 49
SWIDTH 576 0
DWIDTH 15 0
BBX 9 18 3 0
BITMAP
0800
0800
1800
F800
1800
1800
1800
1800
1800
1800
1800
1800
1800
1800
1800
1800
1800
FF80
ENDCHAR
STARTCHAR 0032
ENCODING 50
SWIDTH 576 0
DWIDTH 15 0
BBX 10 18 2 0
BITMAP
1E00
6380
81C0
80C0
80C0
E0C0
F0C0
20C0
0180
0300
0600
0800
1000
2000
4040
C040
FFC0
FFC0
ENDCHAR
STARTCHAR 0033
ENCODING 51
SWIDTH 576 0
DWIDTH 15 0
BBX 11 18 2 0
BITMAP
3F00
6180
C0C0
E0C0
F0C0
00C0
00C0
0180
3E00
0180
00C0
0060
6060
F060
F060
C0C0
4180
3F00
ENDCHAR
STARTCHAR 0034
ENCODING 52
SWIDTH 576 0
DWIDTH 15 0
BBX 12 18 2 0
BITMAP
0100
0300
0300
0700
0F00
0B00
1300
3300
2300
4300
C300
8300
FFE0
0300
0300
0300
0300
1FF0
ENDCHAR
STARTCHAR 0035
ENCODING 53
SWIDTH 576 0
DWIDTH 15 0
BBX 11 18 2 0
BITMAP
60C0
7F80
7E00
4000
4000
4000
5F00
6180
40C0
40E0
0060
0060
6060
F060
E0C0
C0C0
4180
3E00
ENDCHAR
STARTCHAR 0036
ENCODING 54
SWIDTH 576 0
DWIDTH 15 0
BBX 11 18 2 0
BITMAP
0F00
1880
3040
60C0
60C0
4000
C000
CF00
D1C0
E0C0
E0E0
E060
E060
E060
60E0
60C0
3180
0F00
ENDCHAR
STARTCHAR 0037
ENCODING 55
SWIDTH 576 0
DWIDTH 15 0
BBX 10 18 3 0
BITMAP
FFC0
FFC0
8040
8040
8080
0080
0100
0100
0200
0600
0600
0C00
0C00
1E00
1E00
1E00
1E00
0E00
ENDCHAR
STARTCHAR 0038
ENCODING 56
SWIDTH 576 0
DWIDTH 15 0
BBX 12 18 2 0
BITMAP
1F80
30E0
6060
C030
C030
E030
F020
7C40
3F80
37E0
60F0
C070
C030
C030
C030
6060
70C0
1F80
ENDCHAR
STARTCHAR 0039
ENCODING 57
SWIDTH 576 0
DWIDTH 15 0
BBX 11 18 2 0
BITMAP
1E00
3180
60C0
E0C0
C040
C060
C060
C0E0
60E0
7160
1E60
0060
0040
60C0
60C0
4080
4100
3E00
ENDCHAR
STARTCHAR 003A
ENCODING 58
SWIDTH 269 0
DWIDTH 7 0
BBX 3 12 2 0
BITMAP
E0
E0
E0
00
00
00
00
00
00
E0
E0
E0
ENDCHAR
STARTCHAR 003B
ENCODING 59
SWIDTH 307 0
DWIDTH 8 0
BBX 4 16 2 -4
BITMAP
F0
F0
F0
00
00
00
00
00
60
F0
F0
10
10
20
20
40
ENDCHAR
STARTCHAR 003C
ENCODING 60
SWIDTH 923 0
DWIDTH 24 0
BBX 20 21 2 -3
BITMAP
000030
0000C0
000300
000C00
003000
00E000
038000
0E0000
180000
600000
C00000
300000
0C0000
070000
01C000
007000
001800
000600
000180
000060
000010
ENDCHAR
STARTCHAR 003D
ENCODING 61
SWIDTH 923 0
DWIDTH 24 0
BBX 22 6 1 4
BITMAP
FFFFFC
000000
000000
000000
000000
FFFFFC
ENDCHAR
STARTCHAR 003E
ENCODING 62
SWIDTH 923 0
DWIDTH 24 0
BBX 20 21 2 -3
BITMAP
C00000
300000
0C0000
030000
00C000
007000
001C00
000700
000180
000060
000030
0000C0
000300
000E00
003800
00E000
018000
060000
180000
600000
800000
ENDCHAR
STARTCHAR 003F
ENCODING 63
SWIDTH 461 0
DWIDTH 12 0
BBX 9 18 2 0
BITMAP
3E00
4300
8180
8180
E180
6180
0300
0600
0C00
1000
3000
2200
2200
1C00
0000
1C00
1C00
1C00
ENDCHAR
STARTCHAR 0040
ENCODING 64
SWIDTH 769 0
DWIDTH 20 0
BBX 18 18 1 0
BITMAP
03F800
0C0600
106D00
219C80
430C80
460840
8E0840
8E1840
8C1840
8C1040
8C3080
8C3080
8CF100
471E00
600000
200000
180C00
07F000
ENDCHAR
STARTCHAR 0041
ENCODING 65
SWIDTH 769 0
DWIDTH 20 0
BBX 18 18 2 0
BITMAP
008000
00C000
01C000
01C000
01E000
03E000
026000
027000
067000
043000
043800
0C3800
0FF800
181C00
100C00
100C00
300E00
FE3FC0
ENDCHAR
STARTCHAR 0042
ENCODING 66
SWIDTH 653 0
DWIDTH 17 0
BBX 15 18 1 0
BITMAP
FFF0
181C
180C
1806
1806
1806
180C
1818
1FE0
1818
180C
1806
1806
1806
1806
180C
181C
FFF0
ENDCHAR
STARTCHAR 0043
ENCODING 67
SWIDTH 692 0
DWIDTH 18 0
BBX 14 18 2 0
BITMAP
0784
186C
203C
601C
600C
C00C
C004
C000
C000
C000
C000
C004
6004
6004
2008
3018
1830
07C0
ENDCHAR
STARTCHAR 0044
ENCODING 68
SWIDTH 769 0
DWIDTH 20 0
BBX 17 18 1 0
BITMAP
FFF000
180C00
180600
180300
180300
180180
180180
180180
180180
180180
180180
180180
180180
180300
180300
180600
180C00
FFF000
ENDCHAR
STARTCHAR 0045
ENCODING 69
SWIDTH 692 0
DWIDTH 18 0
BBX 15 18 1 0
BITMAP
FFFE
1806
1802
1802
1802
1822
1820
1860
1FE0
1860
1820
1820
1822
1802
1802
1806
180E
FFFE
ENDCHAR
STARTCHAR 0046
ENCODING 70
SWIDTH 653 0
DWIDTH 17 0
BBX 15 18 1 0
BITMAP
FFFE
1806
1802
1802
1802
1822
1820
1860
1FE0
1860
1820
1820
1820
1800
1800
1800
1800
7F00
ENDCHAR
STARTCHAR 0047
ENCODING 71
SWIDTH 730 0
DWIDTH 19 0
BBX 17 18 2 0
BITMAP
07C400
186400
301C00
601C00
600C00
600400
C00400
C00000
C07F80
C01C00
C01C00
C01C00
C01C00
601C00
601C00
303400
186400
078400
ENDCHAR
STARTCHAR 0048
ENCODING 72
SWIDTH 769 0
DWIDTH 20 0
BBX 18 18 1 0
BITMAP
FF3FC0
180600
180600
180600
180600
180600
180600
180600
1FFE00
180600
180600
180600
180600
180600
180600
180600
180600
FF3FC0
ENDCHAR
STARTCHAR 0049
ENCODING 73
SWIDTH 384 0
DWIDTH 10 0
BBX 8 18 1 0
BITMAP
FF
18
18
18
18
18
18
18
18
18
18
18
18
18
18
18
18
FF
ENDCHAR
STARTCHAR 004A
ENCODING 74
SWIDTH 538 0
DWIDTH 14 0
BBX 12 18 1 0
BITMAP
07F0
0180
0180
0180
0180
0180
0180
0180
0180
0180
0180
0180
6180
F180
E180
C180
4300
3E00
ENDCHAR
STARTCHAR 004B
ENCODING 75
SWIDTH 730 0
DWIDTH 19 0
BBX 17 18 1 0
BITMAP
FF3F80
180E00
180800
181000
182000
184000
188000
19C000
1AC000
1CE000
186000
187000
183800
183800
181C00
181C00
180E00
FF7F80
ENDCHAR
STARTCHAR 004C
ENCODING 76
SWIDTH 653 0
DWIDTH 17 0
BBX 15 18 1 0
BITMAP
FF00
1800
1800
1800
1800
1800
1800
1800
1800
1800
1800
1802
1802
1802
1806
1806
180E
FFFE
ENDCHAR
STARTCHAR 004D
ENCODING 77
SWIDTH 846 0
DWIDTH 22 0
BBX 20 18 1 0
BITMAP
FC03F0
1C0380
1E0580
160580
160580
170580
130980
130980
138980
139180
119180
11D180
11D180
10E180
10E180
10E180
104180
FE4FF0
ENDCHAR
STARTCHAR 004E
ENCODING 78
SWIDTH 730 0
DWIDTH 19 0
BBX 18 18 1 0
BITMAP
FC0FC0
1C0200
1E0200
160200
170200
138200
118200
11C200
10E200
10E200
107200
103200
103A00
101E00
100E00
100E00
100600
FE0200
ENDCHAR
STARTCHAR 004F
ENCODING 79
SWIDTH 692 0
DWIDTH 18 0
BBX 15 18 2 0
BITMAP
07C0
1830
3018
2008
600C
600C
C006
C006
C006
C006
C006
C006
600C
600C
2008
3018
1830
07C0
ENDCHAR
STARTCHAR 0050
ENCODING 80
SWIDTH 653 0
DWIDTH 17 0
BBX 15 18 1 0
BITMAP
FFF0
181C
180C
1806
1806
1806
180C
1818
1FF0
1800
1800
1800
1800
1800
1800
1800
1800
FF00
ENDCHAR
STARTCHAR 0051
ENCODING 81
SWIDTH 692 0
DWIDTH 18 0
BBX 15 22 2 -4
BITMAP
07C0
1830
3018
2008
600C
600C
C006
C006
C006
C006
C006
C006
600C
638C
244C
3478
1C72
07E2
0062
0076
003C
0018
ENDCHAR
STARTCHAR 0052
ENCODING 82
SWIDTH 730 0
DWIDTH 19 0
BBX 17 18 1 0
BITMAP
FFF000
181800
180C00
180C00
180C00
180C00
181800
1FE000
183000
183800
181800
181800
181800
181C80
181C80
181C80
181F00
FF0F00
ENDCHAR
STARTCHAR 0053
ENCODING 83
SWIDTH 615 0
DWIDTH 16 0
BBX 13 18 2 0
BITMAP
1E20
61A0
C060
C060
C020
C020
E000
7C00
3F80
0FE0
81F0
8070
8018
C018
C018
E010
9820
87C0
ENDCHAR
STARTCHAR 0054
ENCODING 84
SWIDTH 692 0
DWIDTH 18 0
BBX 15 18 2 0
BITMAP
FFFE
C30E
8306
8302
0302
0302
0302
0300
0300
0300
0300
0300
0300
0300
0300
0300
0300
1FF0
ENDCHAR
STARTCHAR 0055
ENCODING 85
SWIDTH 807 0
DWIDTH 21 0
BBX 19 18 1 0
BITMAP
FF0FE0
180100
180100
180100
180100
180100
180100
180100
180100
180100
180100
180100
180100
180100
0C0100
0C0200
060400
01F800
ENDCHAR
STARTCHAR 0056
ENCODING 86
SWIDTH 769 0
DWIDTH 20 0
BBX 18 18 1 0
BITMAP
FF1FC0
1C0300
1C0200
0C0200
0E0600
060400
070400
070800
030800
038800
039000
019000
01D000
00E000
00E000
00E000
004000
004000
ENDCHAR
STARTCHAR 0057
ENCODING 87
SWIDTH 1076 0
DWIDTH 28 0
BBX 26 18 1 0
BITMAP
FF3F9FC0
1C0E0300
0C060200
0C0E0200
0E0F0600
0E0F0400
06130400
07138C00
07138800
03318800
03A1D800
03A1D000
01A0D000
01C0F000
01C0E000
00C06000
00806000
00804000
ENDCHAR
STARTCHAR 0058
ENCODING 88
SWIDTH 769 0
DWIDTH 20 0
BBX 18 18 1 0
BITMAP
7FBF80
0E0C00
0E0C00
070800
071000
03B000
01A000
01C000
00C000
00E000
016000
037000
023800
043800
0C1C00
080C00
180E00
FE3FC0
ENDCHAR
STARTCHAR 0059
ENCODING 89
SWIDTH 730 0
DWIDTH 19 0
BBX 17 18 1 0
BITMAP
FF1F80
1C0600
1C0400
0E0400
060800
070800
039000
03A000
01E000
00C000
00C000
00C000
00C000
00C000
00C000
00C000
00C000
07FC00
ENDCHAR
STARTCHAR 005A
ENCODING 90
SWIDTH 653 0
DWIDTH 17 0
BBX 14 18 2 0
BITMAP
7FFC
7038
6030
4070
40E0
80C0
01C0
0380
0300
0700
0E00
0C04
1C04
3804
300C
701C
E038
FFF8
ENDCHAR
STARTCHAR 005B
ENCODING 91
SWIDTH 384 0
DWIDTH 10 0
BBX 5 23 3 -5
BITMAP
F8
C0
C0
C0
C0
C0
C0
C0
C0
C0
C0
C0
C0
C0
C0
C0
C0
C0
C0
C0
C0
C0
F8
ENDCHAR
STARTCHAR 005C
ENCODING 92
SWIDTH 461 0
DWIDTH 12 0
BBX 8 24 2 -6
BITMAP
80
80
80
40
40
40
20
20
20
10
10
10
10
08
08
08
04
04
04
02
02
02
01
01
ENDCHAR
STARTCHAR 005D
ENCODING 93
SWIDTH 384 0
DWIDTH 10 0
BBX 5 23 2 -5
BITMAP
F8
18
18
18
18
18
18
18
18
18
18
18
18
18
18
18
18
18
18
18
18
18
F8
ENDCHAR
STARTCHAR 005E
ENCODING 94
SWIDTH 576 0
DWIDTH 15 0
BBX 11 9 2 9
BITMAP
0400
0E00
0A00
1100
3180
2080
4040
4060
8020
ENDCHAR
STARTCHAR 005F
ENCODING 95
SWIDTH 538 0
DWIDTH 14 0
BBX 14 1 0 -4
BITMAP
FFFC
ENDCHAR
STARTCHAR 0060
ENCODING 96
SWIDTH 423 0
DWIDTH 11 0
BBX 4 4 2 13
BITMAP
C0
E0
60
10
ENDCHAR
STARTCHAR 0061
ENCODING 97
SWIDTH 500 0
DWIDTH 13 0
BBX 11 12 1 0
BITMAP
1E00
6300
4180
6180
2180
0F80
7180
C180
C3A0
C3A0
C5A0
79C0
ENDCHAR
STARTCHAR 0062
ENCODING 98
SWIDTH 500 0
DWIDTH 13 0
BBX 11 18 0 0
BITMAP
F000
3000
3000
3000
3000
3000
3380
34C0
3860
3860
3060
3060
3060
3060
3060
3860
28C0
2780
ENDCHAR
STARTCHAR 0063
ENCODING 99
SWIDTH 423 0
DWIDTH 11 0
BBX 9 12 1 0
BITMAP
1E00
2100
6080
C180
C180
C000
C000
C000
C080
6080
2100
1E00
ENDCHAR
STARTCHAR 0064
ENCODING 100
SWIDTH 538 0
DWIDTH 14 0
BBX 12 18 1 0
BITMAP
07C0
00C0
00C0
00C0
00C0
00C0
1CC0
62C0
61C0
C1C0
C0C0
C0C0
C0C0
C0C0
C0C0
61C0
61C0
1EF0
ENDCHAR
STARTCHAR 0065
ENCODING 101
SWIDTH 461 0
DWIDTH 12 0
BBX 9 12 1 0
BITMAP
1E00
2300
6180
C180
C180
FF80
C000
C000
C080
6080
2100
1E00
ENDCHAR
STARTCHAR 0066
ENCODING 102
SWIDTH 346 0
DWIDTH 9 0
BBX 9 18 1 0
BITMAP
0F00
1880
3180
3100
3000
3000
FE00
3000
3000
3000
3000
3000
3000
3000
3000
3000
3000
FE00
ENDCHAR
STARTCHAR 0067
ENCODING 103
SWIDTH 576 0
DWIDTH 15 0
BBX 12 18 2 -6
BITMAP
1E70
61B0
E1F0
C0C0
C0C0
C0C0
E180
6180
1E00
E000
FF00
7FC0
4060
8020
8020
8020
C040
3F80
ENDCHAR
STARTCHAR 0068
ENCODING 104
SWIDTH 576 0
DWIDTH 15 0
BBX 13 18 1 0
BITMAP
F000
3000
3000
3000
3000
3000
33C0
34C0
3860
3860
3060
3060
3060
3060
3060
3060
3060
FDF8
ENDCHAR
STARTCHAR 0069
ENCODING 105
SWIDTH 307 0
DWIDTH 8 0
BBX 6 18 1 0
BITMAP
70
70
20
00
00
00
F0
30
30
30
30
30
30
30
30
30
30
FC
ENDCHAR
STARTCHAR 006A
ENCODING 106
SWIDTH 307 0
DWIDTH 8 0
BBX 7 24 -1 -6
BITMAP
06
06
00
00
00
00
3E
06
06
06
06
06
06
06
06
06
06
06
06
06
C6
C6
8C
78
ENDCHAR
STARTCHAR 006B
ENCODING 107
SWIDTH 538 0
DWIDTH 14 0
BBX 12 18 1 0
BITMAP
F000
3000
3000
3000
3000
3000
31F0
3080
3100
3200
3200
3600
3B00
3300
3180
31C0
30E0
FDF0
ENDCHAR
STARTCHAR 006C
ENCODING 108
SWIDTH 307 0
DWIDTH 8 0
BBX 6 18 1 0
BITMAP
F0
30
30
30
30
30
30
30
30
30
30
30
30
30
30
30
30
FC
ENDCHAR
STARTCHAR 006D
ENCODING 109
SWIDTH 807 0
DWIDTH 21 0
BBX 19 12 1 0
BITMAP
F3C700
34F980
3871C0
3861C0
3061C0
3061C0
3061C0
3061C0
3061C0
3061C0
3061C0
FDFBE0
ENDCHAR
STARTCHAR 006E
ENCODING 110
SWIDTH 576 0
DWIDTH 15 0
BBX 13 12 1 0
BITMAP
F3C0
34C0
3860
3860
3060
3060
3060
3060
3060
3060
3060
FDF8
ENDCHAR
STARTCHAR 006F
ENCODING 111
SWIDTH 500 0
DWIDTH 13 0
BBX 10 12 1 0
BITMAP
1E00
2180
6180
C0C0
C0C0
C0C0
C0C0
C0C0
C0C0
6180
2180
1E00
ENDCHAR
STARTCHAR 0070
ENCODING 112
SWIDTH 538 0
DWIDTH 14 0
BBX 11 18 1 -6
BITMAP
F380
34C0
3860
3860
3060
3060
3060
3060
3060
3860
38C0
3780
3000
3000
3000
3000
3000
FC00
ENDCHAR
STARTCHAR 0071
ENCODING 113
SWIDTH 500 0
DWIDTH 13 0
BBX 12 18 1 -6
BITMAP
1C40
6240
61C0
C0C0
C0C0
C0C0
C0C0
C0C0
C0C0
61C0
61C0
1EC0
00C0
00C0
00C0
00C0
00C0
03F0
ENDCHAR
STARTCHAR 0072
ENCODING 114
SWIDTH 423 0
DWIDTH 11 0
BBX 9 12 1 0
BITMAP
F380
3480
3980
3880
3800
3000
3000
3000
3000
3000
3000
FC00
ENDCHAR
STARTCHAR 0073
ENCODING 115
SWIDTH 423 0
DWIDTH 11 0
BBX 9 12 1 0
BITMAP
7D00
8300
8100
C100
F000
7C00
1F00
8380
8080
C080
E080
9F00
ENDCHAR
STARTCHAR 0074
ENCODING 116
SWIDTH 384 0
DWIDTH 10 0
BBX 8 17 1 0
BITMAP
10
10
10
30
30
FE
30
30
30
30
30
30
30
31
31
33
1E
ENDCHAR
STARTCHAR 0075
ENCODING 117
SWIDTH 538 0
DWIDTH 14 0
BBX 13 12 0 0
BITMAP
F1E0
3060
3060
3060
3060
3060
3060
3060
30E0
30E0
3960
1E78
ENDCHAR
STARTCHAR 0076
ENCODING 118
SWIDTH 538 0
DWIDTH 14 0
BBX 13 12 1 0
BITMAP
FCF8
3060
3040
1840
1880
0C80
0C80
0D00
0700
0700
0200
0200
ENDCHAR
STARTCHAR 0077
ENCODING 119
SWIDTH 807 0
DWIDTH 21 0
BBX 19 12 1 0
BITMAP
FDFBE0
306080
306080
187100
18B100
0CB100
0C9A00
0D1A00
071C00
070C00
020C00
020800
ENDCHAR
STARTCHAR 0078
ENCODING 120
SWIDTH 538 0
DWIDTH 14 0
BBX 12 12 1 0
BITMAP
F9E0
3080
3900
1900
0E00
0E00
0600
0B00
1300
1180
21C0
F3F0
ENDCHAR
STARTCHAR 0079
ENCODING 121
SWIDTH 538 0
DWIDTH 14 0
BBX 13 18 0 -6
BITMAP
FCF8
3820
1820
1840
0C40
0C40
0C80
0680
0680
0700
0300
0300
0200
0200
2200
6200
6400
3800
ENDCHAR
STARTCHAR 007A
ENCODING 122
SWIDTH 461 0
DWIDTH 12 0
BBX 9 12 1 0
BITMAP
FF80
C380
8300
8600
8E00
0C00
1800
3800
3080
6080
6080
FF80
ENDCHAR
STARTCHAR 007B
ENCODING 123
SWIDTH 461 0
DWIDTH 12 0
BBX 6 23 3 -5
BITMAP
0C
10
30
30
30
30
38
18
18
18
10
E0
30
10
18
18
38
30
30
30
30
10
0C
ENDCHAR
STARTCHAR 007C
ENCODING 124
SWIDTH 269 0
DWIDTH 7 0
BBX 1 24 3 -6
BITMAP
80
80
80
80
80
80
80
80
80
80
80
80
80
80
80
80
80
80
80
80
80
80
80
80
ENDCHAR
STARTCHAR 007D
ENCODING 125
SWIDTH 423 0
DWIDTH 11 0
BBX 6 23 3 -5
BITMAP
C0
20
30
30
30
70
60
60
60
60
20
1C
30
60
60
60
60
70
30
30
30
20
C0
ENDCHAR
STARTCHAR 007E
ENCODING 126
SWIDTH 653 0
DWIDTH 17 0
BBX 15 5 1 4
BITMAP
2004
FE02
8FC2
81FE
407C
ENDCHAR
STARTCHAR 00A0
ENCODING 160
SWIDTH 269 0
DWIDTH 7 0
BBX 0 0 0 0
BITMAP
ENDCHAR
STARTCHAR 00A1
ENCODING 161
SWIDTH 269 0
DWIDTH 7 0
BBX 3 18 2 -6
BITMAP
E0
E0
E0
00
40
40
40
40
40
40
40
40
E0
E0
E0
E0
E0
E0
ENDCHAR
STARTCHAR 00A2
ENCODING 162
SWIDTH 576 0
DWIDTH 15 0
BBX 9 18 3 -3
BITMAP
0400
0400
0400
1F00
3500
6480
E580
C580
C400
C400
C400
E480
6480
3500
1F00
0400
0400
0400
ENDCHAR
STARTCHAR 00A3
ENCODING 163
SWIDTH 730 0
DWIDTH 19 0
BBX 14 18 2 0
BITMAP
00F8
0184
0304
020C
0600
0600
0600
3E00
07E0
0600
0600
0600
0600
0600
7404
8C04
8BF8
70F0
ENDCHAR
STARTCHAR 00A4
ENCODING 164
SWIDTH 576 0
DWIDTH 15 0
BBX 11 11 2 2
BITMAP
9F20
71C0
4040
8060
8020
8020
8020
8020
4040
60C0
9F20
ENDCHAR
STARTCHAR 00A5
ENCODING 165
SWIDTH 576 0
DWIDTH 15 0
BBX 15 18 0 0
BITMAP
FC7E
3818
1810
1C10
0C20
0E40
0640
0780
0380
3FF0
0300
0300
3FF0
0300
0300
0300
0300
1FE0
ENDCHAR
STARTCHAR 00A6
ENCODING 166
SWIDTH 269 0
DWIDTH 7 0
BBX 1 23 3 -5
BITMAP
80
80
80
80
80
80
80
80
80
00
00
00
00
00
80
80
80
80
80
80
80
80
80
ENDCHAR
STARTCHAR 00A7
ENCODING 167
SWIDTH 653 0
DWIDTH 17 0
BBX 10 23 3 -5
BITMAP
1E00
2100
2300
2300
2000
3000
1C00
2E00
4700
8380
81C0
C0C0
E040
7040
3880
1D00
0600
0300
0300
3100
3100
2200
1C00
ENDCHAR
STARTCHAR 00A8
ENCODING 168
SWIDTH 423 0
DWIDTH 11 0
BBX 7 2 2 15
BITMAP
C6
C6
ENDCHAR
STARTCHAR 00A9
ENCODING 169
SWIDTH 807 0
DWIDTH 21 0
BBX 19 18 1 0
BITMAP
03F800
0C0600
10E100
211C80
430C40
460440
860420
860020
860020
860020
860020
860820
430840
430840
20F080
100100
0C0600
03F800
ENDCHAR
STARTCHAR 00AA
ENCODING 170
SWIDTH 423 0
DWIDTH 11 0
BBX 7 8 2 10
BITMAP
F0
C8
18
68
88
9A
64
FC
ENDCHAR
STARTCHAR 00AB
ENCODING 171
SWIDTH 461 0
DWIDTH 12 0
BBX 6 10 3 1
BITMAP
20
44
88
88
88
88
88
88
44
20
ENDCHAR
STARTCHAR 00AC
ENCODING 172
SWIDTH 576 0
DWIDTH 15 0
BBX 13 6 1 3
BITMAP
FFF8
0008
0008
0008
0008
0008
ENDCHAR
STARTCHAR 00AD
ENCODING 173
SWIDTH 423 0
DWIDTH 11 0
BBX 7 1 2 6
BITMAP
FE
ENDCHAR
STARTCHAR 00AE
ENCODING 174
SWIDTH 807 0
DWIDTH 21 0
BBX 19 18 1 0
BITMAP
03F800
0C0600
1FE100
231880
431840
431840
831820
831820
83E020
831020
831820
831820
431A40
431A40
2F8E80
100100
0C0600
03F800
ENDCHAR
STARTCHAR 00AF
ENCODING 175
SWIDTH 423 0
DWIDTH 11 0
BBX 7 1 2 15
BITMAP
FE
ENDCHAR
STARTCHAR 00B0
ENCODING 176
SWIDTH 576 0
DWIDTH 15 0
BBX 7 7 4 11
BITMAP
38
44
82
82
82
44
38
ENDCHAR
STARTCHAR 00B1
ENCODING 177
SWIDTH 923 0
DWIDTH 24 0
BBX 22 18 1 -1
BITMAP
001000
001000
001000
001000
001000
001000
001000
FFFFFC
001000
001000
001000
001000
001000
001000
001000
000000
000000
FFFFFC
ENDCHAR
STARTCHAR 00B2
ENCODING 178
SWIDTH 423 0
DWIDTH 11 0
BBX 7 10 2 8
BITMAP
7C
86
86
E6
06
08
10
60
42
FE
ENDCHAR
STARTCHAR 00B3
ENCODING 179
SWIDTH 461 0
DWIDTH 12 0
BBX 7 11 3 7
BITMAP
78
84
C6
C6
04
78
0E
46
C6
86
78
ENDCHAR
STARTCHAR 00B4
ENCODING 180
SWIDTH 423 0
DWIDTH 11 0
BBX 4 4 5 13
BITMAP
30
30
60
80
ENDCHAR
STARTCHAR 00B5
ENCODING 181
SWIDTH 653 0
DWIDTH 17 0
BBX 14 19 2 -7
BITMAP
C0C0
C0C0
C0C0
C0C0
C0C0
C0C0
C0C0
40C0
4080
4084
A3FC
9E38
8000
8000
C000
C000
C000
E000
4000
ENDCHAR
STARTCHAR 00B6
ENCODING 182
SWIDTH 538 0
DWIDTH 14 0
BBX 11 22 2 -4
BITMAP
3FE0
7880
F880
F880
F880
F880
F880
7880
0880
0880
0880
0880
0880
0880
0880
0880
0880
0880
0880
0880
0880
0880
ENDCHAR
STARTCHAR 00B7
ENCODING 183
SWIDTH 269 0
DWIDTH 7 0
BBX 3 3 2 7
BITMAP
E0
E0
E0
ENDCHAR
STARTCHAR 00B8
ENCODING 184
SWIDTH 423 0
DWIDTH 11 0
BBX 5 5 3 -5
BITMAP
40
30
18
18
F0
ENDCHAR
STARTCHAR 00B9
ENCODING 185
SWIDTH 461 0
DWIDTH 12 0
BBX 6 11 3 7
BITMAP
10
10
F0
30
30
30
30
30
30
30
FC
ENDCHAR
STARTCHAR 00BA
ENCODING 186
SWIDTH 384 0
DWIDTH 10 0
BBX 6 9 2 9
BITMAP
70
88
84
84
84
84
48
30
FC
ENDCHAR
STARTCHAR 00BB
ENCODING 187
SWIDTH 500 0
DWIDTH 13 0
BBX 7 10 3 1
BITMAP
08
44
44
22
22
22
22
44
44
88
ENDCHAR
STARTCHAR 00BC
ENCODING 188
SWIDTH 884 0
DWIDTH 23 0
BBX 18 18 3 0
BITMAP
100400
F00C00
300800
301000
301000
302000
306000
304300
308700
308B00
FD0B00
031300
021300
062300
043FC0
080300
180300
100FC0
ENDCHAR
STARTCHAR 00BD
ENCODING 189
SWIDTH 846 0
DWIDTH 22 0
BBX 17 18 3 0
BITMAP
100400
F00800
300800
301000
301000
302000
304000
304E00
30B380
30A180
FD3180
031180
020300
040600
040800
081080
183180
103F80
ENDCHAR
STARTCHAR 00BE
ENCODING 190
SWIDTH 884 0
DWIDTH 23 0
BBX 18 18 3 0
BITMAP
780400
860C00
C60800
041000
781000
0C2000
066000
C64300
C68700
8E8B00
790B00
021300
021300
042300
0C3FC0
080300
100300
100FC0
ENDCHAR
STARTCHAR 00BF
ENCODING 191
SWIDTH 461 0
DWIDTH 12 0
BBX 9 18 1 -6
BITMAP
1C00
1C00
1C00
0000
1C00
2200
2200
0600
0400
1800
3000
6000
E300
C380
C080
E080
6100
3E00
ENDCHAR
STARTCHAR 00C0
ENCODING 192
SWIDTH 769 0
DWIDTH 20 0
BBX 18 24 2 0
BITMAP
060000
060000
030000
008000
000000
000000
008000
00C000
01C000
01C000
01E000
03E000
026000
027000
067000
043000
043800
0C1800
0FF800
181C00
100C00
100E00
300E00
FE3FC0
ENDCHAR
STARTCHAR 00C1
ENCODING 193
SWIDTH 769 0
DWIDTH 20 0
BBX 18 24 2 0
BITMAP
001000
003000
006000
004000
008000
000000
008000
00C000
01C000
01C000
01E000
03E000
026000
027000
067000
043000
043800
0C3800
0FF800
181C00
100C00
100E00
300E00
FE3FC0
ENDCHAR
STARTCHAR 00C2
ENCODING 194
SWIDTH 769 0
DWIDTH 20 0
BBX 18 24 2 0
BITMAP
008000
00C000
016000
023000
040800
000000
008000
00C000
01C000
01C000
01E000
03E000
026000
027000
067000
043000
043800
0C3800
0FF800
181C00
100C00
100C00
300E00
FE3FC0
ENDCHAR
STARTCHAR 00C3
ENCODING 195
SWIDTH 769 0
DWIDTH 20 0
BBX 18 23 2 0
BITMAP
039000
05F000
000000
000000
000000
008000
008000
01C000
01C000
01E000
03E000
026000
027000
067000
043000
0C3800
0C3800
0FF800
181C00
101C00
100C00
300E00
FE3FC0
ENDCHAR
STARTCHAR 00C4
ENCODING 196
SWIDTH 769 0
DWIDTH 20 0
BBX 18 23 1 0
BITMAP
061800
061800
021000
000000
000000
00C000
00C000
00C000
01E000
01E000
016000
027000
027000
023000
043800
041800
0C1800
0FFC00
080C00
180C00
180E00
380600
FE3FC0
ENDCHAR
STARTCHAR 00C5
ENCODING 197
SWIDTH 769 0
DWIDTH 20 0
BBX 17 24 2 0
BITMAP
01C000
022000
022000
022000
01C000
000000
008000
008000
01C000
01C000
01C000
02E000
026000
026000
047000
047000
0C3000
083800
0FF800
181C00
101C00
100C00
300E00
FE7F80
ENDCHAR
STARTCHAR 00C6
ENCODING 198
SWIDTH 1000 0
DWIDTH 26 0
BBX 24 18 0 0
BITMAP
007FFF
001C07
001C03
002C01
002C01
004C11
004C10
008C30
008FF0
010C30
030C10
020C11
07FC11
040C01
080C01
080C03
180C07
FE3FFF
ENDCHAR
STARTCHAR 00C7
ENCODING 199
SWIDTH 692 0
DWIDTH 18 0
BBX 14 24 2 -6
BITMAP
0784
186C
203C
601C
600C
C00C
C004
C000
C000
C000
C000
C004
6004
6004
6008
3018
1830
07C0
0200
0380
00C0
00C0
08C0
0780
ENDCHAR
STARTCHAR 00C8
ENCODING 200
SWIDTH 692 0
DWIDTH 18 0
BBX 15 24 1 0
BITMAP
0400
0600
0300
0180
0000
0000
FFFE
1806
1802
1802
1802
1822
1820
1860
1FE0
1860
1820
1820
1822
1802
1802
1806
180E
FFFE
ENDCHAR
STARTCHAR 00C9
ENCODING 201
SWIDTH 692 0
DWIDTH 18 0
BBX 15 24 1 0
BITMAP
0030
0030
0060
00C0
0000
0000
FFFE
180E
1806
1802
1802
1822
1820
1860
1FE0
1860
1820
1820
1822
1802
1802
1806
180E
FFFE
ENDCHAR
STARTCHAR 00CA
ENCODING 202
SWIDTH 692 0
DWIDTH 18 0
BBX 15 24 1 0
BITMAP
0080
01C0
0340
0630
0808
0000
FFFE
1806
1802
1802
1802
1822
1820
1860
1FE0
1860
1820
1820
1822
1802
1802
1806
180E
FFFE
ENDCHAR
STARTCHAR 00CB
ENCODING 203
SWIDTH 692 0
DWIDTH 18 0
BBX 15 23 1 0
BITMAP
0630
0630
0410
0000
0000
FFFE
180E
1806
1802
1802
1822
1820
1860
1FE0
1860
1820
1820
1822
1802
1802
1806
180E
FFFE
ENDCHAR
STARTCHAR 00CC
ENCODING 204
SWIDTH 384 0
DWIDTH 10 0
BBX 8 24 1 0
BITMAP
40
60
30
10
08
00
FF
18
18
18
18
18
18
18
18
18
18
18
18
18
18
18
18
FF
ENDCHAR
STARTCHAR 00CD
ENCODING 205
SWIDTH 384 0
DWIDTH 10 0
BBX 8 24 1 0
BITMAP
03
03
06
08
00
00
FF
18
18
18
18
18
18
18
18
18
18
18
18
18
18
18
18
FF
ENDCHAR
STARTCHAR 00CE
ENCODING 206
SWIDTH 384 0
DWIDTH 10 0
BBX 8 24 1 0
BITMAP
08
18
34
42
81
00
FF
18
18
18
18
18
18
18
18
18
18
18
18
18
18
18
18
FF
ENDCHAR
STARTCHAR 00CF
ENCODING 207
SWIDTH 384 0
DWIDTH 10 0
BBX 8 23 1 0
BITMAP
C3
C3
42
00
00
FF
18
18
18
18
18
18
18
18
18
18
18
18
18
18
18
18
FF
ENDCHAR
STARTCHAR 00D0
ENCODING 208
SWIDTH 730 0
DWIDTH 19 0
BBX 17 18 1 0
BITMAP
FFF000
180C00
180600
180300
180300
180180
180180
180180
7F0180
180180
180180
180180
180180
180300
180300
180600
180C00
FFF000
ENDCHAR
STARTCHAR 00D1
ENCODING 209
SWIDTH 730 0
DWIDTH 19 0
BBX 18 24 1 0
BITMAP
03C800
02F800
000000
000000
000000
000000
FC0FC0
1C0200
1E0200
160200
170200
138200
118200
11C200
10E200
10E200
107200
103200
103A00
101E00
100E00
100E00
100600
FC0200
ENDCHAR
STARTCHAR 00D2
ENCODING 210
SWIDTH 692 0
DWIDTH 18 0
BBX 15 24 2 1
BITMAP
1C00
0C00
0600
0200
0100
0000
07C0
1830
3018
2008
600C
600C
C006
C006
C006
C006
C006
C006
600C
600C
2008
3018
1830
07C0
ENDCHAR
STARTCHAR 00D3
ENCODING 211
SWIDTH 692 0
DWIDTH 18 0
BBX 15 24 2 1
BITMAP
0070
0060
00C0
0080
0100
0000
07C0
1830
3018
2008
600C
600C
C006
C006
C006
C006
C006
C006
600C
600C
2008
3018
1830
07C0
ENDCHAR
STARTCHAR 00D4
ENCODING 212
SWIDTH 692 0
DWIDTH 18 0
BBX 15 24 2 0
BITMAP
0100
0380
06C0
0C60
1010
0000
07C0
1830
3018
2008
600C
600C
C006
C006
C006
C006
C006
C006
600C
600C
2008
3018
1830
07C0
ENDCHAR
STARTCHAR 00D5
ENCODING 213
SWIDTH 692 0
DWIDTH 18 0
BBX 15 24 2 0
BITMAP
0F10
13E0
0000
0000
0000
0000
07C0
1830
3018
2008
600C
600C
C006
C006
C006
C006
C006
C006
600C
600C
2008
3018
1830
07C0
ENDCHAR
STARTCHAR 00D6
ENCODING 214
SWIDTH 692 0
DWIDTH 18 0
BBX 15 24 2 0
BITMAP
0800
0C60
0C60
0000
0000
0000
07C0
1830
3018
2008
600C
600C
C006
C006
C006
C006
C006
C006
600C
600C
2008
3018
1830
07C0
ENDCHAR
STARTCHAR 00D7
ENCODING 215
SWIDTH 923 0
DWIDTH 24 0
BBX 16 16 4 -1
BITMAP
0001
4003
2006
100C
0818
0430
0260
01C0
0180
0340
0620
0C10
1808
3004
6002
C001
ENDCHAR
STARTCHAR 00D8
ENCODING 216
SWIDTH 692 0
DWIDTH 18 0
BBX 15 18 2 0
BITMAP
07C2
1834
301C
200C
601C
602C
C046
C0C6
C186
C306
C606
C406
E80C
700C
6008
7018
5830
87C0
ENDCHAR
STARTCHAR 00D9
ENCODING 217
SWIDTH 807 0
DWIDTH 21 0
BBX 19 24 1 1
BITMAP
030000
038000
008000
004000
000000
000000
FF0FE0
180100
180100
180100
180100
180100
180100
180100
180100
180100
180100
180100
180100
180100
0C0100
0C0200
060400
01F800
ENDCHAR
STARTCHAR 00DA
ENCODING 218
SWIDTH 807 0
DWIDTH 21 0
BBX 19 24 1 1
BITMAP
001C00
001800
003000
002000
004000
000000
FF0FE0
180100
180100
180100
180100
180100
180100
180100
180100
180100
180100
180100
180100
180100
0C0100
0C0200
060400
01F800
ENDCHAR
STARTCHAR 00DB
ENCODING 219
SWIDTH 807 0
DWIDTH 21 0
BBX 19 24 1 0
BITMAP
006000
00E000
01B000
030800
000400
000000
FF0FE0
180100
180100
180100
180100
180100
180100
180100
180100
180100
180100
180100
180100
180100
0C0100
0C0200
060400
01F800
ENDCHAR
STARTCHAR 00DC
ENCODING 220
SWIDTH 807 0
DWIDTH 21 0
BBX 19 23 1 1
BITMAP
031800
031800
000000
000000
000000
FF0FE0
180100
180100
180100
180100
180100
180100
180100
180100
180100
180100
180100
180100
180100
0C0100
0C0200
060400
01F800
ENDCHAR
STARTCHAR 00DD
ENCODING 221
SWIDTH 730 0
DWIDTH 19 0
BBX 17 24 1 0
BITMAP
001800
003800
003000
004000
000000
000000
FF1F80
1C0600
1C0400
0E0400
060800
070800
039000
03A000
01E000
00C000
00C000
00C000
00C000
00C000
00C000
00C000
00C000
07FC00
ENDCHAR
STARTCHAR 00DE
ENCODING 222
SWIDTH 653 0
DWIDTH 17 0
BBX 15 18 1 0
BITMAP
FF00
1800
1800
1FE0
1818
180C
1806
1806
1806
180E
180C
1818
1FF0
1800
1800
1800
1800
FF00
ENDCHAR
STARTCHAR 00DF
ENCODING 223
SWIDTH 538 0
DWIDTH 14 0
BBX 12 18 1 0
BITMAP
0780
18E0
1860
3060
30C0
3080
3700
3180
3040
3060
3070
3030
3030
3030
3630
3670
3460
F3C0
ENDCHAR
STARTCHAR 00E0
ENCODING 224
SWIDTH 500 0
DWIDTH 13 0
BBX 11 18 1 0
BITMAP
6000
6000
3000
1800
0800
0000
1E00
6300
4180
6180
2180
0F80
7180
C180
C3A0
C3A0
C5A0
79C0
ENDCHAR
STARTCHAR 00E1
ENCODING 225
SWIDTH 500 0
DWIDTH 13 0
BBX 11 18 1 0
BITMAP
0180
0380
0300
0400
0800
0000
3E00
4100
4180
6180
2180
0F80
7180
C180
C1A0
C3A0
C5A0
78C0
ENDCHAR
STARTCHAR 00E2
ENCODING 226
SWIDTH 500 0
DWIDTH 13 0
BBX 11 18 1 0
BITMAP
0800
0C00
1C00
3200
4100
0000
1E00
6300
4180
6180
2180
0F80
7180
C180
C3A0
C3A0
C5A0
79C0
ENDCHAR
STARTCHAR 00E3
ENCODING 227
SWIDTH 500 0
DWIDTH 13 0
BBX 11 17 1 0
BITMAP
3880
4F00
0000
0000
0000
1E00
6300
4180
6180
2180
0F80
7180
C180
C3A0
C3A0
C5A0
79C0
ENDCHAR
STARTCHAR 00E4
ENCODING 228
SWIDTH 500 0
DWIDTH 13 0
BBX 11 17 1 0
BITMAP
6300
6300
0100
0000
0000
3C00
4300
4300
6300
0300
0F00
7300
C300
C320
C720
CB20
79C0
ENDCHAR
STARTCHAR 00E5
ENCODING 229
SWIDTH 500 0
DWIDTH 13 0
BBX 11 18 1 0
BITMAP
1C00
2200
2200
2200
1C00
0000
3C00
4300
4300
6300
2300
0F00
7300
C300
C320
C720
C720
79C0
ENDCHAR
STARTCHAR 00E6
ENCODING 230
SWIDTH 692 0
DWIDTH 18 0
BBX 16 12 1 0
BITMAP
1E78
63C6
4186
6183
0183
1FFF
6180
C180
C381
C382
C4C2
787C
ENDCHAR
STARTCHAR 00E7
ENCODING 231
SWIDTH 423 0
DWIDTH 11 0
BBX 9 18 1 -6
BITMAP
1E00
2100
6080
C180
C180
C000
C000
C000
C000
6080
2100
1E00
0800
0C00
0200
0300
0300
1E00
ENDCHAR
STARTCHAR 00E8
ENCODING 232
SWIDTH 461 0
DWIDTH 12 0
BBX 9 18 1 0
BITMAP
6000
7000
3000
0800
0000
0000
1E00
2300
6180
C180
C180
FF80
C000
C000
C080
6080
2100
1E00
ENDCHAR
STARTCHAR 00E9
ENCODING 233
SWIDTH 461 0
DWIDTH 12 0
BBX 9 18 1 0
BITMAP
0100
0300
0200
0400
0800
0000
1E00
2300
6180
C180
C180
FF80
C000
C000
C080
6080
2100
1E00
ENDCHAR
STARTCHAR 00EA
ENCODING 234
SWIDTH 461 0
DWIDTH 12 0
BBX 9 18 1 0
BITMAP
0800
0C00
1C00
1200
2100
0000
1E00
2300
6180
C180
C180
FF80
C000
C000
C080
6080
2100
1E00
ENDCHAR
STARTCHAR 00EB
ENCODING 235
SWIDTH 461 0
DWIDTH 12 0
BBX 9 17 1 0
BITMAP
3300
3300
0100
0000
0000
1E00
2300
6180
C180
C180
FF80
C000
C000
C080
6080
2100
1E00
ENDCHAR
STARTCHAR 00EC
ENCODING 236
SWIDTH 307 0
DWIDTH 8 0
BBX 7 18 0 0
BITMAP
C0
E0
60
10
08
00
78
18
18
18
18
18
18
18
18
18
18
7E
ENDCHAR
STARTCHAR 00ED
ENCODING 237
SWIDTH 269 0
DWIDTH 7 0
BBX 6 18 1 0
BITMAP
04
0C
18
10
20
00
F0
30
30
30
30
30
30
30
30
30
30
FC
ENDCHAR
STARTCHAR 00EE
ENCODING 238
SWIDTH 307 0
DWIDTH 8 0
BBX 8 17 0 0
BITMAP
18
38
24
C3
00
78
18
18
18
18
18
18
18
18
18
18
7E
ENDCHAR
STARTCHAR 00EF
ENCODING 239
SWIDTH 346 0
DWIDTH 9 0
BBX 7 17 1 0
BITMAP
04
C6
C6
00
00
78
18
18
18
18
18
18
18
18
18
18
7C
ENDCHAR
STARTCHAR 00F0
ENCODING 240
SWIDTH 500 0
DWIDTH 13 0
BBX 10 18 1 0
BITMAP
3880
1B00
0C00
1600
2300
0300
1F80
2180
61C0
C0C0
C0C0
C0C0
C0C0
C0C0
C0C0
6180
2180
1E00
ENDCHAR
STARTCHAR 00F1
ENCODING 241
SWIDTH 576 0
DWIDTH 15 0
BBX 13 17 1 0
BITMAP
0E40
13C0
0000
0000
0000
F3C0
34C0
3860
3860
3060
3060
3060
3060
3060
3060
3060
FDF8
ENDCHAR
STARTCHAR 00F2
ENCODING 242
SWIDTH 500 0
DWIDTH 13 0
BBX 10 18 1 0
BITMAP
6000
3000
1000
0800
0400
0000
1E00
2180
6180
C0C0
C0C0
C0C0
C0C0
C0C0
C0C0
6180
2180
1E00
ENDCHAR
STARTCHAR 00F3
ENCODING 243
SWIDTH 500 0
DWIDTH 13 0
BBX 10 18 1 0
BITMAP
0180
0380
0300
0400
0000
0000
1E00
2180
6180
C0C0
C0C0
C0C0
C0C0
C0C0
C0C0
6180
2180
1E00
ENDCHAR
STARTCHAR 00F4
ENCODING 244
SWIDTH 500 0
DWIDTH 13 0
BBX 10 18 1 0
BITMAP
0400
0C00
0E00
1200
2100
0000
1E00
2180
6180
C0C0
C0C0
C0C0
C0C0
C0C0
C0C0
6180
2180
1E00
ENDCHAR
STARTCHAR 00F5
ENCODING 245
SWIDTH 500 0
DWIDTH 13 0
BBX 10 17 1 0
BITMAP
3C80
2F00
0000
0000
0000
1E00
2180
6180
C0C0
C0C0
C0C0
C0C0
C0C0
C0C0
6180
2180
1E00
ENDCHAR
STARTCHAR 00F6
ENCODING 246
SWIDTH 500 0
DWIDTH 13 0
BBX 10 17 1 0
BITMAP
3180
3180
0100
0000
0000
1E00
2180
6180
C0C0
C0C0
C0C0
C0C0
C0C0
C0C0
6180
2180
1E00
ENDCHAR
STARTCHAR 00F7
ENCODING 247
SWIDTH 923 0
DWIDTH 24 0
BBX 22 16 1 -1
BITMAP
007000
007000
007000
000000
000000
000000
000000
FFFFFC
000000
000000
000000
000000
000000
007000
007000
007000
ENDCHAR
STARTCHAR 00F8
ENCODING 248
SWIDTH 500 0
DWIDTH 13 0
BBX 10 12 1 0
BITMAP
1E40
2180
6080
C1C0
C2C0
C4C0
C8C0
D0C0
D0C0
6180
6180
9E00
ENDCHAR
STARTCHAR 00F9
ENCODING 249
SWIDTH 538 0
DWIDTH 14 0
BBX 13 18 0 0
BITMAP
1000
1800
0C00
0400
0200
0000
F1E0
3060
3060
3060
3060
3060
3060
3060
30E0
30E0
3960
1E78
ENDCHAR
STARTCHAR 00FA
ENCODING 250
SWIDTH 538 0
DWIDTH 14 0
BBX 13 18 0 0
BITMAP
00C0
00C0
0180
0200
0000
0000
F1E0
3060
3060
3060
3060
3060
3060
3060
30E0
30E0
3960
1E78
ENDCHAR
STARTCHAR 00FB
ENCODING 251
SWIDTH 538 0
DWIDTH 14 0
BBX 13 18 0 0
BITMAP
0200
0600
0500
0880
1000
0000
F1E0
3060
3060
3060
3060
3060
3060
3060
30E0
30E0
3960
1E78
ENDCHAR
STARTCHAR 00FC
ENCODING 252
SWIDTH 538 0
DWIDTH 14 0
BBX 13 17 0 0
BITMAP
18C0
18C0
0000
0000
0000
F0E0
3060
3060
3060
3060
3060
3060
3060
30E0
30E0
3960
1E78
ENDCHAR
STARTCHAR 00FD
ENCODING 253
SWIDTH 538 0
DWIDTH 14 0
BBX 13 24 0 -6
BITMAP
0060
00E0
00C0
0100
0000
0000
FCF8
3820
1820
1840
0C40
0C40
0C80
0680
0680
0700
0300
0300
0300
0200
2200
6200
6400
3800
ENDCHAR
STARTCHAR 00FE
ENCODING 254
SWIDTH 538 0
DWIDTH 14 0
BBX 11 24 1 -6
BITMAP
3000
F000
3000
3000
3000
3000
31C0
36E0
3460
3860
3860
3060
30C0
30C0
3180
3100
3200
3C00
3000
3000
3000
3000
3000
6000
ENDCHAR
STARTCHAR 00FF
ENCODING 255
SWIDTH 538 0
DWIDTH 14 0
BBX 13 23 0 -6
BITMAP
0840
0C60
0C60
0000
0000
FC78
1820
1820
1840
0C40
0C40
0E80
0680
0680
0700
0300
0300
0200
0200
2200
7200
6400
3800
ENDCHAR
STARTCHAR 0100
ENCODING 256
SWIDTH 769 0
DWIDTH 20 0
BBX 17 22 2 0
BITMAP
07F000
000000
000000
000000
008000
008000
01C000
01C000
01C000
02E000
026000
066000
047000
043000
0C3800
083800
0FF800
181C00
101C00
100C00
300E00
FE7F80
ENDCHAR
STARTCHAR 0101
ENCODING 257
SWIDTH 500 0
DWIDTH 13 0
BBX 11 16 1 0
BITMAP
7F00
0000
0000
0000
1E00
6300
4180
6180
2180
0F80
7180
C180
C3A0
C3A0
C5A0
79C0
ENDCHAR
STARTCHAR 0102
ENCODING 258
SWIDTH 807 0
DWIDTH 21 0
BBX 18 24 2 0
BITMAP
040800
040800
021000
01E000
000000
000000
008000
00C000
00C000
01E000
01E000
016000
027000
027000
063000
043800
043800
0C1800
0FFC00
080C00
100C00
100E00
300600
FE3FC0
ENDCHAR
STARTCHAR 0103
ENCODING 259
SWIDTH 500 0
DWIDTH 13 0
BBX 11 18 1 0
BITMAP
4000
4100
2200
1C00
0000
0000
1E00
6300
4180
6180
2180
0F80
7180
C180
C3A0
C3A0
C5A0
79C0
ENDCHAR
STARTCHAR 0104
ENCODING 260
SWIDTH 807 0
DWIDTH 21 0
BBX 18 24 2 -6
BITMAP
008000
008000
01C000
01C000
01E000
02E000
026000
067000
047000
043000
0C3800
083800
0FFC00
181C00
100C00
100E00
300E00
FE7FC0
000400
001800
003000
003000
003900
001E00
ENDCHAR
STARTCHAR 0105
ENCODING 261
SWIDTH 500 0
DWIDTH 13 0
BBX 11 18 1 -6
BITMAP
1E00
6300
4180
6180
2180
0F80
7180
C180
C3A0
C3A0
C5A0
78C0
0080
0100
0200
0200
0240
0180
ENDCHAR
STARTCHAR 0106
ENCODING 262
SWIDTH 692 0
DWIDTH 18 0
BBX 14 24 2 1
BITMAP
0060
00E0
00C0
0180
0200
0000
0784
186C
203C
601C
600C
C00C
C004
C000
C000
C000
C000
C004
6004
6004
2008
3018
1830
07C0
ENDCHAR
STARTCHAR 0107
ENCODING 263
SWIDTH 423 0
DWIDTH 11 0
BBX 9 18 1 0
BITMAP
0180
0180
0300
0600
0400
0000
1E00
2100
6080
C180
C000
C000
C000
C000
C080
6080
2100
1E00
ENDCHAR
STARTCHAR 0108
ENCODING 264
SWIDTH 692 0
DWIDTH 18 0
BBX 14 24 2 0
BITMAP
0300
0380
0680
0C40
1030
0000
0784
186C
203C
601C
600C
C00C
C004
C000
C000
C000
C000
C004
6004
6004
2008
3018
1830
07C0
ENDCHAR
STARTCHAR 0109
ENCODING 265
SWIDTH 423 0
DWIDTH 11 0
BBX 9 18 1 0
BITMAP
0400
0C00
0A00
1300
2080
0000
1E00
2100
6080
C180
C180
C000
C000
C000
C080
6080
2100
1E00
ENDCHAR
STARTCHAR 010A
ENCODING 266
SWIDTH 692 0
DWIDTH 18 0
BBX 14 23 2 1
BITMAP
0300
0300
0000
0000
0000
0784
186C
203C
601C
600C
C00C
C004
C000
C000
C000
C000
C004
6004
6004
2008
3018
1830
07C0
ENDCHAR
STARTCHAR 010B
ENCODING 267
SWIDTH 423 0
DWIDTH 11 0
BBX 9 17 1 0
BITMAP
0C00
0C00
0400
0000
0000
1E00
2100
6080
C180
C180
C000
C000
C000
C080
6080
2100
1E00
ENDCHAR
STARTCHAR 010C
ENCODING 268
SWIDTH 692 0
DWIDTH 18 0
BBX 14 24 2 0
BITMAP
1020
0C40
0780
0300
0000
0000
0784
186C
203C
601C
600C
C00C
C004
C000
C000
C000
C000
C004
6004
6004
2008
3018
1830
07C0
ENDCHAR
STARTCHAR 010D
ENCODING 269
SWIDTH 423 0
DWIDTH 11 0
BBX 9 18 1 0
BITMAP
0080
3100
1A00
0E00
0400
0000
1E00
2100
6080
C180
C180
C000
C000
C000
C080
6080
2100
1E00
ENDCHAR
STARTCHAR 010E
ENCODING 270
SWIDTH 769 0
DWIDTH 20 0
BBX 17 24 1 0
BITMAP
080000
041000
036000
01C000
008000
000000
FFF000
180C00
180600
180300
180300
180180
180180
180180
180180
180180
180180
180180
180180
180300
180300
180600
180C00
FFF000
ENDCHAR
STARTCHAR 010F
ENCODING 271
SWIDTH 615 0
DWIDTH 16 0
BBX 14 18 1 0
BITMAP
07DC
00DC
00C4
00C4
00C8
00C0
1CC0
62C0
61C0
C1C0
C0C0
C0C0
C0C0
C0C0
C0C0
61C0
61C0
1EF0
ENDCHAR
STARTCHAR 0110
ENCODING 272
SWIDTH 730 0
DWIDTH 19 0
BBX 17 18 1 0
BITMAP
FFF000
180C00
180600
180300
180300
180180
180180
180180
7F0180
180180
180180
180180
180180
180300
180300
180600
180C00
FFF000
ENDCHAR
STARTCHAR 0111
ENCODING 273
SWIDTH 538 0
DWIDTH 14 0
BBX 12 18 1 0
BITMAP
07C0
00C0
00C0
1FF0
00C0
00C0
1CC0
62C0
61C0
C1C0
C0C0
C0C0
C0C0
C0C0
C0C0
61C0
61C0
1EF0
ENDCHAR
STARTCHAR 0112
ENCODING 274
SWIDTH 692 0
DWIDTH 18 0
BBX 15 22 1 0
BITMAP
07F0
0000
0000
0000
FFFE
1806
1806
1802
1802
1822
1820
1860
1FE0
1860
1820
1820
1822
1802
1802
1806
180E
FFFE
ENDCHAR
STARTCHAR 0113
ENCODING 275
SWIDTH 461 0
DWIDTH 12 0
BBX 9 16 1 0
BITMAP
7F00
0000
0000
0000
1E00
2300
6180
C180
C180
FF80
C000
C000
C080
6080
2100
1E00
ENDCHAR
STARTCHAR 0114
ENCODING 276
SWIDTH 692 0
DWIDTH 18 0
BBX 15 24 1 0
BITMAP
0800
0810
0420
03C0
0000
0000
FFFE
180E
1806
1802
1802
1822
1820
1860
1FE0
1860
1820
1820
1822
1802
1802
1806
180E
FFFE
ENDCHAR
STARTCHAR 0115
ENCODING 277
SWIDTH 461 0
DWIDTH 12 0
BBX 9 18 1 0
BITMAP
4100
4100
2200
1C00
0000
0000
1E00
2300
6380
C180
C180
FF80
C000
C000
C080
6080
2100
1E00
ENDCHAR
STARTCHAR 0116
ENCODING 278
SWIDTH 692 0
DWIDTH 18 0
BBX 15 23 1 0
BITMAP
0180
0180
0080
0000
0000
FFFE
1806
1802
1802
1802
1822
1820
1860
1FE0
1860
1820
1820
1822
1802
1802
1806
180E
FFFE
ENDCHAR
STARTCHAR 0117
ENCODING 279
SWIDTH 461 0
DWIDTH 12 0
BBX 9 17 1 0
BITMAP
0C00
0C00
0000
0000
0000
1E00
2100
6180
C180
C180
FF80
C000
C000
C080
6080
2100
1E00
ENDCHAR
STARTCHAR 0118
ENCODING 280
SWIDTH 692 0
DWIDTH 18 0
BBX 15 24 1 -6
BITMAP
FFFE
1806
1802
1802
1802
1822
1820
1860
1FE0
1860
1820
1820
1822
1802
1802
1806
180E
FFFE
0010
0060
00C0
00C0
00E0
0078
ENDCHAR
STARTCHAR 0119
ENCODING 281
SWIDTH 461 0
DWIDTH 12 0
BBX 9 18 1 -6
BITMAP
1E00
2300
6180
E180
C180
C180
FF80
C000
C080
6080
2180
1F00
0600
0400
0800
0800
0A00
0E00
ENDCHAR
STARTCHAR 011A
ENCODING 282
SWIDTH 692 0
DWIDTH 18 0
BBX 15 24 1 0
BITMAP
0808
0410
0360
01C0
0080
0000
FFFE
1806
1802
1802
1802
1822
1820
1860
1FE0
1860
1820
1820
1822
1802
1802
1806
180E
FFFE
ENDCHAR
STARTCHAR 011B
ENCODING 283
SWIDTH 461 0
DWIDTH 12 0
BBX 9 17 1 1
BITMAP
2300
1600
0C00
0800
0000
1E00
2300
6180
C180
C180
FF80
C000
C000
C080
6080
2100
1E00
ENDCHAR
STARTCHAR 011C
ENCODING 284
SWIDTH 730 0
DWIDTH 19 0
BBX 17 24 2 0
BITMAP
010000
038000
06C000
0C6000
101000
000000
07C400
186400
301C00
601C00
600C00
600400
C00400
C00000
C07F80
C01C00
C01C00
C01C00
C01C00
601C00
601C00
303400
186400
078400
ENDCHAR
STARTCHAR 011D
ENCODING 285
SWIDTH 576 0
DWIDTH 15 0
BBX 12 24 2 -6
BITMAP
0400
0C00
0E00
1100
2080
0000
1E70
61B0
E1F0
C0C0
C0C0
C0C0
E180
6180
1E00
E000
FF00
7FC0
4060
8020
8020
8020
C040
3F80
ENDCHAR
STARTCHAR 011E
ENCODING 286
SWIDTH 730 0
DWIDTH 19 0
BBX 17 24 2 0
BITMAP
102000
102000
084000
078000
000000
000000
07C400
186400
301C00
601C00
600C00
600400
C00400
C00000
C0FF80
C01C00
C01C00
C01C00
C01C00
601C00
603C00
203400
106400
0F8400
ENDCHAR
STARTCHAR 011F
ENCODING 287
SWIDTH 576 0
DWIDTH 15 0
BBX 12 23 2 -6
BITMAP
0080
2080
1F00
0000
0000
1E70
61B0
E1F0
C0C0
C0C0
C0C0
E180
6180
1E00
E000
FF00
7FC0
4060
8020
8020
8020
C040
3F80
ENDCHAR
STARTCHAR 0120
ENCODING 288
SWIDTH 730 0
DWIDTH 19 0
BBX 17 23 2 1
BITMAP
030000
030000
000000
000000
000000
07C400
186400
301C00
601C00
600C00
600400
C00400
C00000
C0FF80
C01C00
C01C00
C01C00
C01C00
601C00
601C00
203400
186400
078400
ENDCHAR
STARTCHAR 0121
ENCODING 289
SWIDTH 576 0
DWIDTH 15 0
BBX 12 22 2 -5
BITMAP
0C00
0C00
0000
0000
1E70
61B0
E1F0
C0C0
C0C0
C0C0
E180
6180
1E00
E000
FF00
7FC0
4060
8020
8020
8020
C040
3F80
ENDCHAR
STARTCHAR 0122
ENCODING 290
SWIDTH 730 0
DWIDTH 19 0
BBX 17 24 2 -6
BITMAP
07C400
186400
301C00
601C00
600C00
600400
C00400
C00000
C0FF80
C01C00
C01C00
C01C00
C01C00
601C00
601C00
203400
186400
078400
000000
030000
030000
010000
010000
020000
ENDCHAR
STARTCHAR 0123
ENCODING 291
SWIDTH 576 0
DWIDTH 15 0
BBX 12 24 2 -6
BITMAP
0800
1000
1000
1C00
1C00
0800
1E70
61B0
E1F0
C0C0
C0C0
C0C0
E180
6180
1E00
E000
FF00
7FC0
4060
8020
8020
8020
C040
3F80
ENDCHAR
STARTCHAR 0124
ENCODING 292
SWIDTH 769 0
DWIDTH 20 0
BBX 18 24 1 0
BITMAP
004000
00C000
01A000
021000
040800
000000
FF3FC0
180600
180600
180600
180600
180600
180600
180600
1FFE00
180600
180600
180600
180600
180600
180600
180600
180600
FF3FC0
ENDCHAR
STARTCHAR 0125
ENCODING 293
SWIDTH 576 0
DWIDTH 15 0
BBX 13 24 1 0
BITMAP
0200
0600
0500
0880
1000
0000
F000
3000
3000
3000
3000
3000
33C0
34C0
3860
3860
3060
3060
3060
3060
3060
3060
3060
FDF8
ENDCHAR
STARTCHAR 0126
ENCODING 294
SWIDTH 769 0
DWIDTH 20 0
BBX 18 18 1 0
BITMAP
FF3FC0
180600
180600
180600
FFFFC0
180600
180600
180600
1FFE00
180600
180600
180600
180600
180600
180600
180600
180600
FF3FC0
ENDCHAR
STARTCHAR 0127
ENCODING 295
SWIDTH 576 0
DWIDTH 15 0
BBX 13 18 1 0
BITMAP
F000
3000
3000
FF80
3000
3000
33C0
34C0
3860
3860
3060
3060
3060
3060
3060
3060
3060
FDF8
ENDCHAR
STARTCHAR 0128
ENCODING 296
SWIDTH 384 0
DWIDTH 10 0
BBX 7 23 2 0
BITMAP
F2
BE
00
00
00
FE
30
30
30
30
30
30
30
30
30
30
30
30
30
30
30
30
FE
ENDCHAR
STARTCHAR 0129
ENCODING 297
SWIDTH 269 0
DWIDTH 7 0
BBX 7 17 0 0
BITMAP
72
9E
00
00
00
78
18
18
18
18
18
18
18
18
18
18
7E
ENDCHAR
STARTCHAR 012A
ENCODING 298
SWIDTH 384 0
DWIDTH 10 0
BBX 7 22 2 0
BITMAP
FE
00
00
00
FE
18
18
18
18
18
18
18
18
18
18
18
18
18
18
18
18
FE
ENDCHAR
STARTCHAR 012B
ENCODING 299
SWIDTH 346 0
DWIDTH 9 0
BBX 7 16 1 0
BITMAP
FE
00
00
00
78
18
18
18
18
18
18
18
18
18
18
7E
ENDCHAR
STARTCHAR 012C
ENCODING 300
SWIDTH 384 0
DWIDTH 10 0
BBX 8 24 1 0
BITMAP
81
81
42
3C
00
00
FF
18
18
18
18
18
18
18
18
18
18
18
18
18
18
18
18
FF
ENDCHAR
STARTCHAR 012D
ENCODING 301
SWIDTH 269 0
DWIDTH 7 0
BBX 7 17 0 0
BITMAP
82
82
7C
00
00
78
18
18
18
18
18
18
18
18
18
18
7C
ENDCHAR
STARTCHAR 012E
ENCODING 302
SWIDTH 384 0
DWIDTH 10 0
BBX 8 24 1 -6
BITMAP
FF
18
18
18
18
18
18
18
18
18
18
18
18
18
18
18
18
FF
06
0C
18
18
1C
0F
ENDCHAR
STARTCHAR 012F
ENCODING 303
SWIDTH 269 0
DWIDTH 7 0
BBX 5 24 1 -6
BITMAP
30
30
00
00
00
00
F0
30
30
30
30
30
30
30
30
30
30
F8
10
20
40
40
48
30
ENDCHAR
STARTCHAR 0130
ENCODING 304
SWIDTH 384 0
DWIDTH 10 0
BBX 7 23 2 0
BITMAP
30
30
10
00
00
FE
30
30
30
30
30
30
30
30
30
30
30
30
30
30
30
30
FE
ENDCHAR
STARTCHAR 0131
ENCODING 305
SWIDTH 307 0
DWIDTH 8 0
BBX 6 12 1 0
BITMAP
F0
30
30
30
30
30
30
30
30
30
30
FC
ENDCHAR
STARTCHAR 0132
ENCODING 306
SWIDTH 884 0
DWIDTH 23 0
BBX 21 18 1 0
BITMAP
FF03F8
1800C0
1800C0
1800C0
1800C0
1800C0
1800C0
1800C0
1800C0
1800C0
1800C0
1800C0
1830C0
1878C0
1870C0
1860C0
182180
FF1F00
ENDCHAR
STARTCHAR 0133
ENCODING 307
SWIDTH 538 0
DWIDTH 14 0
BBX 10 24 1 -6
BITMAP
70C0
70C0
2040
0000
0000
0000
F3C0
30C0
30C0
30C0
30C0
30C0
30C0
30C0
30C0
30C0
30C0
F8C0
00C0
00C0
0CC0
0CC0
0880
0700
ENDCHAR
STARTCHAR 0134
ENCODING 308
SWIDTH 538 0
DWIDTH 14 0
BBX 12 24 1 0
BITMAP
0180
0180
0240
0420
0810
0000
07F0
0180
0180
0180
0180
0180
0180
0180
0180
0180
0180
0180
6180
F180
E180
C180
4300
3E00
ENDCHAR
STARTCHAR 0135
ENCODING 309
SWIDTH 346 0
DWIDTH 9 0
BBX 9 24 -1 -6
BITMAP
0400
0600
0E00
1100
2080
0000
3E00
0600
0600
0600
0600
0600
0600
0600
0600
0600
0600
0600
0600
0600
C600
C600
8C00
7800
ENDCHAR
STARTCHAR 0136
ENCODING 310
SWIDTH 730 0
DWIDTH 19 0
BBX 17 24 1 -6
BITMAP
FF3F80
180E00
180800
181000
182000
184000
188000
19C000
1BC000
1CE000
186000
187000
183800
183800
181C00
181C00
180E00
FF7F80
000000
00C000
00C000
004000
004000
008000
ENDCHAR
STARTCHAR 0137
ENCODING 311
SWIDTH 538 0
DWIDTH 14 0
BBX 12 24 1 -6
BITMAP
F000
3000
3000
3000
3000
3000
31F0
3080
3180
3100
3200
3700
3F00
3980
3180
30C0
30E0
FDF0
0000
0300
0300
0100
0100
0200
ENDCHAR
STARTCHAR 0138
ENCODING 312
SWIDTH 538 0
DWIDTH 14 0
BBX 12 12 1 0
BITMAP
F1F0
3080
3100
3200
3200
3600
3B00
3300
3180
31C0
30E0
FDF0
ENDCHAR
STARTCHAR 0139
ENCODING 313
SWIDTH 653 0
DWIDTH 17 0
BBX 15 24 1 0
BITMAP
0100
0300
0600
0C00
0000
0000
FF80
1800
1800
1800
1800
1800
1800
1800
1800
1800
1800
1802
1802
1802
1806
1806
180E
FFFE
ENDCHAR
STARTCHAR 013A
ENCODING 314
SWIDTH 269 0
DWIDTH 7 0
BBX 6 24 1 0
BITMAP
04
0C
18
10
20
00
F0
30
30
30
30
30
30
30
30
30
30
30
30
30
30
30
30
FC
ENDCHAR
STARTCHAR 013B
ENCODING 315
SWIDTH 653 0
DWIDTH 17 0
BBX 15 24 1 -6
BITMAP
FF00
1800
1800
1800
1800
1800
1800
1800
1800
1800
1800
1802
1802
1802
1806
1806
180E
FFFE
0000
0180
0180
0080
0080
0100
ENDCHAR
STARTCHAR 013C
ENCODING 316
SWIDTH 307 0
DWIDTH 8 0
BBX 6 24 1 -6
BITMAP
F0
30
30
30
30
30
30
30
30
30
30
30
30
30
30
30
30
FC
00
70
70
10
10
20
ENDCHAR
STARTCHAR 013D
ENCODING 317
SWIDTH 692 0
DWIDTH 18 0
BBX 16 18 1 0
BITMAP
FF06
1807
1803
1801
1802
1804
1800
1800
1800
1800
1800
1802
1802
1802
1806
1806
180E
FFFE
ENDCHAR
STARTCHAR 013E
ENCODING 318
SWIDTH 384 0
DWIDTH 10 0
BBX 8 18 1 0
BITMAP
F2
37
31
31
32
34
30
30
30
30
30
30
30
30
30
30
30
FC
ENDCHAR
STARTCHAR 013F
ENCODING 319
SWIDTH 653 0
DWIDTH 17 0
BBX 15 18 1 0
BITMAP
FF80
1800
1800
1800
1800
1800
180C
180C
1808
1800
1800
1802
1802
1802
1806
1806
180E
FFFE
ENDCHAR
STARTCHAR 0140
ENCODING 320
SWIDTH 384 0
DWIDTH 10 0
BBX 9 18 1 0
BITMAP
F000
3000
3000
3000
3000
3000
3000
3180
3180
3100
3000
3000
3000
3000
3000
3000
3000
FC00
ENDCHAR
STARTCHAR 0141
ENCODING 321
SWIDTH 692 0
DWIDTH 18 0
BBX 15 18 1 0
BITMAP
FF00
1800
1800
1800
1800
1800
1980
1B00
1C00
3800
5800
1802
1802
1802
1806
1806
180E
FFFE
ENDCHAR
STARTCHAR 0142
ENCODING 322
SWIDTH 307 0
DWIDTH 8 0
BBX 6 18 1 0
BITMAP
F0
30
30
30
30
30
30
3C
30
F0
30
30
30
30
30
30
30
FC
ENDCHAR
STARTCHAR 0143
ENCODING 323
SWIDTH 730 0
DWIDTH 19 0
BBX 18 24 1 1
BITMAP
001800
003000
002000
004000
000000
000000
FC0FC0
1C0200
1E0200
160200
170200
138200
118200
11C200
10E200
10E200
107200
103200
103A00
101E00
100E00
100E00
100600
FE0200
ENDCHAR
STARTCHAR 0144
ENCODING 324
SWIDTH 576 0
DWIDTH 15 0
BBX 13 18 1 0
BITMAP
0040
00C0
0180
0100
0200
0000
F3C0
34C0
3860
3860
3060
3060
3060
3060
3060
3060
3060
FDF8
ENDCHAR
STARTCHAR 0145
ENCODING 325
SWIDTH 730 0
DWIDTH 19 0
BBX 18 24 1 -6
BITMAP
FC0FC0
1C0200
1E0200
170200
170200
138200
118200
11C200
10E200
10E200
107200
103200
103A00
101E00
100E00
100E00
100600
FE0200
000000
006000
006000
002000
004000
004000
ENDCHAR
STARTCHAR 0146
ENCODING 326
SWIDTH 576 0
DWIDTH 15 0
BBX 13 18 1 -6
BITMAP
F3C0
34C0
3860
3860
3060
3060
3060
3060
3060
3060
3060
FCF8
0000
0300
0300
0100
0100
0200
ENDCHAR
STARTCHAR 0147
ENCODING 327
SWIDTH 730 0
DWIDTH 19 0
BBX 18 24 1 0
BITMAP
020800
011000
01E000
00C000
000000
000000
FC0FC0
1C0200
1E0200
160200
170200
138200
118200
11C200
10E200
10E200
107200
103200
103A00
101E00
100E00
100E00
100600
FE0200
ENDCHAR
STARTCHAR 0148
ENCODING 328
SWIDTH 576 0
DWIDTH 15 0
BBX 13 17 1 0
BITMAP
0840
0C80
0700
0200
0000
F3C0
34C0
3860
3860
3060
3060
3060
3060
3060
3060
3060
FDF8
ENDCHAR
STARTCHAR 0149
ENCODING 329
SWIDTH 692 0
DWIDTH 18 0
BBX 16 18 1 0
BITMAP
E000
E000
6000
2000
4000
0000
1E78
068C
070C
070C
060C
060C
060C
060C
060C
060C
060C
1FBF
ENDCHAR
STARTCHAR 014A
ENCODING 330
SWIDTH 730 0
DWIDTH 19 0
BBX 18 24 1 -6
BITMAP
FC0FC0
1C0200
1E0200
160200
170200
138200
138200
11C200
10E200
10E200
107200
103200
103A00
101E00
101E00
100E00
100600
FE0600
000200
000200
000200
006200
006400
003800
ENDCHAR
STARTCHAR 014B
ENCODING 331
SWIDTH 538 0
DWIDTH 14 0
BBX 11 18 1 -6
BITMAP
F3C0
34C0
3860
3860
3060
3060
3060
3060
3060
3060
3060
FC60
0060
0060
0060
0840
0CC0
0780
ENDCHAR
STARTCHAR 014C
ENCODING 332
SWIDTH 692 0
DWIDTH 18 0
BBX 15 23 2 0
BITMAP
0FE0
0000
0000
0000
0000
07C0
1830
3018
2008
600C
600C
C006
C006
C006
C006
C006
C006
600C
600C
2008
3018
1830
07C0
ENDCHAR
STARTCHAR 014D
ENCODING 333
SWIDTH 500 0
DWIDTH 13 0
BBX 10 16 1 0
BITMAP
3F80
0000
0000
0000
1E00
2180
6180
C0C0
C0C0
C0C0
C0C0
C0C0
C0C0
6180
2180
1E00
ENDCHAR
STARTCHAR 014E
ENCODING 334
SWIDTH 692 0
DWIDTH 18 0
BBX 15 24 2 0
BITMAP
0810
0810
0420
03C0
0000
0000
07C0
1830
3018
2008
600C
600C
C006
C006
C006
C006
C006
C006
600C
600C
2008
3018
1830
07C0
ENDCHAR
STARTCHAR 014F
ENCODING 335
SWIDTH 500 0
DWIDTH 13 0
BBX 10 18 1 0
BITMAP
0080
2080
2100
1E00
0000
0000
1E00
2180
6180
C0C0
C0C0
C0C0
C0C0
C0C0
C0C0
6180
2180
1E00
ENDCHAR
STARTCHAR 0150
ENCODING 336
SWIDTH 692 0
DWIDTH 18 0
BBX 15 24 2 1
BITMAP
01D8
0198
0330
0260
0440
0000
07C0
1830
3018
2008
600C
600C
C006
C006
C006
C006
C006
C006
600C
600C
2008
3018
1830
07C0
ENDCHAR
STARTCHAR 0151
ENCODING 337
SWIDTH 461 0
DWIDTH 12 0
BBX 10 18 1 0
BITMAP
0640
06C0
0D80
1900
1200
0000
1E00
2180
6180
C0C0
C0C0
C0C0
C0C0
C0C0
C0C0
6180
2180
1E00
ENDCHAR
STARTCHAR 0152
ENCODING 338
SWIDTH 1038 0
DWIDTH 27 0
BBX 24 18 2 0
BITMAP
07FFFF
183C07
301C03
200C01
600C21
600C20
C00C20
C00C60
C00FE0
C00C60
C00C20
C00C21
600C01
600C01
200C03
301C03
183C07
07FFFF
ENDCHAR
STARTCHAR 0153
ENCODING 339
SWIDTH 769 0
DWIDTH 20 0
BBX 17 12 1 0
BITMAP
1E1E00
216300
61C100
E1C180
C0C180
C0FF80
C0C000
C0C000
E1C080
61C080
216100
1E1E00
ENDCHAR
STARTCHAR 0154
ENCODING 340
SWIDTH 730 0
DWIDTH 19 0
BBX 17 24 1 1
BITMAP
006000
00E000
008000
010000
000000
000000
FFF000
181800
180C00
180C00
180C00
180C00
181800
1FE000
183000
183800
181800
181800
181800
181C80
181C80
181C80
181F00
FF0F00
ENDCHAR
STARTCHAR 0155
ENCODING 341
SWIDTH 423 0
DWIDTH 11 0
BBX 9 18 1 0
BITMAP
0080
0180
0300
0200
0400
0000
F380
3480
3980
3880
3800
3000
3000
3000
3000
3000
3000
FC00
ENDCHAR
STARTCHAR 0156
ENCODING 342
SWIDTH 730 0
DWIDTH 19 0
BBX 17 24 1 -6
BITMAP
FFF000
181800
180C00
180C00
180C00
180C00
181800
1FE000
182000
183000
181800
181800
181800
181C80
181C80
181C80
181F00
FF8F00
000000
00C000
00C000
004000
008000
008000
ENDCHAR
STARTCHAR 0157
ENCODING 343
SWIDTH 423 0
DWIDTH 11 0
BBX 9 18 1 -6
BITMAP
F300
3480
3980
3900
3800
3000
3000
3000
3000
3000
3000
FC00
0000
7000
7000
1000
1000
2000
ENDCHAR
STARTCHAR 0158
ENCODING 344
SWIDTH 730 0
DWIDTH 19 0
BBX 17 24 1 0
BITMAP
102000
0C4000
078000
030000
000000
000000
FFF000
181800
180C00
180C00
180C00
180C00
181800
1FE000
183000
183800
181800
181800
181800
181C80
181C80
181C80
181F00
FF0F00
ENDCHAR
STARTCHAR 0159
ENCODING 345
SWIDTH 423 0
DWIDTH 11 0
BBX 9 17 1 0
BITMAP
2080
1900
0E00
0600
0000
F380
3480
3980
3880
3800
3000
3000
3000
3000
3000
3000
FC00
ENDCHAR
STARTCHAR 015A
ENCODING 346
SWIDTH 615 0
DWIDTH 16 0
BBX 13 24 2 1
BITMAP
0180
0180
0300
0600
0400
0000
1E20
61A0
C060
C020
C020
C020
E000
7C00
3F80
0FE0
81F0
8070
8018
C018
C018
E010
9820
87C0
ENDCHAR
STARTCHAR 015B
ENCODING 347
SWIDTH 423 0
DWIDTH 11 0
BBX 9 18 1 0
BITMAP
0300
0700
0600
0800
1000
0000
7C00
8300
8100
C100
F000
7C00
1F00
8380
8080
C080
E080
9F00
ENDCHAR
STARTCHAR 015C
ENCODING 348
SWIDTH 615 0
DWIDTH 16 0
BBX 13 24 2 0
BITMAP
0400
0E00
1A00
1100
60C0
0000
1E20
61A0
C060
C060
C020
C020
E000
7C00
3F80
0FE0
81F0
8070
8018
C018
C018
E010
9820
87C0
ENDCHAR
STARTCHAR 015D
ENCODING 349
SWIDTH 423 0
DWIDTH 11 0
BBX 9 18 1 0
BITMAP
1800
1800
3C00
2400
4300
0000
7D00
8300
8100
C100
F000
7C00
1F00
8380
8080
C080
E080
9F00
ENDCHAR
STARTCHAR 015E
ENCODING 350
SWIDTH 615 0
DWIDTH 16 0
BBX 13 24 2 -6
BITMAP
1E20
61A0
C060
C060
C020
C020
E000
7C00
3F80
0FE0
81F0
8070
8018
C018
C018
E010
9820
8FC0
0400
0600
0180
0180
1380
0F00
ENDCHAR
STARTCHAR 015F
ENCODING 351
SWIDTH 423 0
DWIDTH 11 0
BBX 9 18 1 -6
BITMAP
7900
8700
8100
C100
F000
7C00
1F00
8380
8080
C080
E080
9F00
1000
1800
0600
0600
0600
3C00
ENDCHAR
STARTCHAR 0160
ENCODING 352
SWIDTH 615 0
DWIDTH 16 0
BBX 13 24 2 0
BITMAP
4080
3100
1E00
0C00
0000
0000
1E20
61A0
C060
C060
C020
C020
E000
7C00
3F80
0FE0
81F0
8070
8018
C018
C018
E010
9820
87C0
ENDCHAR
STARTCHAR 0161
ENCODING 353
SWIDTH 423 0
DWIDTH 11 0
BBX 9 18 1 0
BITMAP
0100
4200
3C00
1800
1800
0000
7D00
8300
8100
C100
F000
7C00
1F00
8380
8080
C080
E080
9F00
ENDCHAR
STARTCHAR 0162
ENCODING 354
SWIDTH 692 0
DWIDTH 18 0
BBX 15 24 2 -6
BITMAP
FFFE
C30E
8306
8302
0302
0302
0302
0300
0300
0300
0300
0300
0300
0300
0300
0300
0300
1FF0
0200
0300
00C0
00C0
08C0
0780
ENDCHAR
STARTCHAR 0163
ENCODING 355
SWIDTH 384 0
DWIDTH 10 0
BBX 8 22 1 -6
BITMAP
10
10
10
30
FE
30
30
30
30
30
30
30
31
31
33
1E
10
08
06
06
06
3C
ENDCHAR
STARTCHAR 0164
ENCODING 356
SWIDTH 692 0
DWIDTH 18 0
BBX 15 23 2 1
BITMAP
1860
06C0
0380
0100
0000
FFFE
C30E
8306
8302
0302
0302
0302
0300
0300
0300
0300
0300
0300
0300
0300
0300
0300
1FF0
ENDCHAR
STARTCHAR 0165
ENCODING 357
SWIDTH 423 0
DWIDTH 11 0
BBX 9 18 1 0
BITMAP
0300
0380
1080
1100
1200
3000
FE00
3000
3000
3000
3000
3000
3000
3000
3100
3100
3300
1E00
ENDCHAR
STARTCHAR 0166
ENCODING 358
SWIDTH 692 0
DWIDTH 18 0
BBX 15 18 2 0
BITMAP
FFFE
C30E
8306
8302
0302
0302
0302
0300
3FF8
0300
0300
0300
0300
0300
0300
0300
0300
1FF0
ENDCHAR
STARTCHAR 0167
ENCODING 359
SWIDTH 384 0
DWIDTH 10 0
BBX 8 17 1 0
BITMAP
10
10
10
30
30
FE
30
30
FE
30
30
30
30
31
31
33
1E
ENDCHAR
STARTCHAR 0168
ENCODING 360
SWIDTH 807 0
DWIDTH 21 0
BBX 19 24 1 0
BITMAP
01E400
027800
000000
000000
000000
000000
FF0FE0
180100
180100
180100
180100
180100
180100
180100
180100
180100
180100
180100
180100
180100
0C0100
0C0200
060400
01F800
ENDCHAR
STARTCHAR 0169
ENCODING 361
SWIDTH 538 0
DWIDTH 14 0
BBX 13 17 0 0
BITMAP
1E40
1780
0000
0000
0000
F1E0
3060
3060
3060
3060
3060
3060
3060
30E0
30E0
3960
1E78
ENDCHAR
STARTCHAR 016A
ENCODING 362
SWIDTH 807 0
DWIDTH 21 0
BBX 19 23 1 0
BITMAP
03F800
000000
000000
000000
000000
FF0FE0
180100
180100
180100
180100
180100
180100
180100
180100
180100
180100
180100
180100
180100
0C0100
0C0200
060400
01F800
ENDCHAR
STARTCHAR 016B
ENCODING 363
SWIDTH 538 0
DWIDTH 14 0
BBX 13 16 0 0
BITMAP
1FC0
0000
0000
0000
F1E0
3060
3060
3060
3060
3060
3060
3060
30E0
30E0
3960
1E78
ENDCHAR
STARTCHAR 016C
ENCODING 364
SWIDTH 807 0
DWIDTH 21 0
BBX 19 24 1 0
BITMAP
020400
020400
010800
00F000
000000
000000
FF07E0
180100
180100
180100
180100
180100
180100
180100
180100
180100
180100
180100
180100
180100
0C0100
0C0200
060400
01F800
ENDCHAR
STARTCHAR 016D
ENCODING 365
SWIDTH 538 0
DWIDTH 14 0
BBX 13 18 0 0
BITMAP
1040
1040
0880
0700
0000
0000
F1E0
3060
3060
3060
3060
3060
3060
3060
30E0
30E0
3960
1E78
ENDCHAR
STARTCHAR 016E
ENCODING 366
SWIDTH 807 0
DWIDTH 21 0
BBX 19 25 1 0
BITMAP
006000
019800
010800
010800
00F000
000000
000000
FF07E0
180100
180100
180100
180100
180100
180100
180100
180100
180100
180100
180100
180100
180100
0C0100
0C0200
060400
01F800
ENDCHAR
STARTCHAR 016F
ENCODING 367
SWIDTH 538 0
DWIDTH 14 0
BBX 13 18 0 0
BITMAP
0700
0880
0880
0880
0700
0000
F1E0
3060
3060
3060
3060
3060
3060
3060
3060
30E0
3960
1E78
ENDCHAR
STARTCHAR 0170
ENCODING 368
SWIDTH 807 0
DWIDTH 21 0
BBX 19 24 1 1
BITMAP
003600
006600
00CC00
009000
000000
000000
FF0FE0
180100
180100
180100
180100
180100
180100
180100
180100
180100
180100
180100
180100
180100
0C0100
0C0200
060400
01F800
ENDCHAR
STARTCHAR 0171
ENCODING 369
SWIDTH 538 0
DWIDTH 14 0
BBX 13 18 0 0
BITMAP
0130
0370
0640
0480
0900
0000
F1E0
3060
3060
3060
3060
3060
3060
3060
30E0
30E0
3960
1E78
ENDCHAR
STARTCHAR 0172
ENCODING 370
SWIDTH 807 0
DWIDTH 21 0
BBX 19 24 1 -6
BITMAP
FF07E0
180100
180100
180100
180100
180100
180100
180100
180100
180100
180100
180100
180100
180100
0C0100
0C0200
060600
01FC00
003000
006000
00C000
00C000
00E000
007800
ENDCHAR
STARTCHAR 0173
ENCODING 371
SWIDTH 538 0
DWIDTH 14 0
BBX 13 18 0 -6
BITMAP
F1E0
3060
3060
3060
3060
3060
3060
3060
30E0
30E0
3960
1E78
0020
0040
0080
0080
0090
0070
ENDCHAR
STARTCHAR 0174
ENCODING 372
SWIDTH 1076 0
DWIDTH 28 0
BBX 26 24 1 0
BITMAP
00040000
000E0000
001B0000
00208000
00000000
00000000
FF3F9FC0
1C0E0300
0C060200
0C0E0200
0E0F0600
0E0F0400
06130400
07138C00
07138800
03318800
03A1D800
03A1D000
01A0D000
01C0F000
01C0E000
00C06000
00806000
00804000
ENDCHAR
STARTCHAR 0175
ENCODING 373
SWIDTH 807 0
DWIDTH 21 0
BBX 19 18 1 0
BITMAP
004000
006000
00A000
011000
020800
000000
FDFBE0
306080
306080
187100
18B100
0CB100
0C9A00
0D1A00
071C00
070C00
020C00
020800
ENDCHAR
STARTCHAR 0176
ENCODING 374
SWIDTH 730 0
DWIDTH 19 0
BBX 17 24 1 0
BITMAP
004000
00C000
01A000
021000
040800
000000
FF1F80
1C0600
1C0400
0E0400
060800
070800
039000
03A000
01E000
00C000
00C000
00C000
00C000
00C000
00C000
00C000
00C000
07FC00
ENDCHAR
STARTCHAR 0177
ENCODING 375
SWIDTH 538 0
DWIDTH 14 0
BBX 13 24 0 -6
BITMAP
0100
0300
0780
0480
0840
0000
FCF8
3820
1820
1840
0C40
0C40
0C80
0680
0680
0700
0300
0300
0200
0200
2200
6200
6400
3800
ENDCHAR
STARTCHAR 0178
ENCODING 376
SWIDTH 730 0
DWIDTH 19 0
BBX 17 23 1 0
BITMAP
061800
061800
021000
000000
000000
FF1F80
1C0600
1C0400
0E0400
0E0800
071000
039000
03A000
01E000
00C000
00C000
00C000
00C000
00C000
00C000
00C000
00C000
07F800
ENDCHAR
STARTCHAR 0179
ENCODING 377
SWIDTH 653 0
DWIDTH 17 0
BBX 14 24 2 0
BITMAP
0020
0060
00C0
0080
0100
0000
7FFC
7038
6030
4070
40E0
80C0
01C0
0380
0300
0700
0E00
0C04
1C04
3804
380C
701C
E03C
FFF8
ENDCHAR
STARTCHAR 017A
ENCODING 378
SWIDTH 461 0
DWIDTH 12 0
BBX 9 18 1 0
BITMAP
0100
0300
0600
0400
0800
0000
FF80
C380
8300
8600
8E00
0C00
1800
3800
3080
6080
6080
FF80
ENDCHAR
STARTCHAR 017B
ENCODING 379
SWIDTH 653 0
DWIDTH 17 0
BBX 14 23 2 0
BITMAP
0300
0300
0100
0000
0000
7FFC
7038
6070
4070
40E0
81C0
01C0
0380
0700
0700
0E00
0C04
1C04
380C
380C
701C
E038
FFF8
ENDCHAR
STARTCHAR 017C
ENCODING 380
SWIDTH 461 0
DWIDTH 12 0
BBX 9 17 1 0
BITMAP
0800
0C00
0C00
0000
0000
FF80
C380
8300
8600
8E00
0C00
1800
3800
3080
7080
6080
FF80
ENDCHAR
STARTCHAR 017D
ENCODING 381
SWIDTH 653 0
DWIDTH 17 0
BBX 14 23 2 1
BITMAP
0820
06C0
0380
0100
0000
7FFC
7038
6030
4070
40E0
80C0
01C0
0380
0300
0700
0E00
0C04
1C04
3804
300C
701C
E038
FFF8
ENDCHAR
STARTCHAR 017E
ENCODING 382
SWIDTH 461 0
DWIDTH 12 0
BBX 9 17 1 0
BITMAP
0100
3200
1C00
0C00
0000
FF80
C380
8300
8600
8E00
0C00
1800
3800
3080
6080
6080
FF80
ENDCHAR
STARTCHAR 017F
ENCODING 383
SWIDTH 346 0
DWIDTH 9 0
BBX 9 18 1 0
BITMAP
0F00
1880
3180
3180
3000
3000
3000
3000
3000
3000
3000
3000
3000
3000
3000
3000
3000
FE00
ENDCHAR
STARTCHAR 0180
ENCODING 384
SWIDTH 500 0
DWIDTH 13 0
BBX 11 18 0 0
BITMAP
F000
3000
3000
FF00
3000
3000
3380
34C0
3860
3860
3060
3060
3060
3060
3060
3860
28C0
2780
ENDCHAR
STARTCHAR 0186
ENCODING 390
SWIDTH 653 0
DWIDTH 17 0
BBX 13 18 2 0
BITMAP
0F80
3060
2020
4010
4018
8018
8018
0018
0018
0018
0018
8018
C018
C010
E030
E020
D840
8F80
ENDCHAR
STARTCHAR 018E
ENCODING 398
SWIDTH 692 0
DWIDTH 18 0
BBX 14 18 3 0
BITMAP
FFFC
C060
8060
8060
8060
0860
0860
0C60
0FE0
0C60
0860
0860
8860
8060
8060
8060
C060
FFFC
ENDCHAR
STARTCHAR 018F
ENCODING 399
SWIDTH 653 0
DWIDTH 17 0
BBX 14 18 2 0
BITMAP
0F80
3060
2010
4018
8018
8008
000C
000C
FFFC
C00C
C00C
C00C
E01C
6018
6018
3030
1860
0F80
ENDCHAR
STARTCHAR 0190
ENCODING 400
SWIDTH 615 0
DWIDTH 16 0
BBX 13 18 2 0
BITMAP
1F10
30D0
6070
6030
6010
6010
3010
0F00
3000
7000
E000
E038
E038
E038
E018
7030
3860
0FC0
ENDCHAR
STARTCHAR 0192
ENCODING 402
SWIDTH 576 0
DWIDTH 15 0
BBX 16 24 -2 -6
BITMAP
000F
0011
0033
0020
0060
0060
03F8
00C0
00C0
00C0
0080
0180
0180
0180
0100
0300
0300
0200
0200
0600
0400
CC00
C800
7000
ENDCHAR
STARTCHAR 0195
ENCODING 405
SWIDTH 692 0
DWIDTH 18 0
BBX 16 18 1 0
BITMAP
F000
3000
3000
3000
3000
3000
33C6
34E6
3867
3863
3061
3061
3061
3061
3061
3062
3062
FC3C
ENDCHAR
STARTCHAR 01A6
ENCODING 422
SWIDTH 730 0
DWIDTH 19 0
BBX 17 22 1 -4
BITMAP
FF0000
180000
180000
1FE000
181800
180C00
180C00
180C00
180C00
181C00
183800
1FC000
182000
183000
181800
181800
181800
FF1800
001880
001C80
001D80
000F00
ENDCHAR
STARTCHAR 01B7
ENCODING 439
SWIDTH 615 0
DWIDTH 16 0
BBX 13 18 2 0
BITMAP
7FF8
7FF0
7820
6040
4080
4100
0200
07C0
0870
0030
0038
6018
F018
F018
E038
C030
6060
1F80
ENDCHAR
STARTCHAR 01BF
ENCODING 447
SWIDTH 538 0
DWIDTH 14 0
BBX 11 18 1 -6
BITMAP
31C0
F6E0
3460
3860
3860
3060
30C0
30C0
3180
3100
3200
3C00
3000
3000
3000
3000
3000
6000
ENDCHAR
STARTCHAR 01C4
ENCODING 452
SWIDTH 653 0
DWIDTH 17 0
BBX 35 23 1 1
BITMAP
0000004100
0000003600
0000001C00
0000000800
0000000000
FFF003FFE0
180C0381C0
1806030180
1803020380
1803020700
1801840600
1801800E00
1801801C00
1801801800
1801803800
1801807000
1801806020
180180E020
180301C020
1803018060
18060380E0
180C0701C0
FFF007FFC0
ENDCHAR
STARTCHAR 01C5
ENCODING 453
SWIDTH 1230 0
DWIDTH 32 0
BBX 29 18 1 0
BITMAP
FFF00000
180C0410
18060320
180301C0
180300C0
18018000
18018FF8
18018C38
18018830
18018860
180188E0
180180C0
18018180
18030380
18030308
18060608
180C0608
FFF00FF8
ENDCHAR
STARTCHAR 01C6
ENCODING 454
SWIDTH 961 0
DWIDTH 25 0
BBX 22 18 1 0
BITMAP
07C000
00C208
00C190
00C0E0
00C060
00C000
1CC7FC
62C61C
61C418
C1C430
C0C470
C0C060
C0C0C0
C0C1C0
C0C184
61C304
61C304
1EF7FC
ENDCHAR
STARTCHAR 01C7
ENCODING 455
SWIDTH 1192 0
DWIDTH 31 0
BBX 30 18 1 0
BITMAP
FF0003FC
18000060
18000060
18000060
18000060
18000060
18000060
18000060
18000060
18000060
18000060
18040060
18043860
18047860
18047060
180460C0
180C30C0
FFFC1F00
ENDCHAR
STARTCHAR 01C8
ENCODING 456
SWIDTH 961 0
DWIDTH 25 0
BBX 22 24 1 -6
BITMAP
FF000C
18000C
180000
180000
180000
180000
18007C
18000C
18000C
18000C
18000C
18040C
18040C
18040C
18040C
18040C
180C0C
FFFC0C
00000C
00000C
00018C
00018C
000118
0000F0
ENDCHAR
STARTCHAR 01C9
ENCODING 457
SWIDTH 576 0
DWIDTH 15 0
BBX 12 24 1 -6
BITMAP
F030
3030
3000
3000
3000
3000
30F0
3030
3030
3030
3030
3030
3030
3030
3030
3030
3030
FC30
0030
0030
0330
0330
0220
01C0
ENDCHAR
STARTCHAR 01CA
ENCODING 458
SWIDTH 1307 0
DWIDTH 34 0
BBX 32 18 1 0
BITMAP
FC0FC07F
1C020018
1E020018
16020018
17020018
13820018
11820018
11C20018
10E20018
10E20018
10720018
103A0018
103A0618
101E0F18
100E0E18
100E0C18
10060430
FE0203E0
ENDCHAR
STARTCHAR 01CB
ENCODING 459
SWIDTH 1076 0
DWIDTH 28 0
BBX 25 24 1 -6
BITMAP
FC0FC300
1C020300
1E020100
16020000
13020000
13820000
11820F80
11C20180
10E20180
10620180
10720180
10320180
101A0180
101E0180
100E0180
100E0180
10060180
FE020180
00000180
00000180
00003180
00003180
00002300
00001E00
ENDCHAR
STARTCHAR 01CC
ENCODING 460
SWIDTH 846 0
DWIDTH 22 0
BBX 19 24 1 -6
BITMAP
000060
000060
000000
000000
000000
000000
F3C3E0
34C060
386060
386060
306060
306060
306060
306060
306060
306060
306060
FDF060
000060
000060
000C60
000C60
0008C0
000780
ENDCHAR
STARTCHAR 01DD
ENCODING 477
SWIDTH 461 0
DWIDTH 12 0
BBX 9 12 1 0
BITMAP
3C00
4300
8100
8180
0180
0180
FF80
C180
C180
6100
6300
1C00
ENDCHAR
STARTCHAR 01E2
ENCODING 482
SWIDTH 1000 0
DWIDTH 26 0
BBX 24 22 0 0
BITMAP
0007F0
000000
000000
000000
007FFF
001C07
001C03
002C01
002C01
004C11
004C10
008C30
008FF0
010C30
030C10
020C11
07FC11
040C01
080C01
080C03
180C07
FE3FFF
ENDCHAR
STARTCHAR 01E3
ENCODING 483
SWIDTH 692 0
DWIDTH 18 0
BBX 16 16 1 0
BITMAP
07F0
0000
0000
0000
1E78
63C6
4186
7183
0183
1FFF
6180
C180
C381
C382
C4C2
787C
ENDCHAR
STARTCHAR 01EA
ENCODING 490
SWIDTH 692 0
DWIDTH 18 0
BBX 15 24 2 -6
BITMAP
07C0
1830
3018
2008
600C
600C
C006
C006
C006
C006
C006
C006
C00E
600C
600C
2018
1010
0C60
0380
0600
0C00
0C00
0E40
0780
ENDCHAR
STARTCHAR 01EB
ENCODING 491
SWIDTH 500 0
DWIDTH 13 0
BBX 10 18 1 -6
BITMAP
1E00
3100
6080
60C0
E0C0
E0C0
E0C0
E0C0
E0C0
60C0
6180
3100
0E00
0800
1000
1000
1200
1C00
ENDCHAR
STARTCHAR 01EC
ENCODING 492
SWIDTH 692 0
DWIDTH 18 0
BBX 15 28 2 -6
BITMAP
0FE0
0000
0000
0000
07C0
1830
3018
2008
600C
600C
C006
C006
C006
C006
C006
C006
C00E
600C
600C
2018
1010
0C60
0380
0600
0C00
0C00
0E00
0780
ENDCHAR
STARTCHAR 01ED
ENCODING 493
SWIDTH 500 0
DWIDTH 13 0
BBX 10 21 1 -6
BITMAP
3F80
0000
0000
1E00
3100
6080
60C0
E0C0
E0C0
E0C0
E0C0
E0C0
60C0
6180
3100
0E00
0800
1000
1000
1200
1C00
ENDCHAR
STARTCHAR 01F0
ENCODING 496
SWIDTH 346 0
DWIDTH 9 0
BBX 9 23 -1 -6
BITMAP
2080
1900
0E00
0600
0000
3E00
0600
0600
0600
0600
0600
0600
0600
0600
0600
0600
0600
0600
0600
C600
C600
8C00
7800
ENDCHAR
STARTCHAR 01F1
ENCODING 497
SWIDTH 1423 0
DWIDTH 37 0
BBX 35 18 1 0
BITMAP
FFF003FFE0
180C0381C0
1806030180
1803020380
1803020700
1801840600
1801800E00
1801801C00
1801801800
1801803800
1801807000
1801806020
180180E020
180301C020
1803018060
18060380E0
180C0701C0
FFF007FFC0
ENDCHAR
STARTCHAR 01F2
ENCODING 498
SWIDTH 1230 0
DWIDTH 32 0
BBX 29 18 1 0
BITMAP
FFF00000
180C0000
18060000
18030000
18030000
18018000
18018FF8
18018C38
18018830
18018860
180188E0
180180C0
18018180
18030380
18030308
18060608
180C0608
FFF00FF8
ENDCHAR
STARTCHAR 01F3
ENCODING 499
SWIDTH 961 0
DWIDTH 25 0
BBX 22 18 1 0
BITMAP
07C000
00C000
00C000
00C000
00C000
00C000
1CC7FC
62C61C
61C418
C1C430
C0C470
C0C060
C0C0C0
C0C1C0
C0C184
61C304
61C304
1EF7FC
ENDCHAR
STARTCHAR 01F4
ENCODING 500
SWIDTH 730 0
DWIDTH 19 0
BBX 17 24 2 1
BITMAP
006000
006000
00C000
018000
010000
000000
07C400
186400
301C00
601C00
600C00
600400
C00400
C00000
C07F80
C01C00
C01C00
C01C00
C01C00
601C00
601C00
303400
186400
078400
ENDCHAR
STARTCHAR 01F5
ENCODING 501
SWIDTH 576 0
DWIDTH 15 0
BBX 12 24 2 -6
BITMAP
0080
0180
0300
0600
0400
0000
1E70
61B0
E1F0
C0C0
C0C0
C0C0
E180
6180
1E00
E000
FF00
7FC0
4060
8020
8020
8020
C040
3F80
ENDCHAR
STARTCHAR 01F6
ENCODING 502
SWIDTH 961 0
DWIDTH 25 0
BBX 23 18 1 0
BITMAP
FF3FC0
180600
180600
180600
180600
180600
180600
1FFE1C
18061C
18060E
180606
180602
180602
180602
180602
180704
180388
FF00F0
ENDCHAR
STARTCHAR 01F7
ENCODING 503
SWIDTH 615 0
DWIDTH 16 0
BBX 13 23 2 -5
BITMAP
30E0
F3F0
36F0
3838
3038
3018
3018
3018
3018
3030
3030
3020
3060
30C0
3180
3600
3800
3000
3000
3000
3000
7000
8000
ENDCHAR
STARTCHAR 01FA
ENCODING 506
SWIDTH 769 0
DWIDTH 20 0
BBX 19 24 1 1
BITMAP
003000
004000
00E000
011000
00E000
000000
004000
004000
00E000
00E000
01E000
017000
013000
033800
023800
021800
041C00
041C00
0FFC00
080E00
080600
180600
180700
FE3FE0
ENDCHAR
STARTCHAR 01FB
ENCODING 507
SWIDTH 500 0
DWIDTH 13 0
BBX 11 22 1 1
BITMAP
0300
0600
0400
0800
1C00
2200
2200
2200
1C00
0000
3C00
4300
4300
6300
2300
0F00
7300
C300
C320
C720
C720
79C0
ENDCHAR
STARTCHAR 01FC
ENCODING 508
SWIDTH 1000 0
DWIDTH 26 0
BBX 24 24 0 0
BITMAP
000018
000030
000060
000040
000080
000000
007FFF
001C07
001C03
002C01
002C01
004C11
004C10
008C30
008FF0
010C30
030C10
020C11
07FC11
040C01
080C01
080C03
180C07
FE3FFF
ENDCHAR
STARTCHAR 01FD
ENCODING 509
SWIDTH 692 0
DWIDTH 18 0
BBX 16 18 1 0
BITMAP
0030
0070
0060
00C0
0100
0000
1E78
63C6
4186
6183
0183
1FFF
6180
C180
C381
C382
C4C2
787C
ENDCHAR
STARTCHAR 01FE
ENCODING 510
SWIDTH 692 0
DWIDTH 18 0
BBX 15 24 2 1
BITMAP
0030
0060
00C0
0080
0100
0000
07C2
1834
301C
200C
601C
602C
C046
C0C6
C186
C306
C606
C406
E80C
700C
6008
7018
5830
87C0
ENDCHAR
STARTCHAR 01FF
ENCODING 511
SWIDTH 500 0
DWIDTH 13 0
BBX 10 18 1 0
BITMAP
0180
0380
0300
0400
0000
0000
1E40
2180
6080
C1C0
C2C0
C4C0
C8C0
D0C0
D0C0
6180
6180
9E00
ENDCHAR
STARTCHAR 0200
ENCODING 512
SWIDTH 769 0
DWIDTH 20 0
BBX 18 24 1 0
BITMAP
0C8000
0CC000
066000
012000
001000
000000
004000
004000
00E000
00E000
00E000
017000
013000
033000
023800
021800
061C00
041C00
07FC00
0C0E00
080E00
180600
180700
FF3FC0
ENDCHAR
STARTCHAR 0201
ENCODING 513
SWIDTH 538 0
DWIDTH 14 0
BBX 12 18 1 0
BITMAP
C800
CC00
6600
3200
0100
0000
0F00
3180
20C0
30C0
10C0
07C0
38C0
60C0
61D0
61D0
62D0
3CE0
ENDCHAR
STARTCHAR 0202
ENCODING 514
SWIDTH 769 0
DWIDTH 20 0
BBX 18 23 2 0
BITMAP
01C000
032000
041000
040000
000000
008000
00C000
01C000
01C000
01E000
03E000
026000
027000
067000
043000
043800
0C3800
0FF800
181C00
100C00
100C00
300E00
FE3FC0
ENDCHAR
STARTCHAR 0203
ENCODING 515
SWIDTH 500 0
DWIDTH 13 0
BBX 11 17 1 0
BITMAP
1C00
3200
4100
4000
0000
1E00
6300
4180
6180
2180
0F80
7180
C180
C3A0
C3A0
C5A0
79C0
ENDCHAR
STARTCHAR 0204
ENCODING 516
SWIDTH 692 0
DWIDTH 18 0
BBX 14 24 2 0
BITMAP
3600
3300
1980
04C0
0000
0000
FFFC
300C
3004
3004
3004
3044
3040
30C0
3FC0
30C0
3040
3040
3044
3004
3004
300C
301C
FFFC
ENDCHAR
STARTCHAR 0205
ENCODING 517
SWIDTH 461 0
DWIDTH 12 0
BBX 9 18 1 0
BITMAP
9800
D800
4C00
2600
1200
0000
1E00
2300
6180
C180
C180
FF80
C000
C000
C080
6080
2100
1E00
ENDCHAR
STARTCHAR 0206
ENCODING 518
SWIDTH 692 0
DWIDTH 18 0
BBX 15 23 1 0
BITMAP
01C0
0220
0410
0808
0000
FFFE
1806
1802
1802
1802
1822
1820
1860
1FE0
1860
1820
1820
1822
1802
1802
1806
180E
FFFE
ENDCHAR
STARTCHAR 0207
ENCODING 519
SWIDTH 461 0
DWIDTH 12 0
BBX 9 17 1 0
BITMAP
1C00
1200
2100
0000
0000
1E00
2300
6180
C180
C180
FF80
C000
C000
C080
6080
2100
1E00
ENDCHAR
STARTCHAR 0208
ENCODING 520
SWIDTH 423 0
DWIDTH 11 0
BBX 9 24 1 0
BITMAP
9800
DC00
6400
2200
1000
0000
7F80
0C00
0C00
0C00
0C00
0C00
0C00
0C00
0C00
0C00
0C00
0C00
0C00
0C00
0C00
0C00
0C00
7F80
ENDCHAR
STARTCHAR 0209
ENCODING 521
SWIDTH 307 0
DWIDTH 8 0
BBX 8 18 -1 0
BITMAP
98
DC
64
22
11
00
3C
0C
0C
0C
0C
0C
0C
0C
0C
0C
0C
3F
ENDCHAR
STARTCHAR 020A
ENCODING 522
SWIDTH 384 0
DWIDTH 10 0
BBX 8 23 1 0
BITMAP
3C
66
41
81
00
FF
18
18
18
18
18
18
18
18
18
18
18
18
18
18
18
18
FF
ENDCHAR
STARTCHAR 020B
ENCODING 523
SWIDTH 307 0
DWIDTH 8 0
BBX 7 17 1 0
BITMAP
78
4C
84
02
00
F0
30
30
30
30
30
30
30
30
30
30
FC
ENDCHAR
STARTCHAR 020C
ENCODING 524
SWIDTH 692 0
DWIDTH 18 0
BBX 15 24 2 1
BITMAP
3700
3300
1980
0C80
0440
0000
07C0
1830
3018
2008
600C
600C
C006
C006
C006
C006
C006
C006
600C
600C
2008
3018
1830
07C0
ENDCHAR
STARTCHAR 020D
ENCODING 525
SWIDTH 500 0
DWIDTH 13 0
BBX 10 18 1 0
BITMAP
9800
DC00
6C00
2200
1000
0000
1E00
2180
6180
C0C0
C0C0
C0C0
C0C0
C0C0
C0C0
6180
2180
1E00
ENDCHAR
STARTCHAR 020E
ENCODING 526
SWIDTH 692 0
DWIDTH 18 0
BBX 15 24 2 0
BITMAP
0380
06C0
0820
0820
1010
0000
07C0
1830
3018
2008
600C
600C
C006
C006
C006
C006
C006
C006
600C
600C
2008
3018
1830
07C0
ENDCHAR
STARTCHAR 020F
ENCODING 527
SWIDTH 500 0
DWIDTH 13 0
BBX 10 17 1 0
BITMAP
0E00
1200
2100
0000
0000
1E00
2180
6180
C0C0
C0C0
C0C0
C0C0
C0C0
C0C0
6180
2180
1E00
ENDCHAR
STARTCHAR 0210
ENCODING 528
SWIDTH 730 0
DWIDTH 19 0
BBX 17 24 1 1
BITMAP
360000
1B0000
098000
048000
004000
000000
FFF000
181800
180C00
180C00
180C00
180C00
181800
1FE000
183000
183800
181800
181800
181800
181C80
181C80
181C80
181F00
FF0F00
ENDCHAR
STARTCHAR 0211
ENCODING 529
SWIDTH 423 0
DWIDTH 11 0
BBX 9 18 1 0
BITMAP
C800
EC00
6600
1200
0900
0000
F380
3480
3980
3880
3800
3000
3000
3000
3000
3000
3000
FC00
ENDCHAR
STARTCHAR 0212
ENCODING 530
SWIDTH 730 0
DWIDTH 19 0
BBX 17 24 1 0
BITMAP
038000
06C000
082000
082000
000000
000000
FFF000
181800
180C00
180C00
180C00
180C00
181800
1FE000
183000
183800
181800
181800
181800
181C80
181C80
181C80
181F00
FF0F00
ENDCHAR
STARTCHAR 0213
ENCODING 531
SWIDTH 423 0
DWIDTH 11 0
BBX 9 17 1 0
BITMAP
0E00
1B00
2100
2080
0000
F380
3480
3980
3880
3800
3000
3000
3000
3000
3000
3000
FC00
ENDCHAR
STARTCHAR 0214
ENCODING 532
SWIDTH 807 0
DWIDTH 21 0
BBX 19 24 1 1
BITMAP
0CC000
06C000
036000
011000
000000
000000
FF0FE0
180100
180100
180100
180100
180100
180100
180100
180100
180100
180100
180100
180100
180100
0C0100
0C0200
060400
01F800
ENDCHAR
STARTCHAR 0215
ENCODING 533
SWIDTH 538 0
DWIDTH 14 0
BBX 12 18 1 0
BITMAP
C800
CC00
6400
1200
0000
0000
E3C0
60C0
60C0
60C0
60C0
60C0
60C0
60C0
61C0
61C0
72C0
3CF0
ENDCHAR
STARTCHAR 0216
ENCODING 534
SWIDTH 807 0
DWIDTH 21 0
BBX 19 24 1 0
BITMAP
00E000
019000
020800
020800
000000
000000
FF0FE0
180100
180100
180100
180100
180100
180100
180100
180100
180100
180100
180100
180100
180100
0C0100
0C0200
060400
01F800
ENDCHAR
STARTCHAR 0217
ENCODING 535
SWIDTH 538 0
DWIDTH 14 0
BBX 13 17 0 0
BITMAP
0700
0980
1080
1000
0000
F1E0
3060
3060
3060
3060
3060
3060
3060
30E0
30E0
3960
1E78
ENDCHAR
STARTCHAR 0218
ENCODING 536
SWIDTH 615 0
DWIDTH 16 0
BBX 13 24 2 -6
BITMAP
1E20
61A0
C060
C060
C020
C020
E000
7C00
3F80
0FE0
81F0
8070
8018
C018
C018
E010
9820
87C0
0000
0600
0600
0200
0200
0400
ENDCHAR
STARTCHAR 0219
ENCODING 537
SWIDTH 423 0
DWIDTH 11 0
BBX 9 18 1 -6
BITMAP
7D00
8300
8100
C100
F000
7C00
1F00
8380
8080
C080
E080
9F00
0000
0C00
0C00
0400
0800
0800
ENDCHAR
STARTCHAR 021A
ENCODING 538
SWIDTH 692 0
DWIDTH 18 0
BBX 15 24 2 -6
BITMAP
FFFE
C30E
C306
8302
8302
8302
8302
0300
0300
0300
0300
0300
0300
0300
0300
0300
0300
1FF0
0000
0300
0300
0100
0100
0200
ENDCHAR
STARTCHAR 021B
ENCODING 539
SWIDTH 384 0
DWIDTH 10 0
BBX 8 23 1 -6
BITMAP
10
10
10
30
30
FE
30
30
30
30
30
30
30
31
31
33
1E
00
18
18
08
08
10
ENDCHAR
STARTCHAR 021C
ENCODING 540
SWIDTH 500 0
DWIDTH 13 0
BBX 10 23 1 -5
BITMAP
0F00
1F80
31C0
40C0
00C0
00C0
0180
0100
0600
0F00
1F80
63C0
00C0
00C0
00C0
00C0
0180
0180
0300
0600
0C00
3000
C000
ENDCHAR
STARTCHAR 021D
ENCODING 541
SWIDTH 384 0
DWIDTH 10 0
BBX 8 18 1 -6
BITMAP
1E
3F
47
83
03
06
04
1C
3F
47
03
03
03
06
06
1C
30
C0
ENDCHAR
STARTCHAR 0224
ENCODING 548
SWIDTH 615 0
DWIDTH 16 0
BBX 13 24 2 -6
BITMAP
7FF8
7030
4070
C060
80C0
81C0
0180
0380
0700
0600
0E00
1C00
1800
3800
7000
6000
E000
FFF0
0038
0018
0018
0018
0020
01C0
ENDCHAR
STARTCHAR 0225
ENCODING 549
SWIDTH 423 0
DWIDTH 11 0
BBX 9 17 1 -5
BITMAP
FF80
C380
8700
8600
8E00
0C00
1800
3800
3000
6000
6000
FF00
0180
0180
0180
0200
0C00
ENDCHAR
STARTCHAR 0228
ENCODING 552
SWIDTH 692 0
DWIDTH 18 0
BBX 15 24 1 -6
BITMAP
FFFE
1806
1802
1802
1802
1822
1820
1860
1FE0
1860
1820
1820
1822
1802
1802
1806
180E
FFFE
0080
00C0
0030
0030
0030
03E0
ENDCHAR
STARTCHAR 0229
ENCODING 553
SWIDTH 461 0
DWIDTH 12 0
BBX 9 18 1 -6
BITMAP
1E00
2100
6180
E180
C180
C080
FF80
C000
C000
6080
2100
1E00
0800
0C00
0200
0300
0300
1E00
ENDCHAR
STARTCHAR 0232
ENCODING 562
SWIDTH 730 0
DWIDTH 19 0
BBX 18 22 1 0
BITMAP
03F800
000000
000000
000000
FF9FC0
1C0600
0E0600
0E0400
070400
038800
038800
01D000
00D000
00E000
006000
006000
006000
006000
006000
006000
006000
07FC00
ENDCHAR
STARTCHAR 0233
ENCODING 563
SWIDTH 538 0
DWIDTH 14 0
BBX 14 22 0 -6
BITMAP
0FE0
0000
0000
0000
FE7C
1820
1820
1C20
0C40
0C40
0640
0680
0680
0380
0300
0300
0100
0200
2200
6200
6400
3800
ENDCHAR
STARTCHAR 0237
ENCODING 567
SWIDTH 346 0
DWIDTH 9 0
BBX 7 18 -1 -6
BITMAP
3E
06
06
06
06
06
06
06
06
06
06
06
06
06
C6
C6
8C
78
ENDCHAR
STARTCHAR 0243
ENCODING 579
SWIDTH 653 0
DWIDTH 17 0
BBX 15 18 1 0
BITMAP
FFF0
181C
180C
1806
1806
1806
180C
1818
1FE0
1818
180C
1806
7F06
1806
1806
180C
181C
FFF0
ENDCHAR
STARTCHAR 0254
ENCODING 596
SWIDTH 423 0
DWIDTH 11 0
BBX 9 12 1 0
BITMAP
1E00
6300
8180
8180
0180
0180
0180
6180
E180
4100
4300
3C00
ENDCHAR
STARTCHAR 0259
ENCODING 601
SWIDTH 461 0
DWIDTH 12 0
BBX 9 12 1 0
BITMAP
3C00
4300
8100
8180
0180
0180
FF80
C180
C180
6100
6300
1C00
ENDCHAR
STARTCHAR 025B
ENCODING 603
SWIDTH 423 0
DWIDTH 11 0
BBX 9 12 1 0
BITMAP
3E00
6180
C180
C180
6000
3C00
6000
C180
C180
C080
6080
3F00
ENDCHAR
STARTCHAR 0280
ENCODING 640
SWIDTH 538 0
DWIDTH 14 0
BBX 12 12 1 0
BITMAP
FF00
31C0
30C0
30C0
3180
3E00
3180
30C0
30C0
30D0
30D0
FCE0
ENDCHAR
STARTCHAR 0292
ENCODING 658
SWIDTH 461 0
DWIDTH 12 0
BBX 10 18 1 -6
BITMAP
7FC0
7F80
4100
4100
0200
0400
0800
0800
1F00
2180
00C0
00C0
00C0
E0C0
E0C0
C0C0
4180
3E00
ENDCHAR
STARTCHAR 02BB
ENCODING 699
SWIDTH 192 0
DWIDTH 5 0
BBX 3 6 1 13
BITMAP
20
40
80
C0
E0
60
ENDCHAR
STARTCHAR 02BC
ENCODING 700
SWIDTH 192 0
DWIDTH 5 0
BBX 3 6 1 12
BITMAP
C0
E0
60
20
40
80
ENDCHAR
STARTCHAR 02BD
ENCODING 701
SWIDTH 192 0
DWIDTH 5 0
BBX 3 6 1 12
BITMAP
E0
E0
C0
80
40
20
ENDCHAR
STARTCHAR 02BE
ENCODING 702
SWIDTH 192 0
DWIDTH 5 0
BBX 3 6 1 12
BITMAP
C0
60
20
20
60
80
ENDCHAR
STARTCHAR 02BF
ENCODING 703
SWIDTH 192 0
DWIDTH 5 0
BBX 3 6 1 12
BITMAP
60
C0
80
80
C0
20
ENDCHAR
STARTCHAR 02C6
ENCODING 710
SWIDTH 423 0
DWIDTH 11 0
BBX 6 4 3 13
BITMAP
20
70
58
84
ENDCHAR
STARTCHAR 02C7
ENCODING 711
SWIDTH 423 0
DWIDTH 11 0
BBX 6 4 3 13
BITMAP
04
C8
70
30
ENDCHAR
STARTCHAR 02C9
ENCODING 713
SWIDTH 423 0
DWIDTH 11 0
BBX 7 1 2 15
BITMAP
FE
ENDCHAR
STARTCHAR 02CA
ENCODING 714
SWIDTH 423 0
DWIDTH 11 0
BBX 4 4 5 13
BITMAP
30
30
60
80
ENDCHAR
STARTCHAR 02CB
ENCODING 715
SWIDTH 423 0
DWIDTH 11 0
BBX 4 4 2 13
BITMAP
C0
E0
60
10
ENDCHAR
STARTCHAR 02D8
ENCODING 728
SWIDTH 423 0
DWIDTH 11 0
BBX 7 3 2 14
BITMAP
82
44
38
ENDCHAR
STARTCHAR 02D9
ENCODING 729
SWIDTH 423 0
DWIDTH 11 0
BBX 2 2 4 15
BITMAP
C0
C0
ENDCHAR
STARTCHAR 02DA
ENCODING 730
SWIDTH 423 0
DWIDTH 11 0
BBX 5 5 3 13
BITMAP
70
88
88
88
70
ENDCHAR
STARTCHAR 02DB
ENCODING 731
SWIDTH 423 0
DWIDTH 11 0
BBX 4 6 2 -6
BITMAP
20
40
80
80
90
E0
ENDCHAR
STARTCHAR 02DC
ENCODING 732
SWIDTH 423 0
DWIDTH 11 0
BBX 7 2 2 15
BITMAP
72
BE
ENDCHAR
STARTCHAR 02DD
ENCODING 733
SWIDTH 461 0
DWIDTH 12 0
BBX 7 5 4 13
BITMAP
32
76
6C
88
10
ENDCHAR
STARTCHAR 0300
ENCODING 768
SWIDTH 0 0
DWIDTH 0 0
BBX 4 4 -11 13
BITMAP
C0
E0
60
10
ENDCHAR
STARTCHAR 0301
ENCODING 769
SWIDTH 0 0
DWIDTH 0 0
BBX 4 4 -7 13
BITMAP
30
30
60
80
ENDCHAR
STARTCHAR 0302
ENCODING 770
SWIDTH 0 0
DWIDTH 0 0
BBX 6 4 -10 13
BITMAP
30
30
68
84
ENDCHAR
STARTCHAR 0303
ENCODING 771
SWIDTH 0 0
DWIDTH 0 0
BBX 7 2 -10 15
BITMAP
72
BE
ENDCHAR
STARTCHAR 0304
ENCODING 772
SWIDTH 0 0
DWIDTH 0 0
BBX 7 1 -10 15
BITMAP
FE
ENDCHAR
STARTCHAR 0305
ENCODING 773
SWIDTH 0 0
DWIDTH 0 0
BBX 14 1 -13 21
BITMAP
FFFC
ENDCHAR
STARTCHAR 0306
ENCODING 774
SWIDTH 0 0
DWIDTH 0 0
BBX 7 3 -10 14
BITMAP
82
44
38
ENDCHAR
STARTCHAR 0307
ENCODING 775
SWIDTH 0 0
DWIDTH 0 0
BBX 2 2 -8 15
BITMAP
C0
C0
ENDCHAR
STARTCHAR 0308
ENCODING 776
SWIDTH 0 0
DWIDTH 0 0
BBX 7 2 -10 15
BITMAP
C6
C6
ENDCHAR
STARTCHAR 030A
ENCODING 778
SWIDTH 0 0
DWIDTH 0 0
BBX 5 5 -9 13
BITMAP
70
88
88
88
70
ENDCHAR
STARTCHAR 030B
ENCODING 779
SWIDTH 0 0
DWIDTH 0 0
BBX 7 5 -9 13
BITMAP
32
36
6C
88
10
ENDCHAR
STARTCHAR 030C
ENCODING 780
SWIDTH 0 0
DWIDTH 0 0
BBX 6 4 -10 13
BITMAP
84
4C
38
30
ENDCHAR
STARTCHAR 030F
ENCODING 783
SWIDTH 0 0
DWIDTH 0 0
BBX 7 4 -12 13
BITMAP
C8
CC
66
12
ENDCHAR
STARTCHAR 0311
ENCODING 785
SWIDTH 0 0
DWIDTH 0 0
BBX 7 4 -10 13
BITMAP
38
4C
84
02
ENDCHAR
STARTCHAR 0312
ENCODING 786
SWIDTH 0 0
DWIDTH 0 0
BBX 3 6 -8 13
BITMAP
20
40
80
C0
E0
60
ENDCHAR
STARTCHAR 0313
ENCODING 787
SWIDTH 0 0
DWIDTH 0 0
BBX 3 6 -8 12
BITMAP
C0
E0
60
20
40
80
ENDCHAR
STARTCHAR 0314
ENCODING 788
SWIDTH 0 0
DWIDTH 0 0
BBX 3 6 -8 12
BITMAP
E0
E0
C0
80
40
20
ENDCHAR
STARTCHAR 0316
ENCODING 790
SWIDTH 0 0
DWIDTH 0 0
BBX 4 4 -11 -7
BITMAP
C0
E0
60
10
ENDCHAR
STARTCHAR 0317
ENCODING 791
SWIDTH 0 0
DWIDTH 0 0
BBX 4 4 -7 -7
BITMAP
30
30
60
80
ENDCHAR
STARTCHAR 0323
ENCODING 803
SWIDTH 0 0
DWIDTH 0 0
BBX 2 2 -8 -4
BITMAP
C0
C0
ENDCHAR
STARTCHAR 0324
ENCODING 804
SWIDTH 0 0
DWIDTH 0 0
BBX 7 2 -10 -4
BITMAP
C6
C6
ENDCHAR
STARTCHAR 0325
ENCODING 805
SWIDTH 0 0
DWIDTH 0 0
BBX 5 5 -9 -6
BITMAP
70
88
88
88
70
ENDCHAR
STARTCHAR 0326
ENCODING 806
SWIDTH 0 0
DWIDTH 0 0
BBX 2 5 -8 -6
BITMAP
C0
C0
40
40
80
ENDCHAR
STARTCHAR 0327
ENCODING 807
SWIDTH 0 0
DWIDTH 0 0
BBX 5 5 -9 -5
BITMAP
40
30
18
18
F0
ENDCHAR
STARTCHAR 0328
ENCODING 808
SWIDTH 0 0
DWIDTH 0 0
BBX 4 6 -10 -6
BITMAP
20
40
80
80
90
E0
ENDCHAR
STARTCHAR 032C
ENCODING 812
SWIDTH 0 0
DWIDTH 0 0
BBX 6 4 -10 -6
BITMAP
84
4C
38
30
ENDCHAR
STARTCHAR 032D
ENCODING 813
SWIDTH 0 0
DWIDTH 0 0
BBX 6 4 -10 -6
BITMAP
30
30
68
84
ENDCHAR
STARTCHAR 032E
ENCODING 814
SWIDTH 0 0
DWIDTH 0 0
BBX 7 4 -10 -6
BITMAP
82
82
44
38
ENDCHAR
STARTCHAR 032F
ENCODING 815
SWIDTH 0 0
DWIDTH 0 0
BBX 7 4 -10 -6
BITMAP
38
4C
84
02
ENDCHAR
STARTCHAR 0330
ENCODING 816
SWIDTH 0 0
DWIDTH 0 0
BBX 7 2 -10 -5
BITMAP
72
BE
ENDCHAR
STARTCHAR 0331
ENCODING 817
SWIDTH 0 0
DWIDTH 0 0
BBX 7 1 -10 -4
BITMAP
FE
ENDCHAR
STARTCHAR 0332
ENCODING 818
SWIDTH 0 0
DWIDTH 0 0
BBX 14 1 -13 -4
BITMAP
FFFC
ENDCHAR
STARTCHAR 0333
ENCODING 819
SWIDTH 0 0
DWIDTH 0 0
BBX 14 4 -13 -7
BITMAP
FFFC
0000
0000
FFFC
ENDCHAR
STARTCHAR 033E
ENCODING 830
SWIDTH 0 0
DWIDTH 0 0
BBX 2 6 -8 12
BITMAP
80
40
C0
80
80
C0
ENDCHAR
STARTCHAR 0342
ENCODING 834
SWIDTH 0 0
DWIDTH 0 0
BBX 9 3 -11 15
BITMAP
7180
CD80
C700
ENDCHAR
STARTCHAR 0343
ENCODING 835
SWIDTH 0 0
DWIDTH 0 0
BBX 3 5 -8 12
BITMAP
C0
E0
20
20
40
ENDCHAR
STARTCHAR 0344
ENCODING 836
SWIDTH 0 0
DWIDTH 0 0
BBX 8 6 -11 14
BITMAP
06
0C
0C
0A
D3
C3
ENDCHAR
STARTCHAR 0345
ENCODING 837
SWIDTH 0 0
DWIDTH 0 0
BBX 2 5 -8 -7
BITMAP
40
C0
C0
C0
C0
ENDCHAR
STARTCHAR 0351
ENCODING 849
SWIDTH 0 0
DWIDTH 0 0
BBX 3 6 -8 12
BITMAP
60
C0
80
80
C0
20
ENDCHAR
STARTCHAR 0357
ENCODING 855
SWIDTH 0 0
DWIDTH 0 0
BBX 3 6 -8 12
BITMAP
C0
60
20
20
60
80
ENDCHAR
STARTCHAR 0359
ENCODING 857
SWIDTH 0 0
DWIDTH 0 0
BBX 5 6 -9 -7
BITMAP
20
A8
F8
70
A8
20
ENDCHAR
STARTCHAR 035C
ENCODING 860
SWIDTH 0 0
DWIDTH 0 0
BBX 16 4 -8 -6
BITMAP
8001
4002
3E7C
07E0
ENDCHAR
STARTCHAR 035D
ENCODING 861
SWIDTH 0 0
DWIDTH 0 0
BBX 16 3 -8 17
BITMAP
C003
300C
0FF0
ENDCHAR
STARTCHAR 0361
ENCODING 865
SWIDTH 0 0
DWIDTH 0 0
BBX 14 3 -7 18
BITMAP
0FC0
7870
800C
ENDCHAR
STARTCHAR 0363
ENCODING 867
SWIDTH 0 0
DWIDTH 0 0
BBX 7 7 -10 13
BITMAP
70
88
C8
38
C8
DA
6C
ENDCHAR
STARTCHAR 0364
ENCODING 868
SWIDTH 0 0
DWIDTH 0 0
BBX 6 7 -10 14
BITMAP
30
4C
C4
FC
C0
44
38
ENDCHAR
STARTCHAR 0365
ENCODING 869
SWIDTH 0 0
DWIDTH 0 0
BBX 4 10 -9 13
BITMAP
60
60
00
E0
20
20
20
20
20
F0
ENDCHAR
STARTCHAR 0366
ENCODING 870
SWIDTH 0 0
DWIDTH 0 0
BBX 7 8 -10 13
BITMAP
38
44
C6
C6
C6
C6
44
38
ENDCHAR
STARTCHAR 0367
ENCODING 871
SWIDTH 0 0
DWIDTH 0 0
BBX 7 7 -11 13
BITMAP
CC
44
44
44
44
4C
36
ENDCHAR
STARTCHAR 0368
ENCODING 872
SWIDTH 0 0
DWIDTH 0 0
BBX 5 8 -10 13
BITMAP
30
48
C8
C0
C0
C0
48
30
ENDCHAR
STARTCHAR 0369
ENCODING 873
SWIDTH 0 0
DWIDTH 0 0
BBX 7 11 -10 13
BITMAP
1C
04
04
34
4C
C4
C4
C4
C4
4C
36
ENDCHAR
STARTCHAR 036A
ENCODING 874
SWIDTH 0 0
DWIDTH 0 0
BBX 7 11 -10 13
BITMAP
C0
40
40
40
58
64
44
44
44
44
EE
ENDCHAR
STARTCHAR 036B
ENCODING 875
SWIDTH 0 0
DWIDTH 0 0
BBX 11 7 -12 13
BITMAP
D980
6640
4440
4440
4440
4440
EEE0
ENDCHAR
STARTCHAR 036C
ENCODING 876
SWIDTH 0 0
DWIDTH 0 0
BBX 5 7 -9 13
BITMAP
D8
68
40
40
40
40
E0
ENDCHAR
STARTCHAR 036D
ENCODING 877
SWIDTH 0 0
DWIDTH 0 0
BBX 5 9 -9 13
BITMAP
40
40
F0
40
40
40
48
48
30
ENDCHAR
STARTCHAR 036E
ENCODING 878
SWIDTH 0 0
DWIDTH 0 0
BBX 8 7 -11 14
BITMAP
F7
64
24
34
18
18
08
ENDCHAR
STARTCHAR 036F
ENCODING 879
SWIDTH 0 0
DWIDTH 0 0
BBX 7 7 -10 13
BITMAP
EC
68
30
30
38
48
DE
ENDCHAR
STARTCHAR 0374
ENCODING 884
SWIDTH 230 0
DWIDTH 6 0
BBX 4 5 1 12
BITMAP
30
30
60
40
80
ENDCHAR
STARTCHAR 0375
ENCODING 885
SWIDTH 230 0
DWIDTH 6 0
BBX 4 5 1 -6
BITMAP
10
20
60
C0
C0
ENDCHAR
STARTCHAR 037A
ENCODING 890
SWIDTH 461 0
DWIDTH 12 0
BBX 2 5 5 -7
BITMAP
80
C0
C0
C0
C0
ENDCHAR
STARTCHAR 037E
ENCODING 894
SWIDTH 307 0
DWIDTH 8 0
BBX 4 16 2 -4
BITMAP
F0
F0
F0
00
00
00
00
00
60
F0
F0
10
10
20
20
40
ENDCHAR
STARTCHAR 0384
ENCODING 900
SWIDTH 230 0
DWIDTH 6 0
BBX 3 5 3 12
BITMAP
60
60
40
C0
80
ENDCHAR
STARTCHAR 0385
ENCODING 901
SWIDTH 461 0
DWIDTH 12 0
BBX 8 7 2 12
BITMAP
04
04
0C
08
EF
F7
42
ENDCHAR
STARTCHAR 0386
ENCODING 902
SWIDTH 807 0
DWIDTH 21 0
BBX 18 18 2 0
BITMAP
304000
30C000
60C000
40E000
416000
016000
037000
023000
023800
063800
041800
041C00
0FFC00
080C00
080E00
180E00
180600
FE3FC0
ENDCHAR
STARTCHAR 0387
ENCODING 903
SWIDTH 307 0
DWIDTH 8 0
BBX 4 4 2 9
BITMAP
60
F0
F0
60
ENDCHAR
STARTCHAR 0388
ENCODING 904
SWIDTH 923 0
DWIDTH 24 0
BBX 20 18 2 0
BITMAP
23FFF0
60C070
60C030
40C010
80C010
00C110
00C100
00C300
00FF00
00C300
00C300
00C100
00C110
00C010
00C010
00C030
00C070
03FFF0
ENDCHAR
STARTCHAR 0389
ENCODING 905
SWIDTH 1000 0
DWIDTH 26 0
BBX 23 18 2 0
BITMAP
23F9FE
60C030
60C030
40C030
80C030
00C030
00C030
00C030
00FFF0
00C030
00C030
00C030
00C030
00C030
00C030
00C030
00C030
03F9FE
ENDCHAR
STARTCHAR 038A
ENCODING 906
SWIDTH 653 0
DWIDTH 17 0
BBX 13 18 3 0
BITMAP
67F8
60C0
C0C0
80C0
80C0
00C0
00C0
00C0
00C0
00C0
00C0
00C0
00C0
00C0
00C0
00C0
00C0
07F8
ENDCHAR
STARTCHAR 038C
ENCODING 908
SWIDTH 846 0
DWIDTH 22 0
BBX 18 18 3 0
BITMAP
60F800
638E00
460700
860300
8C0180
0C0180
1C01C0
1C01C0
1C01C0
1C01C0
1C01C0
1C01C0
0C0180
0C0180
060300
060300
038E00
00F800
ENDCHAR
STARTCHAR 038E
ENCODING 910
SWIDTH 846 0
DWIDTH 22 0
BBX 19 18 2 0
BITMAP
2601C0
618260
60C4E0
4048E0
806800
802800
003000
003000
003000
003000
003000
003000
003000
003000
003000
003000
003000
01FF00
ENDCHAR
STARTCHAR 038F
ENCODING 911
SWIDTH 884 0
DWIDTH 23 0
BBX 19 18 2 0
BITMAP
207C00
61C700
630180
4701C0
8E00E0
8E00E0
0E00E0
0E00E0
0E00E0
0600C0
0701C0
030180
018700
086820
082820
042840
07EFC0
07EFC0
ENDCHAR
STARTCHAR 0390
ENCODING 912
SWIDTH 307 0
DWIDTH 8 0
BBX 8 19 0 0
BITMAP
04
0C
08
EF
F7
42
00
30
38
30
30
30
30
20
20
20
24
3C
1C
ENDCHAR
STARTCHAR 0391
ENCODING 913
SWIDTH 769 0
DWIDTH 20 0
BBX 18 18 2 0
BITMAP
008000
00C000
01C000
01C000
01E000
03E000
026000
027000
067000
043000
0C3800
0C3800
0FFC00
181C00
100C00
300E00
700E00
FE3FC0
ENDCHAR
STARTCHAR 0392
ENCODING 914
SWIDTH 692 0
DWIDTH 18 0
BBX 16 18 1 0
BITMAP
FFF0
181C
180C
1806
1806
1806
180C
1818
1FE0
1818
180E
1806
1807
1807
1806
180E
181C
FFF0
ENDCHAR
STARTCHAR 0393
ENCODING 915
SWIDTH 653 0
DWIDTH 17 0
BBX 14 18 1 0
BITMAP
FFFC
181C
180C
1804
1804
1804
1804
1800
1800
1800
1800
1800
1800
1800
1800
1800
1800
FF00
ENDCHAR
STARTCHAR 0394
ENCODING 916
SWIDTH 653 0
DWIDTH 17 0
BBX 14 18 1 0
BITMAP
0100
0300
0300
0780
0580
05C0
09C0
08C0
10E0
1060
1070
2070
2030
4038
4018
401C
FFFC
FFFC
ENDCHAR
STARTCHAR 0395
ENCODING 917
SWIDTH 692 0
DWIDTH 18 0
BBX 15 18 1 0
BITMAP
FFFE
180E
1806
1802
1802
1822
1820
1860
1FE0
1860
1860
1820
1822
1802
1802
1806
180E
FFFE
ENDCHAR
STARTCHAR 0396
ENCODING 918
SWIDTH 653 0
DWIDTH 17 0
BBX 14 18 2 0
BITMAP
7FFC
7038
6038
4070
40E0
80E0
81C0
0380
0300
0700
0E00
0C04
1C04
380C
300C
701C
E038
FFF8
ENDCHAR
STARTCHAR 0397
ENCODING 919
SWIDTH 769 0
DWIDTH 20 0
BBX 18 18 1 0
BITMAP
FF3FC0
180600
180600
180600
180600
180600
180600
180600
1FFE00
180600
180600
180600
180600
180600
180600
180600
180600
FF3FC0
ENDCHAR
STARTCHAR 0398
ENCODING 920
SWIDTH 692 0
DWIDTH 18 0
BBX 15 18 2 0
BITMAP
07C0
1C70
3038
3018
600C
682C
E82E
EFEE
EFEE
E82E
E82E
E00E
600C
600C
3018
3018
1C70
07C0
ENDCHAR
STARTCHAR 0399
ENCODING 921
SWIDTH 384 0
DWIDTH 10 0
BBX 8 18 1 0
BITMAP
FF
18
18
18
18
18
18
18
18
18
18
18
18
18
18
18
18
FF
ENDCHAR
STARTCHAR 039A
ENCODING 922
SWIDTH 730 0
DWIDTH 19 0
BBX 17 18 1 0
BITMAP
FF3F80
180E00
180C00
181800
183000
184000
188000
19C000
1BC000
1CE000
186000
187000
183800
183800
181C00
180C00
180E00
FF7F80
ENDCHAR
STARTCHAR 039B
ENCODING 923
SWIDTH 769 0
DWIDTH 20 0
BBX 18 18 2 0
BITMAP
008000
00C000
01C000
01C000
01E000
02E000
026000
027000
043000
043000
0C3800
081800
081C00
181C00
100C00
300E00
700E00
FE3FC0
ENDCHAR
STARTCHAR 039C
ENCODING 924
SWIDTH 846 0
DWIDTH 22 0
BBX 20 18 1 0
BITMAP
FC03F0
1C0380
1E0380
160580
160580
170580
130980
130980
138980
138980
119180
11D180
11D180
10E180
10E180
10E180
384180
FE4FF0
ENDCHAR
STARTCHAR 039D
ENCODING 925
SWIDTH 730 0
DWIDTH 19 0
BBX 18 18 1 0
BITMAP
FC1FC0
1C0700
1E0200
1E0200
170200
138200
138200
11C200
10C200
10E200
107200
103200
103A00
101E00
100E00
100E00
380600
FC0600
ENDCHAR
STARTCHAR 039E
ENCODING 926
SWIDTH 653 0
DWIDTH 17 0
BBX 14 18 2 0
BITMAP
FFFC
FFFC
8004
8004
8004
1020
1020
1FE0
1FE0
1020
1020
0000
8004
8004
8004
8004
FFFC
FFFC
ENDCHAR
STARTCHAR 039F
ENCODING 927
SWIDTH 692 0
DWIDTH 18 0
BBX 15 18 2 0
BITMAP
07C0
1C70
3038
3018
600C
600C
E00E
E00E
E00E
E00E
E00E
E00E
600C
600C
3018
3018
1C70
07C0
ENDCHAR
STARTCHAR 03A0
ENCODING 928
SWIDTH 769 0
DWIDTH 20 0
BBX 18 18 1 0
BITMAP
FFFFC0
180600
180600
180600
180600
180600
180600
180600
180600
180600
180600
180600
180600
180600
180600
180600
180600
FF3FC0
ENDCHAR
STARTCHAR 03A1
ENCODING 929
SWIDTH 653 0
DWIDTH 17 0
BBX 15 18 1 0
BITMAP
FFF0
183C
180C
180E
180E
180E
180E
181C
1FF0
1800
1800
1800
1800
1800
1800
1800
1800
FF00
ENDCHAR
STARTCHAR 03A3
ENCODING 931
SWIDTH 653 0
DWIDTH 17 0
BBX 14 18 2 0
BITMAP
FFF8
6078
7018
3818
1808
1C08
0E00
0600
0700
0200
0200
040C
080C
100C
200C
401C
7FFC
FFFC
ENDCHAR
STARTCHAR 03A4
ENCODING 932
SWIDTH 692 0
DWIDTH 18 0
BBX 15 18 2 0
BITMAP
FFFE
E30E
8306
8302
0302
0302
0302
0300
0300
0300
0300
0300
0300
0300
0300
0300
0300
1FF0
ENDCHAR
STARTCHAR 03A5
ENCODING 933
SWIDTH 615 0
DWIDTH 16 0
BBX 14 18 1 0
BITMAP
C038
204C
189C
091C
0D00
0500
0600
0600
0600
0600
0600
0600
0600
0600
0600
0600
0600
3FE0
ENDCHAR
STARTCHAR 03A6
ENCODING 934
SWIDTH 846 0
DWIDTH 22 0
BBX 19 18 2 0
BITMAP
07FC00
006000
006000
0FFE00
386380
7061C0
6060C0
E060E0
E060E0
E060E0
E060E0
E060E0
7061C0
386180
1FFF00
006000
006000
07FC00
ENDCHAR
STARTCHAR 03A7
ENCODING 935
SWIDTH 769 0
DWIDTH 20 0
BBX 18 18 1 0
BITMAP
7FBF80
1E0E00
0E0C00
070800
071000
039000
01A000
01C000
00C000
00E000
017000
037000
023800
041800
081C00
180C00
380E00
FE3FC0
ENDCHAR
STARTCHAR 03A8
ENCODING 936
SWIDTH 846 0
DWIDTH 22 0
BBX 20 18 1 0
BITMAP
E3FCF0
7061F0
306130
386130
386100
386100
386100
386100
386100
386300
186300
1C6200
0E6C00
03F800
006000
006000
006000
03FC00
ENDCHAR
STARTCHAR 03A9
ENCODING 937
SWIDTH 730 0
DWIDTH 19 0
BBX 15 18 2 0
BITMAP
07C0
1C70
3018
701C
E00E
E00E
E00E
E00E
E00E
600C
701C
3018
1870
8682
8282
4284
7EFC
7EFC
ENDCHAR
STARTCHAR 03AA
ENCODING 938
SWIDTH 384 0
DWIDTH 10 0
BBX 8 23 1 0
BITMAP
C7
E7
42
00
00
FF
18
18
18
18
18
18
18
18
18
18
18
18
18
18
18
18
FF
ENDCHAR
STARTCHAR 03AB
ENCODING 939
SWIDTH 653 0
DWIDTH 17 0
BBX 15 23 1 0
BITMAP
18E0
1CE0
0840
0000
0000
C01C
3066
184E
0C8E
0680
0700
0300
0300
0300
0300
0300
0300
0300
0300
0300
0300
0300
3FE0
ENDCHAR
STARTCHAR 03AC
ENCODING 940
SWIDTH 576 0
DWIDTH 15 0
BBX 12 18 2 0
BITMAP
0180
0180
0300
0200
0400
0000
1C60
3E60
72C0
E2C0
C180
C180
8100
8300
8300
8780
4EF0
3860
ENDCHAR
STARTCHAR 03AD
ENCODING 941
SWIDTH 461 0
DWIDTH 12 0
BBX 9 18 2 0
BITMAP
0600
0600
0400
0800
0800
0000
3E00
E300
8000
8000
5E00
7E00
8000
8000
8080
C180
7F00
3E00
ENDCHAR
STARTCHAR 03AE
ENCODING 942
SWIDTH 576 0
DWIDTH 15 0
BBX 12 25 1 -7
BITMAP
0180
0180
0100
0200
0200
0000
E1C0
A320
1610
1610
0C10
0C10
0C10
1810
1810
1810
1810
1830
0030
0030
0070
0070
0070
0070
0070
ENDCHAR
STARTCHAR 03AF
ENCODING 943
SWIDTH 307 0
DWIDTH 8 0
BBX 4 18 2 0
BITMAP
10
30
20
20
40
00
C0
C0
C0
C0
C0
80
80
80
80
90
F0
70
ENDCHAR
STARTCHAR 03B0
ENCODING 944
SWIDTH 461 0
DWIDTH 12 0
BBX 10 19 1 0
BITMAP
0600
0C00
0C00
DF00
D700
0200
0000
C100
C100
C080
4080
8040
8040
8040
80C0
80C0
4180
6300
1E00
ENDCHAR
STARTCHAR 03B1
ENCODING 945
SWIDTH 576 0
DWIDTH 15 0
BBX 12 12 2 0
BITMAP
1C60
3E60
72C0
E2C0
C180
C180
8100
8300
8300
8680
4C70
3860
ENDCHAR
STARTCHAR 03B2
ENCODING 946
SWIDTH 500 0
DWIDTH 13 0
BBX 10 26 2 -7
BITMAP
1E00
7980
6080
E040
C040
C040
80C0
9D80
9F80
8F00
8080
8080
8040
8040
8040
C0C0
C0C0
B180
8F00
8000
8000
C000
C000
C000
C000
C000
ENDCHAR
STARTCHAR 03B3
ENCODING 947
SWIDTH 538 0
DWIDTH 14 0
BBX 12 19 1 -7
BITMAP
7030
F870
9860
08C0
0480
0480
0500
0500
0200
0200
0200
0200
0600
0600
0700
0700
0700
0700
0600
ENDCHAR
STARTCHAR 03B4
ENCODING 948
SWIDTH 423 0
DWIDTH 11 0
BBX 9 19 1 0
BITMAP
F000
9800
8E00
C700
6300
2000
1000
0800
3C00
7200
E100
C080
C080
8180
8180
8180
8380
4700
3E00
ENDCHAR
STARTCHAR 03B5
ENCODING 949
SWIDTH 461 0
DWIDTH 12 0
BBX 9 12 2 0
BITMAP
3E00
E300
8000
8000
5E00
7E00
8000
8000
8080
C180
7F00
3E00
ENDCHAR
STARTCHAR 03B6
ENCODING 950
SWIDTH 538 0
DWIDTH 14 0
BBX 11 22 2 -4
BITMAP
3380
6780
5F00
3800
2000
6000
4000
C000
C000
8000
8000
8000
8000
8000
C000
4000
7FC0
1FE0
0020
0060
03C0
0380
ENDCHAR
STARTCHAR 03B7
ENCODING 951
SWIDTH 576 0
DWIDTH 15 0
BBX 12 19 1 -7
BITMAP
E1C0
A320
1610
1610
0C10
0C10
0C10
1810
1810
1810
1810
1830
0030
0030
0070
0070
0070
0070
0070
ENDCHAR
STARTCHAR 03B8
ENCODING 952
SWIDTH 538 0
DWIDTH 14 0
BBX 12 19 1 0
BITMAP
1E00
3300
2080
2080
20C0
3040
1040
0C40
03E0
6050
D040
9040
1040
1040
1040
1040
10C0
1980
0F00
ENDCHAR
STARTCHAR 03B9
ENCODING 953
SWIDTH 269 0
DWIDTH 7 0
BBX 4 12 2 0
BITMAP
C0
C0
C0
C0
C0
80
80
80
80
90
F0
60
ENDCHAR
STARTCHAR 03BA
ENCODING 954
SWIDTH 538 0
DWIDTH 14 0
BBX 12 12 1 0
BITMAP
7060
98E0
18C0
09C0
0B80
0E80
1E80
1C80
3880
70C0
70F0
6060
ENDCHAR
STARTCHAR 03BB
ENCODING 955
SWIDTH 500 0
DWIDTH 13 0
BBX 11 18 1 0
BITMAP
E000
F000
1800
0800
0400
0400
0400
0400
0E00
0E00
1A00
1A00
3100
3100
6180
60C0
C0E0
C060
ENDCHAR
STARTCHAR 03BC
ENCODING 956
SWIDTH 653 0
DWIDTH 17 0
BBX 14 19 2 -7
BITMAP
4080
E1C0
E1C0
E1C0
E1C0
C1C0
C0C0
4080
4080
4184
A3CC
9E3C
8000
C000
C000
C000
E000
E000
6000
ENDCHAR
STARTCHAR 03BD
ENCODING 957
SWIDTH 461 0
DWIDTH 12 0
BBX 9 12 1 0
BITMAP
C100
E080
7080
3080
3080
1980
1980
1B00
0B00
0E00
0C00
0800
ENDCHAR
STARTCHAR 03BE
ENCODING 958
SWIDTH 461 0
DWIDTH 12 0
BBX 9 22 2 -4
BITMAP
CF00
BF00
7C00
C000
8000
8000
8000
8000
5F00
3E00
4000
8000
8000
8000
8000
C000
7F00
3F80
0080
0180
0F80
0E00
ENDCHAR
STARTCHAR 03BF
ENCODING 959
SWIDTH 423 0
DWIDTH 11 0
BBX 9 12 1 0
BITMAP
1E00
7100
6100
E080
C080
C180
8180
8180
8380
8700
4E00
3C00
ENDCHAR
STARTCHAR 03C0
ENCODING 960
SWIDTH 615 0
DWIDTH 16 0
BBX 15 12 0 0
BITMAP
3FFE
7FFE
8440
8440
0440
0440
0440
0C40
0C44
1C64
3C7C
1838
ENDCHAR
STARTCHAR 03C1
ENCODING 961
SWIDTH 461 0
DWIDTH 12 0
BBX 10 19 1 -7
BITMAP
0F00
3880
3080
7040
6040
60C0
40C0
40C0
41C0
4380
6700
5E00
4000
4000
C000
C000
C000
C000
C000
ENDCHAR
STARTCHAR 03C2
ENCODING 962
SWIDTH 423 0
DWIDTH 11 0
BBX 9 15 1 -3
BITMAP
0780
1F80
3000
4000
8000
8000
8000
8000
C000
7C00
3F00
0380
0080
1C80
1F00
ENDCHAR
STARTCHAR 03C3
ENCODING 963
SWIDTH 500 0
DWIDTH 13 0
BBX 11 12 1 0
BITMAP
1FE0
7FE0
6100
C080
8080
8040
8040
8040
C0C0
61C0
7F80
1F00
ENDCHAR
STARTCHAR 03C4
ENCODING 964
SWIDTH 461 0
DWIDTH 12 0
BBX 11 12 0 0
BITMAP
3FE0
7FE0
8400
8400
0400
0400
0400
0400
0440
0640
07C0
0380
ENDCHAR
STARTCHAR 03C5
ENCODING 965
SWIDTH 461 0
DWIDTH 12 0
BBX 9 12 2 0
BITMAP
C200
C100
C100
4080
8080
8080
8080
8180
8180
8100
4700
3C00
ENDCHAR
STARTCHAR 03C6
ENCODING 966
SWIDTH 615 0
DWIDTH 16 0
BBX 14 19 1 -7
BITMAP
30F0
7198
E30C
C204
8204
8204
840C
840C
C418
6470
3FE0
1FC0
0400
0400
0600
0600
0600
0600
0600
ENDCHAR
STARTCHAR 03C7
ENCODING 967
SWIDTH 576 0
DWIDTH 15 0
BBX 13 19 1 -7
BITMAP
E030
F070
4860
08E0
04C0
05C0
0580
0380
0300
0700
0600
0E00
0D00
1D00
1900
3100
3080
6078
6038
ENDCHAR
STARTCHAR 03C8
ENCODING 968
SWIDTH 538 0
DWIDTH 14 0
BBX 12 25 1 -7
BITMAP
0600
0600
0600
0600
0600
0600
6220
E220
C210
C210
8210
8210
8230
8230
4260
62E0
3FC0
0F80
0200
0200
0600
0600
0600
0600
0600
ENDCHAR
STARTCHAR 03C9
ENCODING 969
SWIDTH 653 0
DWIDTH 17 0
BBX 15 12 1 0
BITMAP
3010
7008
600C
E384
C386
C386
C386
C186
C106
610C
229C
1C78
ENDCHAR
STARTCHAR 03CA
ENCODING 970
SWIDTH 307 0
DWIDTH 8 0
BBX 8 17 0 0
BITMAP
E6
E7
42
00
00
38
38
38
30
30
30
20
20
20
24
3C
1C
ENDCHAR
STARTCHAR 03CB
ENCODING 971
SWIDTH 461 0
DWIDTH 12 0
BBX 9 17 2 0
BITMAP
CE00
EE00
C400
0000
0000
C000
C200
C100
4100
8080
8080
8080
8180
8180
8100
4700
3C00
ENDCHAR
STARTCHAR 03CC
ENCODING 972
SWIDTH 423 0
DWIDTH 11 0
BBX 9 18 1 0
BITMAP
0600
0600
0C00
0800
0800
0000
1E00
7100
6100
E080
C080
C180
8180
8180
8380
8700
4E00
3C00
ENDCHAR
STARTCHAR 03CD
ENCODING 973
SWIDTH 461 0
DWIDTH 12 0
BBX 9 18 2 0
BITMAP
0C00
0C00
0800
1000
1000
0000
C200
C100
C100
4080
8080
8080
8080
8180
8180
C300
7F00
3C00
ENDCHAR
STARTCHAR 03CE
ENCODING 974
SWIDTH 653 0
DWIDTH 17 0
BBX 15 18 1 0
BITMAP
00C0
00C0
0180
0100
0100
0000
3010
7008
600C
E384
C386
C386
C386
C186
C106
610C
229C
1C78
ENDCHAR
STARTCHAR 03CF
ENCODING 975
SWIDTH 769 0
DWIDTH 20 0
BBX 17 25 1 -7
BITMAP
FF3F80
180E00
180C00
181800
183000
184000
188000
19C000
1AC000
1CE000
187000
183000
183800
181C00
180C00
180E00
180700
FF0300
000700
001E00
003C00
00F800
007000
002000
001000
ENDCHAR
STARTCHAR 03D0
ENCODING 976
SWIDTH 500 0
DWIDTH 13 0
BBX 10 18 2 0
BITMAP
0780
0CC0
10C0
3F00
4000
4000
8000
8000
BC00
F300
E100
C080
C080
8180
8180
8380
4700
3E00
ENDCHAR
STARTCHAR 03D1
ENCODING 977
SWIDTH 538 0
DWIDTH 14 0
BBX 12 19 1 0
BITMAP
1E00
3300
2080
2080
20C0
3040
1040
0C40
03E0
6050
D040
9040
1040
1040
1040
1040
10C0
1980
0F00
ENDCHAR
STARTCHAR 03D2
ENCODING 978
SWIDTH 615 0
DWIDTH 16 0
BBX 14 18 1 0
BITMAP
C038
204C
189C
091C
0D00
0500
0600
0600
0600
0600
0600
0600
0600
0600
0600
0600
0600
3FE0
ENDCHAR
STARTCHAR 03D3
ENCODING 979
SWIDTH 846 0
DWIDTH 22 0
BBX 19 18 2 0
BITMAP
2601C0
618260
60C4E0
4048E0
806800
802800
003000
003000
003000
003000
003000
003000
003000
003000
003000
003000
003000
01FF00
ENDCHAR
STARTCHAR 03D4
ENCODING 980
SWIDTH 653 0
DWIDTH 17 0
BBX 15 23 1 0
BITMAP
18E0
1CE0
0840
0000
0000
C01C
3066
184E
0C8E
0680
0700
0300
0300
0300
0300
0300
0300
0300
0300
0300
0300
0300
3FE0
ENDCHAR
STARTCHAR 03D5
ENCODING 981
SWIDTH 576 0
DWIDTH 15 0
BBX 13 25 1 -7
BITMAP
0600
0600
0600
0600
0200
0200
1FC0
3FE0
7A30
E218
C208
8208
8208
8218
C238
42F0
3FE0
1FC0
0200
0200
0200
0600
0600
0600
0600
ENDCHAR
STARTCHAR 03D6
ENCODING 982
SWIDTH 692 0
DWIDTH 18 0
BBX 17 12 0 0
BITMAP
3FFF80
7FFF80
980200
B04200
20E100
20E100
20E100
20C100
204300
304200
18C600
0F3C00
ENDCHAR
STARTCHAR 03D7
ENCODING 983
SWIDTH 538 0
DWIDTH 14 0
BBX 12 16 1 -4
BITMAP
7060
98E0
18C0
09C0
0B80
0E80
1E80
1C80
3880
70C0
70F0
6070
0010
0020
0E40
0780
ENDCHAR
STARTCHAR 03D8
ENCODING 984
SWIDTH 692 0
DWIDTH 18 0
BBX 15 18 2 0
BITMAP
0FC0
3C70
701C
601C
E00E
E00E
E00E
E00E
600C
701C
1838
07E0
0180
0180
0180
0180
0180
0FE0
ENDCHAR
STARTCHAR 03D9
ENCODING 985
SWIDTH 423 0
DWIDTH 11 0
BBX 9 19 1 -7
BITMAP
1E00
7100
6100
E080
C080
C180
8180
8180
8380
8700
4F00
3E00
0800
0800
0800
0800
0C00
0C00
0C00
ENDCHAR
STARTCHAR 03DA
ENCODING 986
SWIDTH 538 0
DWIDTH 14 0
BBX 14 18 1 0
BITMAP
1F84
3FF8
60F8
C000
8000
8000
8000
8000
4000
6000
1800
0780
0180
0180
0180
0180
0180
0FF0
ENDCHAR
STARTCHAR 03DB
ENCODING 987
SWIDTH 538 0
DWIDTH 14 0
BBX 11 17 2 -2
BITMAP
0020
0020
0FE0
3FC0
6000
C000
8000
8000
8000
8000
C000
7C00
3F00
0380
0080
1C80
1F00
ENDCHAR
STARTCHAR 03DC
ENCODING 988
SWIDTH 653 0
DWIDTH 17 0
BBX 15 18 1 0
BITMAP
FFFE
180E
1806
1802
1802
1802
1800
1FE0
1860
1820
1820
1820
1800
1800
1800
1800
1800
7F00
ENDCHAR
STARTCHAR 03DD
ENCODING 989
SWIDTH 500 0
DWIDTH 13 0
BBX 13 19 -1 -7
BITMAP
0FF8
0FF8
0800
0800
0800
0800
0800
0FF0
0FF0
0800
0800
0800
0800
0800
0800
0800
C800
C800
F000
ENDCHAR
STARTCHAR 03DE
ENCODING 990
SWIDTH 615 0
DWIDTH 16 0
BBX 14 18 1 0
BITMAP
7000
F800
4800
0800
0808
1818
1078
11F0
13F0
2F90
3E10
3C30
3020
0020
0020
002C
003C
001C
ENDCHAR
STARTCHAR 03DF
ENCODING 991
SWIDTH 384 0
DWIDTH 10 0
BBX 8 22 1 -4
BITMAP
70
90
10
30
20
20
40
40
7F
FF
01
03
02
02
06
04
0C
0C
1C
18
38
38
ENDCHAR
STARTCHAR 03E0
ENCODING 992
SWIDTH 730 0
DWIDTH 19 0
BBX 17 18 1 0
BITMAP
0F8000
3FE000
61F000
407800
403C00
405E00
408E00
611700
222300
064180
04C180
088180
110080
220080
64E080
C8E100
00C200
003C00
ENDCHAR
STARTCHAR 03E1
ENCODING 993
SWIDTH 538 0
DWIDTH 14 0
BBX 15 22 -2 -4
BITMAP
8000
F800
0E00
0180
00C0
0060
0030
00D8
0308
0C0C
000C
0036
0066
0182
0002
0002
0002
0002
0006
0004
0004
000C
ENDCHAR
STARTCHAR 03F0
ENCODING 1008
SWIDTH 538 0
DWIDTH 14 0
BBX 12 12 1 0
BITMAP
7060
98E0
18C0
09C0
0B80
0E80
1E80
1C80
3880
70C0
70F0
6060
ENDCHAR
STARTCHAR 03F1
ENCODING 1009
SWIDTH 461 0
DWIDTH 12 0
BBX 10 19 1 -7
BITMAP
0F00
3880
3080
7040
6040
60C0
40C0
40C0
41C0
4380
6700
5E00
4000
4000
C000
C000
C000
C000
C000
ENDCHAR
STARTCHAR 03F2
ENCODING 1010
SWIDTH 423 0
DWIDTH 11 0
BBX 9 12 1 0
BITMAP
1E00
3300
6080
C000
C000
C000
C000
C000
C000
6080
3300
1E00
ENDCHAR
STARTCHAR 03F3
ENCODING 1011
SWIDTH 307 0
DWIDTH 8 0
BBX 7 24 -1 -7
BITMAP
04
0E
0E
00
00
3C
04
04
04
04
04
04
04
04
04
04
04
04
04
04
C4
C4
88
70
ENDCHAR
STARTCHAR 03F4
ENCODING 1012
SWIDTH 692 0
DWIDTH 18 0
BBX 15 18 2 0
BITMAP
07C0
1C70
3018
3018
600C
600C
E00E
E00E
FFFE
E00E
E00E
E00E
600C
600C
3018
3018
1C70
07C0
ENDCHAR
STARTCHAR 03F5
ENCODING 1013
SWIDTH 423 0
DWIDTH 11 0
BBX 9 12 1 0
BITMAP
1E00
3100
6080
C000
C000
FE00
C000
C000
C000
6080
3100
1E00
ENDCHAR
STARTCHAR 03F6
ENCODING 1014
SWIDTH 423 0
DWIDTH 11 0
BBX 9 12 1 0
BITMAP
3C00
6300
0100
0180
0180
3F80
0180
0180
0180
8300
6300
3C00
ENDCHAR
STARTCHAR 03F9
ENCODING 1017
SWIDTH 653 0
DWIDTH 17 0
BBX 13 18 2 0
BITMAP
07C0
1C30
3010
7008
6008
6000
E000
E000
E000
E000
E000
E000
6000
6008
7008
3010
1C30
07C0
ENDCHAR
STARTCHAR 0400
ENCODING 1024
SWIDTH 692 0
DWIDTH 18 0
BBX 15 24 1 0
BITMAP
0400
0600
0300
0180
0000
0000
FFFE
1806
1802
1802
1802
1822
1820
1860
1FE0
1860
1820
1820
1822
1802
1802
1806
180E
FFFE
ENDCHAR
STARTCHAR 0401
ENCODING 1025
SWIDTH 692 0
DWIDTH 18 0
BBX 15 23 1 0
BITMAP
0630
0630
0410
0000
0000
FFFE
180E
1806
1802
1802
1822
1820
1860
1FE0
1860
1820
1820
1822
1802
1802
1806
180E
FFFE
ENDCHAR
STARTCHAR 0402
ENCODING 1026
SWIDTH 846 0
DWIDTH 22 0
BBX 19 18 2 0
BITMAP
FFFE00
C30600
830200
830200
830200
830200
030000
031F00
036180
0380C0
0300E0
030060
030060
030060
0338E0
0338C0
033180
1F1F00
ENDCHAR
STARTCHAR 0403
ENCODING 1027
SWIDTH 653 0
DWIDTH 17 0
BBX 14 24 1 0
BITMAP
0020
0060
00C0
0080
0100
0000
FFFC
181C
180C
1804
1804
1804
1804
1800
1800
1800
1800
1800
1800
1800
1800
1800
1800
FF00
ENDCHAR
STARTCHAR 0404
ENCODING 1028
SWIDTH 692 0
DWIDTH 18 0
BBX 14 18 2 0
BITMAP
0FC4
102C
201C
600C
400C
C00C
C004
FFC0
C000
C000
C000
C03C
603C
601C
200C
300C
1818
07E0
ENDCHAR
STARTCHAR 0405
ENCODING 1029
SWIDTH 615 0
DWIDTH 16 0
BBX 13 18 2 0
BITMAP
1E20
61A0
C060
C060
C020
C020
E000
7C00
3F80
0FE0
81F0
8070
8018
C018
C018
E010
9820
87C0
ENDCHAR
STARTCHAR 0406
ENCODING 1030
SWIDTH 384 0
DWIDTH 10 0
BBX 8 18 1 0
BITMAP
FF
18
18
18
18
18
18
18
18
18
18
18
18
18
18
18
18
FF
ENDCHAR
STARTCHAR 0407
ENCODING 1031
SWIDTH 384 0
DWIDTH 10 0
BBX 8 23 1 0
BITMAP
C3
C3
42
00
00
FF
18
18
18
18
18
18
18
18
18
18
18
18
18
18
18
18
FF
ENDCHAR
STARTCHAR 0408
ENCODING 1032
SWIDTH 538 0
DWIDTH 14 0
BBX 12 18 1 0
BITMAP
07F0
0180
0180
0180
0180
0180
0180
0180
0180
0180
0180
0180
6180
F180
E180
C180
4300
3E00
ENDCHAR
STARTCHAR 0409
ENCODING 1033
SWIDTH 1076 0
DWIDTH 28 0
BBX 26 18 1 0
BITMAP
0FFFC000
01860000
01060000
01060000
01060000
01060000
01060000
0107FC00
01060300
01060180
010601C0
030600C0
030600C0
720600C0
F20601C0
E2060180
E4060300
781FFE00
ENDCHAR
STARTCHAR 040A
ENCODING 1034
SWIDTH 1076 0
DWIDTH 28 0
BBX 25 18 1 0
BITMAP
FF3FC000
18060000
18060000
18060000
18060000
18060000
18060000
18060000
1FFFFC00
18060700
18060300
18060180
18060180
18060180
18060180
18060380
18060700
FF3FFC00
ENDCHAR
STARTCHAR 040B
ENCODING 1035
SWIDTH 884 0
DWIDTH 23 0
BBX 20 18 2 0
BITMAP
FFFE00
C30600
830200
830200
830200
830200
030000
031E00
036380
038180
030180
030180
030180
030180
030180
030180
030180
1FEFF0
ENDCHAR
STARTCHAR 040C
ENCODING 1036
SWIDTH 730 0
DWIDTH 19 0
BBX 17 24 1 1
BITMAP
003000
006000
00C000
008000
010000
000000
FF1C00
183600
182E00
182E00
182400
182000
182000
186000
1FC000
182000
181000
181800
181800
181800
181880
181880
181900
FF0F00
ENDCHAR
STARTCHAR 040D
ENCODING 1037
SWIDTH 769 0
DWIDTH 20 0
BBX 18 24 1 0
BITMAP
060000
030000
010000
008000
004000
000000
FF3FC0
180600
180600
180E00
181600
181600
182600
184600
184600
188600
188600
190600
1A0600
1A0600
1C0600
1C0600
180600
FF3FC0
ENDCHAR
STARTCHAR 040E
ENCODING 1038
SWIDTH 807 0
DWIDTH 21 0
BBX 19 25 1 0
BITMAP
070E00
070E00
060600
060600
030C00
00F000
000000
FF9FE0
1C0300
0E0300
0E0200
070200
070400
038400
038C00
01C800
00D800
00F000
007000
007000
1E2000
1E2000
1C4000
18C000
0F0000
ENDCHAR
STARTCHAR 040F
ENCODING 1039
SWIDTH 769 0
DWIDTH 20 0
BBX 18 23 1 -5
BITMAP
FF3FC0
180600
180600
180600
180600
180600
180600
180600
180600
180600
180600
180600
180600
180600
180600
180600
180600
FFFFC0
00C000
00C000
00C000
00C000
00C000
ENDCHAR
STARTCHAR 0410
ENCODING 1040
SWIDTH 769 0
DWIDTH 20 0
BBX 18 18 2 0
BITMAP
008000
00C000
01C000
01C000
01E000
03E000
026000
027000
067000
043000
043800
0C3800
0FF800
181C00
100C00
100C00
300E00
FE3FC0
ENDCHAR
STARTCHAR 0411
ENCODING 1041
SWIDTH 692 0
DWIDTH 18 0
BBX 16 18 1 0
BITMAP
FFFE
180E
1806
1802
1802
1802
1802
1800
1FF0
180C
1806
1803
1803
1803
1803
1806
180C
FFF8
ENDCHAR
STARTCHAR 0412
ENCODING 1042
SWIDTH 653 0
DWIDTH 17 0
BBX 15 18 1 0
BITMAP
FFF0
181C
180C
1806
1806
1806
180C
1818
1FE0
1818
180C
1806
1806
1806
1806
180C
181C
FFF0
ENDCHAR
STARTCHAR 0413
ENCODING 1043
SWIDTH 653 0
DWIDTH 17 0
BBX 14 18 1 0
BITMAP
FFFC
181C
180C
1804
1804
1804
1804
1800
1800
1800
1800
1800
1800
1800
1800
1800
1800
FF00
ENDCHAR
STARTCHAR 0414
ENCODING 1044
SWIDTH 769 0
DWIDTH 20 0
BBX 18 23 1 -5
BITMAP
1FFF80
030C00
020C00
020C00
020C00
020C00
020C00
020C00
020C00
060C00
040C00
040C00
040C00
040C00
080C00
080C00
180C00
FFFFC0
E001C0
C000C0
800040
800040
800040
ENDCHAR
STARTCHAR 0415
ENCODING 1045
SWIDTH 692 0
DWIDTH 18 0
BBX 15 18 1 0
BITMAP
FFFE
1806
1802
1802
1802
1822
1820
1860
1FE0
1860
1820
1820
1822
1802
1802
1806
180E
FFFE
ENDCHAR
STARTCHAR 0416
ENCODING 1046
SWIDTH 1000 0
DWIDTH 26 0
BBX 24 18 1 0
BITMAP
1CFF38
32184C
3A185C
3A185C
121848
021840
021840
011880
00FF00
0318C0
041820
0C1830
0C1830
0C1830
8C1831
8C1831
981819
70FF0E
ENDCHAR
STARTCHAR 0417
ENCODING 1047
SWIDTH 615 0
DWIDTH 16 0
BBX 13 18 2 0
BITMAP
47C0
5830
7038
6018
4018
4030
4060
0780
0060
0030
0038
7018
F018
F018
C038
6030
3060
1F80
ENDCHAR
STARTCHAR 0418
ENCODING 1048
SWIDTH 769 0
DWIDTH 20 0
BBX 18 18 1 0
BITMAP
FF3FC0
180600
180600
180E00
181600
181600
182600
184600
184600
188600
188600
190600
1A0600
1A0600
1C0600
180600
180600
FF3FC0
ENDCHAR
STARTCHAR 0419
ENCODING 1049
SWIDTH 769 0
DWIDTH 20 0
BBX 18 24 1 0
BITMAP
0E1C00
0E1C00
0C0C00
040800
03F000
000000
FF3FC0
180600
180600
180E00
181600
181600
182600
184600
184600
188600
188600
190600
1A0600
1A0600
1C0600
180600
180600
FF3FC0
ENDCHAR
STARTCHAR 041A
ENCODING 1050
SWIDTH 730 0
DWIDTH 19 0
BBX 17 18 1 0
BITMAP
FF1C00
183600
182E00
182E00
182400
182000
182000
186000
1FC000
182000
181000
181800
181800
181800
181880
181880
181900
FF0F00
ENDCHAR
STARTCHAR 041B
ENCODING 1051
SWIDTH 769 0
DWIDTH 20 0
BBX 18 18 1 0
BITMAP
0FFFC0
018600
010600
010600
010600
010600
010600
010600
010600
010600
010600
030600
030600
620600
F20600
F20600
E40600
781FC0
ENDCHAR
STARTCHAR 041C
ENCODING 1052
SWIDTH 846 0
DWIDTH 22 0
BBX 20 18 1 0
BITMAP
FC03F0
1C0380
1E0580
160580
160580
170580
130980
130980
138980
139180
119180
11D180
11D180
10E180
10E180
10E180
104180
FE4FF0
ENDCHAR
STARTCHAR 041D
ENCODING 1053
SWIDTH 769 0
DWIDTH 20 0
BBX 18 18 1 0
BITMAP
FF3FC0
180600
180600
180600
180600
180600
180600
180600
1FFE00
180600
180600
180600
180600
180600
180600
180600
180600
FF3FC0
ENDCHAR
STARTCHAR 041E
ENCODING 1054
SWIDTH 692 0
DWIDTH 18 0
BBX 15 18 2 0
BITMAP
07C0
1830
3018
2008
600C
600C
C006
C006
C006
C006
C006
C006
600C
600C
2008
3018
1830
07C0
ENDCHAR
STARTCHAR 041F
ENCODING 1055
SWIDTH 769 0
DWIDTH 20 0
BBX 18 18 1 0
BITMAP
FFFFC0
180600
180600
180600
180600
180600
180600
180600
180600
180600
180600
180600
180600
180600
180600
180600
180600
FF3FC0
ENDCHAR
STARTCHAR 0420
ENCODING 1056
SWIDTH 653 0
DWIDTH 17 0
BBX 15 18 1 0
BITMAP
FFF0
181C
180C
1806
1806
1806
180C
1818
1FF0
1800
1800
1800
1800
1800
1800
1800
1800
FF00
ENDCHAR
STARTCHAR 0421
ENCODING 1057
SWIDTH 692 0
DWIDTH 18 0
BBX 14 18 2 0
BITMAP
0784
186C
203C
601C
600C
C00C
C004
C000
C000
C000
C000
C004
6004
6004
2008
3018
1830
07C0
ENDCHAR
STARTCHAR 0422
ENCODING 1058
SWIDTH 692 0
DWIDTH 18 0
BBX 15 18 2 0
BITMAP
FFFE
C30E
8306
8302
0302
0302
0302
0300
0300
0300
0300
0300
0300
0300
0300
0300
0300
1FF0
ENDCHAR
STARTCHAR 0423
ENCODING 1059
SWIDTH 769 0
DWIDTH 20 0
BBX 19 18 1 0
BITMAP
FF8FE0
1C0300
0C0300
0E0200
070200
070400
038400
038400
01C800
00C800
00F000
007000
006000
1E2000
1E2000
1C4000
188000
0F0000
ENDCHAR
STARTCHAR 0424
ENCODING 1060
SWIDTH 846 0
DWIDTH 22 0
BBX 19 18 2 0
BITMAP
07FC00
006000
006000
0FFE00
306180
6060C0
6060E0
C06060
C06060
C06060
C06060
6060E0
6060C0
306180
0FFE00
006000
006000
07FC00
ENDCHAR
STARTCHAR 0425
ENCODING 1061
SWIDTH 769 0
DWIDTH 20 0
BBX 18 18 1 0
BITMAP
7FBF80
0E0C00
0E0C00
070800
071000
03B000
01A000
01C000
00C000
00E000
016000
037000
023800
043800
0C1C00
080C00
180E00
FE3FC0
ENDCHAR
STARTCHAR 0426
ENCODING 1062
SWIDTH 807 0
DWIDTH 21 0
BBX 19 23 1 -5
BITMAP
FF3FC0
180600
180600
180600
180600
180600
180600
180600
180600
180600
180600
180600
180600
180600
180600
180600
180600
FFFF80
0000E0
000060
000020
000020
000020
ENDCHAR
STARTCHAR 0427
ENCODING 1063
SWIDTH 769 0
DWIDTH 20 0
BBX 18 18 1 0
BITMAP
FF3FC0
180600
180600
180600
180600
180600
180600
180E00
0C1600
03E600
000600
000600
000600
000600
000600
000600
000600
003FC0
ENDCHAR
STARTCHAR 0428
ENCODING 1064
SWIDTH 1076 0
DWIDTH 28 0
BBX 26 18 1 0
BITMAP
FF7FBFC0
180C0600
180C0600
180C0600
180C0600
180C0600
180C0600
180C0600
180C0600
180C0600
180C0600
180C0600
180C0600
180C0600
180C0600
180C0600
180C0600
FFFFFFC0
ENDCHAR
STARTCHAR 0429
ENCODING 1065
SWIDTH 1115 0
DWIDTH 29 0
BBX 27 23 1 -5
BITMAP
FF7F9FC0
180C0300
180C0300
180C0300
180C0300
180C0300
180C0300
180C0300
180C0300
180C0300
180C0300
180C0300
180C0300
180C0300
180C0300
180C0300
180C0300
FFFFFF80
000000E0
00000060
00000020
00000020
00000020
ENDCHAR
STARTCHAR 042A
ENCODING 1066
SWIDTH 923 0
DWIDTH 24 0
BBX 21 18 2 0
BITMAP
FFF800
E0C000
C0C000
80C000
80C000
80C000
80C000
00C000
00FF80
00C060
00C030
00C038
00C018
00C018
00C038
00C030
00C060
07FFC0
ENDCHAR
STARTCHAR 042B
ENCODING 1067
SWIDTH 1000 0
DWIDTH 26 0
BBX 24 18 1 0
BITMAP
FF00FF
180018
180018
180018
180018
180018
180018
180018
1FF018
180C18
180618
180718
180318
180318
180718
180618
180C18
FFF8FF
ENDCHAR
STARTCHAR 042C
ENCODING 1068
SWIDTH 692 0
DWIDTH 18 0
BBX 16 18 1 0
BITMAP
FF00
1800
1800
1800
1800
1800
1800
1800
1FF0
180C
1806
1807
1803
1803
1807
1806
180C
FFF8
ENDCHAR
STARTCHAR 042D
ENCODING 1069
SWIDTH 653 0
DWIDTH 17 0
BBX 13 18 2 0
BITMAP
4F80
5060
6030
6010
4018
4018
4018
0FF8
0018
0018
0018
7018
F018
F030
C030
6060
30C0
1F00
ENDCHAR
STARTCHAR 042E
ENCODING 1070
SWIDTH 1000 0
DWIDTH 26 0
BBX 23 18 1 0
BITMAP
FF03C0
180C30
181818
18300C
18300C
186006
186006
186006
1FE006
186006
186006
186006
186006
18300C
18300C
181018
180C30
FF03C0
ENDCHAR
STARTCHAR 042F
ENCODING 1071
SWIDTH 730 0
DWIDTH 19 0
BBX 17 18 1 0
BITMAP
03FF80
0C0C00
180C00
180C00
180C00
180C00
180C00
0C0C00
03FC00
060C00
060C00
0C0C00
0C0C00
0C0C00
8C0C00
9C0C00
F80C00
707F80
ENDCHAR
STARTCHAR 0430
ENCODING 1072
SWIDTH 500 0
DWIDTH 13 0
BBX 11 12 1 0
BITMAP
1E00
6300
4180
6180
2180
0F80
7180
C180
C3A0
C3A0
C5A0
79C0
ENDCHAR
STARTCHAR 0431
ENCODING 1073
SWIDTH 500 0
DWIDTH 13 0
BBX 10 18 1 0
BITMAP
0040
0080
0780
1F00
3000
4000
5E00
A180
E180
C0C0
C0C0
C0C0
C0C0
C0C0
C0C0
6180
2180
1E00
ENDCHAR
STARTCHAR 0432
ENCODING 1074
SWIDTH 500 0
DWIDTH 13 0
BBX 11 12 1 0
BITMAP
FF80
30C0
30C0
30C0
30C0
3F00
30C0
3060
3060
3060
30C0
FF80
ENDCHAR
STARTCHAR 0433
ENCODING 1075
SWIDTH 461 0
DWIDTH 12 0
BBX 10 12 1 0
BITMAP
FFC0
30C0
3040
3040
3040
3000
3000
3000
3000
3000
3000
FC00
ENDCHAR
STARTCHAR 0434
ENCODING 1076
SWIDTH 538 0
DWIDTH 14 0
BBX 12 16 1 -4
BITMAP
3FE0
08C0
08C0
08C0
08C0
08C0
08C0
10C0
10C0
10C0
20C0
FFF0
C030
8010
8010
8010
ENDCHAR
STARTCHAR 0435
ENCODING 1077
SWIDTH 461 0
DWIDTH 12 0
BBX 9 12 1 0
BITMAP
1E00
2300
6180
C180
C180
FF80
C000
C000
C080
6080
2100
1E00
ENDCHAR
STARTCHAR 0436
ENCODING 1078
SWIDTH 730 0
DWIDTH 19 0
BBX 17 12 1 0
BITMAP
33E700
68CB00
78CB00
08C800
08C800
0FF800
30C600
30C600
30C600
B0C600
B0C680
73E380
ENDCHAR
STARTCHAR 0437
ENCODING 1079
SWIDTH 423 0
DWIDTH 11 0
BBX 9 12 1 0
BITMAP
BC00
C700
8300
8300
0600
1C00
0300
C180
C180
8180
8300
7E00
ENDCHAR
STARTCHAR 0438
ENCODING 1080
SWIDTH 576 0
DWIDTH 15 0
BBX 13 12 1 0
BITMAP
FDF8
3060
30E0
3160
3160
3260
3260
3460
3860
3860
3060
FDF8
ENDCHAR
STARTCHAR 0439
ENCODING 1081
SWIDTH 576 0
DWIDTH 15 0
BBX 13 17 1 0
BITMAP
1880
18C0
1040
0F80
0000
FDF8
3060
3060
30E0
3160
3260
3260
3460
3860
3060
3060
FDF8
ENDCHAR
STARTCHAR 043A
ENCODING 1082
SWIDTH 538 0
DWIDTH 14 0
BBX 12 12 1 0
BITMAP
FCC0
3160
3160
3100
3300
3C00
3300
3180
3180
3190
31D0
FCE0
ENDCHAR
STARTCHAR 043B
ENCODING 1083
SWIDTH 538 0
DWIDTH 14 0
BBX 12 12 1 0
BITMAP
1FF0
04C0
08C0
08C0
08C0
08C0
08C0
08C0
08C0
C8C0
D0C0
63F0
ENDCHAR
STARTCHAR 043C
ENCODING 1084
SWIDTH 576 0
DWIDTH 15 0
BBX 14 12 0 0
BITMAP
F03C
3870
3870
28B0
2CB0
2CB0
24B0
2730
2730
2330
2230
F27C
ENDCHAR
STARTCHAR 043D
ENCODING 1085
SWIDTH 576 0
DWIDTH 15 0
BBX 13 12 1 0
BITMAP
FDF8
3060
3060
3060
3060
3FE0
3060
3060
3060
3060
3060
FDF8
ENDCHAR
STARTCHAR 043E
ENCODING 1086
SWIDTH 500 0
DWIDTH 13 0
BBX 10 12 1 0
BITMAP
1E00
2180
6180
C0C0
C0C0
C0C0
C0C0
C0C0
C0C0
6180
2180
1E00
ENDCHAR
STARTCHAR 043F
ENCODING 1087
SWIDTH 576 0
DWIDTH 15 0
BBX 13 12 1 0
BITMAP
FFF8
3060
3060
3060
3060
3060
3060
3060
3060
3060
3060
FDF8
ENDCHAR
STARTCHAR 0440
ENCODING 1088
SWIDTH 538 0
DWIDTH 14 0
BBX 11 18 1 -6
BITMAP
F380
34C0
3860
3860
3060
3060
3060
3060
3060
3860
38C0
3780
3000
3000
3000
3000
3000
FC00
ENDCHAR
STARTCHAR 0441
ENCODING 1089
SWIDTH 423 0
DWIDTH 11 0
BBX 9 12 1 0
BITMAP
1E00
2100
6080
C180
C180
C000
C000
C000
C080
6080
2100
1E00
ENDCHAR
STARTCHAR 0442
ENCODING 1090
SWIDTH 461 0
DWIDTH 12 0
BBX 10 12 1 0
BITMAP
FFC0
8C40
8C40
8C40
0C00
0C00
0C00
0C00
0C00
0C00
0C00
3F00
ENDCHAR
STARTCHAR 0443
ENCODING 1091
SWIDTH 538 0
DWIDTH 14 0
BBX 13 18 0 -6
BITMAP
FCF8
3820
1820
1840
0C40
0C40
0C80
0680
0680
0700
0300
0300
0200
0200
2200
6200
6400
3800
ENDCHAR
STARTCHAR 0444
ENCODING 1092
SWIDTH 653 0
DWIDTH 17 0
BBX 15 24 1 -6
BITMAP
0040
0480
0680
0380
0300
0300
3B78
678C
638C
C306
C306
C306
C306
C306
C306
638C
678C
3B78
0300
0300
0300
0280
0480
0040
ENDCHAR
STARTCHAR 0445
ENCODING 1093
SWIDTH 538 0
DWIDTH 14 0
BBX 12 12 1 0
BITMAP
F9E0
3080
3900
1900
0E00
0E00
0600
0B00
1300
1180
21C0
F3F0
ENDCHAR
STARTCHAR 0446
ENCODING 1094
SWIDTH 576 0
DWIDTH 15 0
BBX 14 16 1 -4
BITMAP
FDF8
3060
3060
3060
3060
3060
3060
3060
3060
3060
3060
FFFC
001C
000C
0004
0004
ENDCHAR
STARTCHAR 0447
ENCODING 1095
SWIDTH 500 0
DWIDTH 13 0
BBX 12 12 0 0
BITMAP
FDF0
30C0
30C0
30C0
30C0
30C0
1FC0
00C0
00C0
00C0
00C0
01F0
ENDCHAR
STARTCHAR 0448
ENCODING 1096
SWIDTH 769 0
DWIDTH 20 0
BBX 18 12 1 0
BITMAP
FDF7C0
30C300
30C300
30C300
30C300
30C300
30C300
30C300
30C300
30C300
30C300
FFFFC0
ENDCHAR
STARTCHAR 0449
ENCODING 1097
SWIDTH 807 0
DWIDTH 21 0
BBX 19 15 1 -4
BITMAP
FDF7E0
30C180
30C180
30C180
30C180
30C180
30C180
30C180
30C180
30C180
30C180
FFFFE0
000060
000020
000020
ENDCHAR
STARTCHAR 044A
ENCODING 1098
SWIDTH 615 0
DWIDTH 16 0
BBX 13 12 2 0
BITMAP
FF00
8C00
0C00
0C00
0C00
0FE0
0C30
0C18
0C18
0C18
0C30
3FE0
ENDCHAR
STARTCHAR 044B
ENCODING 1099
SWIDTH 692 0
DWIDTH 18 0
BBX 16 12 1 0
BITMAP
FC1F
300C
300C
300C
300C
3F8C
30CC
306C
306C
306C
30CC
FF9F
ENDCHAR
STARTCHAR 044C
ENCODING 1100
SWIDTH 500 0
DWIDTH 13 0
BBX 11 12 1 0
BITMAP
FC00
3000
3000
3000
3000
3F80
30C0
3060
3060
3060
30C0
FF80
ENDCHAR
STARTCHAR 044D
ENCODING 1101
SWIDTH 423 0
DWIDTH 11 0
BBX 9 12 1 0
BITMAP
BC00
C200
8300
8180
0180
3F80
0180
0180
C180
8300
8200
7C00
ENDCHAR
STARTCHAR 044E
ENCODING 1102
SWIDTH 653 0
DWIDTH 17 0
BBX 15 12 1 0
BITMAP
FC70
318C
3184
3306
3306
3F06
3306
3306
3306
3184
308C
FC70
ENDCHAR
STARTCHAR 044F
ENCODING 1103
SWIDTH 538 0
DWIDTH 14 0
BBX 12 12 1 0
BITMAP
0FF0
38C0
30C0
30C0
18C0
07C0
18C0
30C0
30C0
B0C0
B0C0
63F0
ENDCHAR
STARTCHAR 0450
ENCODING 1104
SWIDTH 461 0
DWIDTH 12 0
BBX 9 18 1 0
BITMAP
6000
7000
3000
0800
0000
0000
1E00
2300
6180
C180
C180
FF80
C000
C000
C080
6080
2100
1E00
ENDCHAR
STARTCHAR 0451
ENCODING 1105
SWIDTH 461 0
DWIDTH 12 0
BBX 9 17 1 0
BITMAP
3300
3300
0100
0000
0000
1E00
2300
6180
C180
C180
FF80
C000
C000
C080
6080
2100
1E00
ENDCHAR
STARTCHAR 0452
ENCODING 1106
SWIDTH 500 0
DWIDTH 13 0
BBX 11 24 1 -6
BITMAP
8400
4800
2800
3000
3000
3000
FF00
3000
3000
3380
3CC0
3060
3060
3060
3060
3060
3060
FCC0
00C0
00C0
0180
0100
0200
0400
ENDCHAR
STARTCHAR 0453
ENCODING 1107
SWIDTH 461 0
DWIDTH 12 0
BBX 10 17 1 1
BITMAP
0180
0300
0600
0000
0000
FFC0
30C0
3040
3040
3040
3000
3000
3000
3000
3000
3000
FC00
ENDCHAR
STARTCHAR 0454
ENCODING 1108
SWIDTH 423 0
DWIDTH 11 0
BBX 9 12 1 0
BITMAP
1E80
6180
6080
C080
C000
FE00
C000
C000
C180
6080
2080
1F00
ENDCHAR
STARTCHAR 0455
ENCODING 1109
SWIDTH 423 0
DWIDTH 11 0
BBX 9 12 1 0
BITMAP
7D00
8300
8100
C100
F000
7C00
1F00
8380
8080
C080
E080
9F00
ENDCHAR
STARTCHAR 0456
ENCODING 1110
SWIDTH 307 0
DWIDTH 8 0
BBX 6 18 1 0
BITMAP
20
70
70
00
00
00
F0
30
30
30
30
30
30
30
30
30
30
FC
ENDCHAR
STARTCHAR 0457
ENCODING 1111
SWIDTH 346 0
DWIDTH 9 0
BBX 7 17 1 0
BITMAP
04
C6
C6
00
00
78
18
18
18
18
18
18
18
18
18
18
7C
ENDCHAR
STARTCHAR 0458
ENCODING 1112
SWIDTH 307 0
DWIDTH 8 0
BBX 7 24 -1 -6
BITMAP
04
06
06
00
00
00
3E
06
06
06
06
06
06
06
06
06
06
06
06
06
C6
C6
8C
78
ENDCHAR
STARTCHAR 0459
ENCODING 1113
SWIDTH 730 0
DWIDTH 19 0
BBX 17 12 1 0
BITMAP
1FF000
04C000
08C000
08C000
08C000
08FE00
08C300
08C180
48C180
C8C180
D0C300
63FE00
ENDCHAR
STARTCHAR 045A
ENCODING 1114
SWIDTH 692 0
DWIDTH 18 0
BBX 16 12 1 0
BITMAP
FDF0
30C0
30C0
30C0
30C0
3FFC
30C7
30C3
30C3
30C3
30C3
FDFE
ENDCHAR
STARTCHAR 045B
ENCODING 1115
SWIDTH 538 0
DWIDTH 14 0
BBX 12 18 1 0
BITMAP
8000
4800
3800
3000
3000
3000
FE00
3000
3000
3380
3CC0
30C0
30C0
30C0
30C0
30C0
30C0
FFF0
ENDCHAR
STARTCHAR 045C
ENCODING 1116
SWIDTH 538 0
DWIDTH 14 0
BBX 12 18 1 0
BITMAP
00C0
00C0
0180
0300
0000
0000
FCC0
3160
3160
3100
3300
3C00
3300
3180
3180
3190
31D0
FCE0
ENDCHAR
STARTCHAR 045D
ENCODING 1117
SWIDTH 576 0
DWIDTH 15 0
BBX 13 17 1 1
BITMAP
1800
0C00
0400
0200
0000
FDF8
3060
30E0
3160
3160
3260
3260
3460
3860
3860
3060
FDF8
ENDCHAR
STARTCHAR 045E
ENCODING 1118
SWIDTH 538 0
DWIDTH 14 0
BBX 14 23 0 -6
BITMAP
0C40
0C60
0820
07C0
0000
FE7C
1820
1820
1C20
0C40
0C40
0640
0680
0680
0380
0300
0300
0100
0200
2200
6200
6400
3800
ENDCHAR
STARTCHAR 045F
ENCODING 1119
SWIDTH 500 0
DWIDTH 13 0
BBX 11 16 1 -4
BITMAP
F9E0
31C0
31C0
31C0
31C0
31C0
31C0
31C0
31C0
31C0
31C0
FFE0
0600
0600
0600
0600
ENDCHAR
STARTCHAR 0460
ENCODING 1120
SWIDTH 923 0
DWIDTH 24 0
BBX 21 18 2 0
BITMAP
C07078
C07038
C07038
E07038
E07038
E07038
603018
603818
603810
703810
303C10
385C20
384E20
1C4E20
0C8740
0F07C0
070380
020100
ENDCHAR
STARTCHAR 0461
ENCODING 1121
SWIDTH 692 0
DWIDTH 18 0
BBX 16 12 1 0
BITMAP
C187
C187
C187
E183
6183
61C3
61C2
71C2
3264
1A74
1C38
0810
ENDCHAR
STARTCHAR 0462
ENCODING 1122
SWIDTH 807 0
DWIDTH 21 0
BBX 18 18 2 0
BITMAP
1FE000
030000
FFFF00
C30700
C30300
830300
830100
830100
03FC00
030300
030180
0300C0
0300C0
0300C0
0300C0
030180
030300
1FFE00
ENDCHAR
STARTCHAR 0463
ENCODING 1123
SWIDTH 615 0
DWIDTH 16 0
BBX 13 18 2 0
BITMAP
0100
1200
0A00
0C00
0C00
0C00
FFE0
8C20
0C20
0C20
0C00
0FE0
0C30
0C18
0C18
0C18
0C30
3FE0
ENDCHAR
STARTCHAR 0464
ENCODING 1124
SWIDTH 961 0
DWIDTH 25 0
BBX 22 18 1 0
BITMAP
FF07C4
18183C
18301C
18200C
18600C
18600C
186004
1FFFC0
186000
186000
186000
18601C
18603C
18301C
18300C
18180C
180C18
FF03E0
ENDCHAR
STARTCHAR 0465
ENCODING 1125
SWIDTH 653 0
DWIDTH 17 0
BBX 15 12 1 0
BITMAP
FC7A
3186
3182
3302
3300
3FF8
3300
3300
3306
3182
3082
FC7C
ENDCHAR
STARTCHAR 0466
ENCODING 1126
SWIDTH 846 0
DWIDTH 22 0
BBX 21 18 1 0
BITMAP
002000
003000
007000
007800
00F800
009C00
019C00
010E00
030E00
020600
020700
060300
07FF80
0C6180
0861C0
1860C0
3860E0
FDFBF8
ENDCHAR
STARTCHAR 0467
ENCODING 1127
SWIDTH 615 0
DWIDTH 16 0
BBX 14 12 1 0
BITMAP
0100
0300
0380
0580
05C0
08C0
08E0
1060
19E0
2530
6230
F27C
ENDCHAR
STARTCHAR 0468
ENCODING 1128
SWIDTH 1192 0
DWIDTH 31 0
BBX 29 18 1 0
BITMAP
FF001000
18001000
18003800
18003800
18007C00
18004C00
1800CE00
18008E00
18018700
18010700
18030380
18020380
1FFFFF80
180431C0
180C30C0
180830E0
181830E0
FF7EFDF8
ENDCHAR
STARTCHAR 0469
ENCODING 1129
SWIDTH 884 0
DWIDTH 23 0
BBX 21 12 1 0
BITMAP
FC0200
300600
300700
300B00
300B80
301180
3011C0
3020C0
3FF1C0
304A60
304460
FDE4F8
ENDCHAR
STARTCHAR 046A
ENCODING 1130
SWIDTH 1000 0
DWIDTH 26 0
BBX 24 18 1 0
BITMAP
0FFFE0
0380C0
01C080
00E100
00E200
007600
003C00
01FF80
0618E0
0E1860
0C1870
0C1830
0C1830
1C1830
9C1839
9C1839
981819
70FF0E
ENDCHAR
STARTCHAR 046B
ENCODING 1131
SWIDTH 730 0
DWIDTH 19 0
BBX 18 12 0 0
BITMAP
1FFE00
060400
070800
039000
01E000
0FFC00
18C600
18C300
30C300
B0C340
B0C340
73F180
ENDCHAR
STARTCHAR 046C
ENCODING 1132
SWIDTH 1346 0
DWIDTH 35 0
BBX 33 18 1 0
BITMAP
FE0FFFF000
1801C06000
1801E04000
1800E08000
1800710000
18003B0000
18001E0000
1FFFFFC000
18030C7000
18060C3000
180E0C3800
180E0C1800
180E0C1800
180C0C1800
188C0C1C80
189C0C1C80
189C0C0C80
FE787F8700
ENDCHAR
STARTCHAR 046D
ENCODING 1133
SWIDTH 961 0
DWIDTH 25 0
BBX 24 12 1 0
BITMAP
FC7FF8
303820
301C40
300E40
300680
3FFFF0
306318
304318
30C30C
32C30D
32C30D
FD8FCE
ENDCHAR
STARTCHAR 046E
ENCODING 1134
SWIDTH 538 0
DWIDTH 14 0
BBX 11 29 2 -6
BITMAP
3080
19C0
1A00
0E00
1E00
6180
C0C0
E060
E060
6060
0060
00C0
0180
3E00
3180
20C0
2060
2060
0060
00E0
01C0
0780
3F00
7800
C000
8080
81C0
8380
7E00
ENDCHAR
STARTCHAR 046F
ENCODING 1135
SWIDTH 423 0
DWIDTH 11 0
BBX 9 20 1 -4
BITMAP
2300
3500
3800
3C00
4300
C180
C180
0180
0300
7C00
6300
4180
0180
0380
0F00
7C00
E000
8200
8600
7800
ENDCHAR
STARTCHAR 0470
ENCODING 1136
SWIDTH 884 0
DWIDTH 23 0
BBX 22 18 1 0
BITMAP
01FE00
003000
FC303C
38305C
3830BC
1C30B8
0C3100
0E3100
063200
073200
03B200
03B400
01F400
01F800
003000
003000
003000
01FE00
ENDCHAR
STARTCHAR 0471
ENCODING 1137
SWIDTH 769 0
DWIDTH 20 0
BBX 18 22 1 -6
BITMAP
03F000
00C000
00C000
00C000
F8C180
30C2C0
30C4C0
18C400
18C400
18C800
0CC800
0CC800
0ED000
06D000
06D000
03E000
00C000
00C000
00C000
00C000
00C000
03F000
ENDCHAR
STARTCHAR 0472
ENCODING 1138
SWIDTH 692 0
DWIDTH 18 0
BBX 15 18 2 0
BITMAP
07C0
1830
3018
2008
600C
400C
C006
C006
FFFE
C006
C006
C006
600C
600C
2008
3018
1830
07C0
ENDCHAR
STARTCHAR 0473
ENCODING 1139
SWIDTH 500 0
DWIDTH 13 0
BBX 10 12 1 0
BITMAP
1E00
2180
6080
C0C0
C0C0
FFC0
C0C0
C0C0
C0C0
6180
2180
1E00
ENDCHAR
STARTCHAR 0474
ENCODING 1140
SWIDTH 769 0
DWIDTH 20 0
BBX 19 18 1 0
BITMAP
FF01C0
1C0360
1C02E0
0C06E0
0E0400
0E0400
060C00
070800
030800
031800
039000
019000
01B000
01E000
00E000
00E000
004000
004000
ENDCHAR
STARTCHAR 0475
ENCODING 1141
SWIDTH 538 0
DWIDTH 14 0
BBX 13 12 0 0
BITMAP
FC38
3028
3058
1840
1840
0C80
0C80
0C80
0700
0700
0200
0200
ENDCHAR
STARTCHAR 0476
ENCODING 1142
SWIDTH 807 0
DWIDTH 21 0
BBX 19 24 2 1
BITMAP
066000
076000
033000
009000
008800
000000
FF01C0
180360
1802E0
1C06E0
0C0400
0E0400
060800
060800
070800
031000
031000
039000
01A000
01E000
00E000
00C000
00C000
004000
ENDCHAR
STARTCHAR 0477
ENCODING 1143
SWIDTH 538 0
DWIDTH 14 0
BBX 13 18 0 0
BITMAP
3200
3300
1980
0C80
0040
0000
FC38
3028
3058
1840
1840
0C80
0C80
0680
0700
0700
0300
0200
ENDCHAR
STARTCHAR 0478
ENCODING 1144
SWIDTH 1230 0
DWIDTH 32 0
BBX 29 23 2 -6
BITMAP
07800000
18600000
30300000
60180000
60180000
60180000
C00CF838
C00C3058
C00C3058
C00C3040
C00C1880
C00C1880
60180C80
60180D00
60180700
30300700
18600200
07800200
00000400
00000400
00000400
00000600
00000700
ENDCHAR
STARTCHAR 0479
ENCODING 1145
SWIDTH 961 0
DWIDTH 25 0
BBX 23 17 1 -6
BITMAP
1E3E0E
210C16
618C16
C0C610
C0C620
C0C620
C0C320
C0C340
C1C1C0
6181C0
210080
1E0080
000100
000100
000100
000180
0001C0
ENDCHAR
STARTCHAR 047A
ENCODING 1146
SWIDTH 846 0
DWIDTH 22 0
BBX 19 22 2 -2
BITMAP
00E000
00E000
07FC00
084200
100100
200080
6000C0
6000C0
C00060
C00060
C00060
C00060
C00060
C00060
6000C0
6000C0
200080
300180
084200
06EC00
01F000
00E000
ENDCHAR
STARTCHAR 047B
ENCODING 1147
SWIDTH 576 0
DWIDTH 15 0
BBX 13 15 1 -1
BITMAP
0200
0700
1FC0
2020
6030
C018
C018
C018
C018
C018
6030
6030
3260
0F80
0300
ENDCHAR
STARTCHAR 047C
ENCODING 1148
SWIDTH 1076 0
DWIDTH 28 0
BBX 24 25 2 0
BITMAP
007C00
01C380
0339E0
006878
004410
004400
000400
07C1E0
186718
307704
60F786
60E386
600003
C00003
C00003
C00003
C0FF03
C01803
C01803
601803
601806
601806
301C0C
183418
07C3E0
ENDCHAR
STARTCHAR 047D
ENCODING 1149
SWIDTH 730 0
DWIDTH 19 0
BBX 17 16 1 0
BITMAP
03C000
05BC00
014400
014000
1E3C00
216200
636300
E22180
C00180
C00180
C3E180
C0C180
C0C180
60C300
214200
1E3C00
ENDCHAR
STARTCHAR 047E
ENCODING 1150
SWIDTH 923 0
DWIDTH 24 0
BBX 21 24 2 0
BITMAP
3FFFC0
3060C0
206040
21F840
000000
000000
C06078
C06078
C06038
E06038
E07038
E07038
607018
603010
603010
703810
303810
385C20
385C20
1C8E20
1C8740
0F0740
070380
020100
ENDCHAR
STARTCHAR 047F
ENCODING 1151
SWIDTH 692 0
DWIDTH 18 0
BBX 15 17 2 0
BITMAP
FFFE
8306
8302
0780
0000
C38E
C38E
C386
E386
E186
6186
61C4
72C4
3264
3C68
1C30
0830
ENDCHAR
STARTCHAR 0480
ENCODING 1152
SWIDTH 692 0
DWIDTH 18 0
BBX 16 18 1 0
BITMAP
FF00
1800
1800
1800
1800
1800
1800
1800
0C00
07F8
0018
0018
0018
0018
0018
0018
0018
00FF
ENDCHAR
STARTCHAR 0481
ENCODING 1153
SWIDTH 423 0
DWIDTH 11 0
BBX 11 12 0 0
BITMAP
FC00
3000
3000
3000
3000
3000
1F80
0180
0180
0180
0180
07E0
ENDCHAR
STARTCHAR 0482
ENCODING 1154
SWIDTH 384 0
DWIDTH 10 0
BBX 8 9 1 -4
BITMAP
01
12
0E
0E
DB
30
30
48
C0
ENDCHAR
STARTCHAR 0483
ENCODING 1155
SWIDTH 0 0
DWIDTH 0 0
BBX 9 2 -11 13
BITMAP
F980
C780
ENDCHAR
STARTCHAR 0484
ENCODING 1156
SWIDTH 0 0
DWIDTH 0 0
BBX 10 3 -12 14
BITMAP
1F00
7180
8040
ENDCHAR
STARTCHAR 0485
ENCODING 1157
SWIDTH 0 0
DWIDTH 0 0
BBX 4 4 -9 13
BITMAP
60
90
80
80
ENDCHAR
STARTCHAR 0486
ENCODING 1158
SWIDTH 0 0
DWIDTH 0 0
BBX 4 5 -9 13
BITMAP
60
90
10
10
20
ENDCHAR
STARTCHAR 0487
ENCODING 1159
SWIDTH 0 0
DWIDTH 0 0
BBX 13 3 -13 20
BITMAP
1F80
6060
8018
ENDCHAR
STARTCHAR 0488
ENCODING 1160
SWIDTH 0 0
DWIDTH 0 0
BBX 29 26 -21 -6
BITMAP
000F0000
00108000
00108000
00000000
0F000780
11800C40
10800840
00000000
00000000
00000000
00000000
00000000
780000F0
C4000118
84000108
00000000
00000000
00000000
00000000
0E000300
11800CC0
10800840
00000000
000F0000
00108000
00108000
ENDCHAR
STARTCHAR 0489
ENCODING 1161
SWIDTH 0 0
DWIDTH 0 0
BBX 28 26 -21 -7
BITMAP
00020000
00040000
00060000
04070000
04020380
07800C00
03000C00
00000000
00000000
00000000
00000000
00000000
000001E0
9C000190
7C000000
00000000
00000000
00000000
00000000
03000E00
03000F00
02000100
1C020100
00070100
00010000
00020000
ENDCHAR
STARTCHAR 0490
ENCODING 1168
SWIDTH 615 0
DWIDTH 16 0
BBX 14 24 1 0
BITMAP
0004
0004
000C
000C
001C
003C
FFFC
1800
1800
1800
1800
1800
1800
1800
1800
1800
1800
1800
1800
1800
1800
1800
1800
FF00
ENDCHAR
STARTCHAR 0491
ENCODING 1169
SWIDTH 461 0
DWIDTH 12 0
BBX 10 16 1 0
BITMAP
0040
0040
00C0
00C0
FFC0
3000
3000
3000
3000
3000
3000
3000
3000
3000
3000
FC00
ENDCHAR
STARTCHAR 04A4
ENCODING 1188
SWIDTH 1000 0
DWIDTH 26 0
BBX 24 18 1 0
BITMAP
FF3FFF
180607
180603
180603
180601
180601
180601
180600
1FFE00
180600
180600
180600
180600
180600
180600
180600
180600
FF3FC0
ENDCHAR
STARTCHAR 04A5
ENCODING 1189
SWIDTH 730 0
DWIDTH 19 0
BBX 17 12 1 0
BITMAP
FDFF80
306180
306080
306080
306000
3FE000
306000
306000
306000
306000
306000
FDF800
ENDCHAR
STARTCHAR 04D8
ENCODING 1240
SWIDTH 653 0
DWIDTH 17 0
BBX 14 18 2 0
BITMAP
0F80
3060
2010
4018
8018
8008
000C
000C
FFFC
C00C
C00C
C00C
E01C
6018
6018
3030
1860
0F80
ENDCHAR
STARTCHAR 04D9
ENCODING 1241
SWIDTH 461 0
DWIDTH 12 0
BBX 9 12 1 0
BITMAP
3C00
4300
8100
8180
0180
0180
FF80
C180
C180
6100
6300
1C00
ENDCHAR
STARTCHAR 0510
ENCODING 1296
SWIDTH 615 0
DWIDTH 16 0
BBX 13 18 2 0
BITMAP
1F10
30D0
6070
6030
6010
6010
3010
0F00
3000
7000
E000
E038
E038
E038
E018
7030
3860
0FC0
ENDCHAR
STARTCHAR 0511
ENCODING 1297
SWIDTH 423 0
DWIDTH 11 0
BBX 9 12 1 0
BITMAP
3E00
6180
C180
C180
6000
3C00
6000
C180
C180
C080
6080
3F00
ENDCHAR
STARTCHAR 05D0
ENCODING 1488
SWIDTH 576 0
DWIDTH 15 0
BBX 12 15 2 0
BITMAP
80C0
C1C0
C1E0
E1E0
F0F0
78E0
7C80
9F00
8F00
8780
C3C0
E1E0
F0E0
F040
F040
ENDCHAR
STARTCHAR 1D79
ENCODING 7545
SWIDTH 423 0
DWIDTH 11 0
BBX 9 16 1 -4
BITMAP
FF80
FF00
0200
0400
1800
3000
3000
1800
0C00
3700
4300
8180
8080
8080
4100
3E00
ENDCHAR
STARTCHAR 1E80
ENCODING 7808
SWIDTH 1076 0
DWIDTH 28 0
BBX 26 24 1 1
BITMAP
00600000
00300000
00100000
00080000
00000000
00000000
FE7F9FC0
381E0600
180E0600
1C0E0400
1C160400
0C160400
0E170800
0E330800
06230800
06239000
07639000
03419000
0341E000
03C1E000
0180E000
0180C000
0180C000
01004000
ENDCHAR
STARTCHAR 1E81
ENCODING 7809
SWIDTH 807 0
DWIDTH 21 0
BBX 19 18 1 0
BITMAP
030000
030000
018000
004000
000000
000000
FDFBE0
306080
306080
187100
18B100
0CB100
0C9A00
071A00
071A00
070C00
020C00
020800
ENDCHAR
STARTCHAR 1E82
ENCODING 7810
SWIDTH 1076 0
DWIDTH 28 0
BBX 26 24 1 1
BITMAP
00018000
00030000
00020000
00040000
00000000
00000000
FF3F9FC0
1C0E0300
0C060200
0C0E0200
0E0F0400
0E0F0400
06130400
07138800
07138800
03318800
03A19000
03A1D000
01A0D000
01C0E000
01C0E000
00C0E000
00804000
00804000
ENDCHAR
STARTCHAR 1E83
ENCODING 7811
SWIDTH 807 0
DWIDTH 21 0
BBX 19 18 1 0
BITMAP
000800
001800
003000
002000
004000
000000
FDFBE0
306080
306080
187100
18B100
0CB100
0C9A00
0D1A00
071A00
070C00
020C00
020800
ENDCHAR
STARTCHAR 1E84
ENCODING 7812
SWIDTH 1076 0
DWIDTH 28 0
BBX 26 24 1 0
BITMAP
00010000
00618000
00618000
00000000
00000000
00000000
FF7F9FC0
180E0600
1C0E0600
1C0E0400
0C170400
0E170400
0E170800
06130800
06238800
07239000
03219000
03419000
03C1E000
01C1E000
01C0E000
0180C000
0180C000
00804000
ENDCHAR
STARTCHAR 1E85
ENCODING 7813
SWIDTH 807 0
DWIDTH 21 0
BBX 19 17 1 0
BITMAP
031800
031800
010800
000000
000000
FDFBE0
306080
306080
186100
18B100
0CB200
0C9A00
051A00
071C00
070C00
020C00
020800
ENDCHAR
STARTCHAR 1E9E
ENCODING 7838
SWIDTH 730 0
DWIDTH 19 0
BBX 17 18 1 0
BITMAP
01FF00
027E00
040400
080800
181000
182000
187C00
188600
180300
180180
180180
180180
19C180
1BC180
1BC180
1B0300
190600
F8F800
ENDCHAR
STARTCHAR 1F00
ENCODING 7936
SWIDTH 576 0
DWIDTH 15 0
BBX 12 18 2 0
BITMAP
0600
0F00
0100
0100
0200
0000
1C60
3E60
6240
C1C0
C180
C180
8300
8300
8300
8680
4C70
3860
ENDCHAR
STARTCHAR 1F01
ENCODING 7937
SWIDTH 576 0
DWIDTH 15 0
BBX 12 18 2 0
BITMAP
0600
0F00
0800
0800
0400
0000
1C60
3E60
72C0
E2C0
C180
C180
8100
8300
8300
8680
4CF0
3860
ENDCHAR
STARTCHAR 1F02
ENCODING 7938
SWIDTH 576 0
DWIDTH 15 0
BBX 12 18 2 0
BITMAP
1B00
3D00
0580
0480
0880
0000
1C60
3E60
72C0
E2C0
C180
C180
8100
8300
8300
8680
4C70
3860
ENDCHAR
STARTCHAR 1F03
ENCODING 7939
SWIDTH 576 0
DWIDTH 15 0
BBX 12 18 2 0
BITMAP
1B00
3D00
2180
2080
1080
0000
1C60
3E60
72C0
E2C0
C180
C180
8100
8300
8300
8680
4C70
3860
ENDCHAR
STARTCHAR 1F04
ENCODING 7940
SWIDTH 576 0
DWIDTH 15 0
BBX 12 18 2 0
BITMAP
18C0
1CC0
0580
0500
0900
0000
1C60
3E60
72C0
E2C0
C180
C180
8100
8300
8300
8680
4C70
3860
ENDCHAR
STARTCHAR 1F05
ENCODING 7941
SWIDTH 576 0
DWIDTH 15 0
BBX 12 18 2 0
BITMAP
1CC0
1CC0
1180
1100
0900
0000
1C60
3E60
72C0
E2C0
C180
C180
8100
8300
8300
8680
4CF0
3860
ENDCHAR
STARTCHAR 1F06
ENCODING 7942
SWIDTH 576 0
DWIDTH 15 0
BBX 12 22 2 0
BITMAP
1C40
2C40
2640
3340
3780
0F00
0100
0100
0200
0000
1C60
3E60
62C0
C1C0
C180
C180
8300
8300
8300
8680
4C70
3860
ENDCHAR
STARTCHAR 1F07
ENCODING 7943
SWIDTH 576 0
DWIDTH 15 0
BBX 12 22 2 0
BITMAP
1C40
2C40
2640
3340
3780
0F00
0800
0800
0400
0000
1C60
3E60
72C0
E2C0
C180
C180
8100
8300
8300
8680
4CF0
3860
ENDCHAR
STARTCHAR 1F08
ENCODING 7944
SWIDTH 807 0
DWIDTH 21 0
BBX 19 18 1 0
BITMAP
604000
F06000
106000
10F000
20F000
00B000
01B800
013800
031800
021C00
021C00
060C00
07FE00
040E00
0C0600
080700
1C0700
7F1FE0
ENDCHAR
STARTCHAR 1F09
ENCODING 7945
SWIDTH 807 0
DWIDTH 21 0
BBX 18 18 2 0
BITMAP
604000
E04000
80E000
80E000
41E000
017000
017000
033000
023800
023800
061C00
041C00
07FC00
080E00
080E00
180600
180700
7E3FC0
ENDCHAR
STARTCHAR 1F0A
ENCODING 7946
SWIDTH 846 0
DWIDTH 22 0
BBX 22 18 -1 0
BITMAP
6C0800
FC0C00
160C00
121E00
221E00
001600
003700
002700
002300
004380
004380
004180
00FFC0
0081C0
0180C0
0100E0
0100E0
0FE3FC
ENDCHAR
STARTCHAR 1F0B
ENCODING 7947
SWIDTH 846 0
DWIDTH 22 0
BBX 21 18 0 0
BITMAP
680800
EC0800
841C00
841C00
423C00
022E00
002E00
006600
004700
004700
00C300
008380
00FF80
0181C0
0101C0
0100C0
0300E0
0FC7F8
ENDCHAR
STARTCHAR 1F0C
ENCODING 7948
SWIDTH 846 0
DWIDTH 22 0
BBX 21 18 0 0
BITMAP
631000
F31800
161800
143C00
243C00
002C00
006E00
004E00
004600
008700
008700
018300
01FF80
010380
030180
0201C0
0601C0
1FC7F8
ENDCHAR
STARTCHAR 1F0D
ENCODING 7949
SWIDTH 807 0
DWIDTH 21 0
BBX 20 18 0 0
BITMAP
661000
E61000
8C3800
883800
483800
005C00
005C00
00CC00
008E00
008E00
018600
010700
01FF00
030380
020380
020180
0601C0
1F8FF0
ENDCHAR
STARTCHAR 1F0E
ENCODING 7950
SWIDTH 807 0
DWIDTH 21 0
BBX 22 22 -2 0
BITMAP
708000
998000
CC8000
CE8000
5F0400
1E0C00
020C00
021E00
041600
001600
003700
002300
002380
006380
004180
00C1C0
00FFC0
0080C0
0180E0
0100E0
038070
0FE3FC
ENDCHAR
STARTCHAR 1F0F
ENCODING 7951
SWIDTH 807 0
DWIDTH 21 0
BBX 22 22 -2 0
BITMAP
708000
998000
CC8000
CE8000
4F0400
1C0C00
100C00
100E00
101600
001600
003700
002300
002380
006380
004180
0041C0
00FFC0
0080C0
0080E0
0100E0
038070
0FE3FC
ENDCHAR
STARTCHAR 1F10
ENCODING 7952
SWIDTH 461 0
DWIDTH 12 0
BBX 9 18 2 0
BITMAP
1800
1C00
0400
0400
0800
0000
3E00
E300
8000
8000
5E00
7E00
8000
8000
8080
C180
7F00
3E00
ENDCHAR
STARTCHAR 1F11
ENCODING 7953
SWIDTH 461 0
DWIDTH 12 0
BBX 9 18 2 0
BITMAP
0C00
1C00
1000
1000
0800
0000
3E00
E300
8000
8000
5E00
7E00
8000
8000
8080
C180
7F00
3E00
ENDCHAR
STARTCHAR 1F12
ENCODING 7954
SWIDTH 461 0
DWIDTH 12 0
BBX 9 18 2 0
BITMAP
6400
F600
1200
1300
2100
0000
3E00
E300
8000
8000
5E00
7E00
8000
8000
8080
C180
7F00
3E00
ENDCHAR
STARTCHAR 1F13
ENCODING 7955
SWIDTH 461 0
DWIDTH 12 0
BBX 9 18 2 0
BITMAP
7600
7600
4200
4300
2100
0000
3E00
E300
8000
8000
5E00
7E00
8000
8000
8080
C180
7F00
3E00
ENDCHAR
STARTCHAR 1F14
ENCODING 7956
SWIDTH 461 0
DWIDTH 12 0
BBX 9 18 2 0
BITMAP
7180
7B00
0B00
0A00
1400
0000
3E00
E300
8100
8000
5E00
7E00
8000
8000
8080
C180
7F00
3E00
ENDCHAR
STARTCHAR 1F15
ENCODING 7957
SWIDTH 461 0
DWIDTH 12 0
BBX 9 18 2 0
BITMAP
3100
7B00
4200
4600
2400
0000
3E00
E300
8100
8000
5E00
7E00
8000
8000
8080
C100
7F00
3E00
ENDCHAR
STARTCHAR 1F18
ENCODING 7960
SWIDTH 884 0
DWIDTH 23 0
BBX 20 18 1 0
BITMAP
63FFF0
F06070
106010
106010
206010
006100
006100
006300
007F00
006300
006300
006100
006110
006010
006010
006010
006030
03FFF0
ENDCHAR
STARTCHAR 1F19
ENCODING 7961
SWIDTH 923 0
DWIDTH 24 0
BBX 20 18 2 0
BITMAP
63FFF0
F0C070
80C030
80C010
40C010
00C110
00C100
00C300
00FF00
00C300
00C300
00C110
00C110
00C010
00C010
00C030
00C070
03FFF0
ENDCHAR
STARTCHAR 1F1A
ENCODING 7962
SWIDTH 961 0
DWIDTH 25 0
BBX 24 18 -1 0
BITMAP
643FFF
F60C07
120C03
130C01
210C01
000C11
000C10
000C30
000FF0
000C30
000C30
000C11
000C11
000C01
000C01
000C03
000C07
003FFF
ENDCHAR
STARTCHAR 1F1B
ENCODING 7963
SWIDTH 961 0
DWIDTH 25 0
BBX 23 18 0 0
BITMAP
6C7FFE
F40C0E
A60C02
820C02
410C02
000C20
000C20
000C60
000FE0
000C60
000C20
000C20
000C22
000C02
000C02
000C02
000C06
007FFE
ENDCHAR
STARTCHAR 1F1C
ENCODING 7964
SWIDTH 1000 0
DWIDTH 26 0
BBX 24 18 0 0
BITMAP
633FFF
F30C07
160C01
140C01
280C01
000C10
000C10
000C30
000FF0
000C30
000C30
000C10
000C11
000C01
000C01
000C01
000C03
003FFF
ENDCHAR
STARTCHAR 1F1D
ENCODING 7965
SWIDTH 1000 0
DWIDTH 26 0
BBX 24 18 0 0
BITMAP
627FFF
F60C07
840C03
8C0C01
480C01
000C21
000C20
000C60
000FE0
000C60
000C60
000C21
000C21
000C01
000C01
000C03
000C07
007FFF
ENDCHAR
STARTCHAR 1F20
ENCODING 7968
SWIDTH 615 0
DWIDTH 16 0
BBX 13 25 1 -7
BITMAP
0700
0780
0080
0080
0100
0000
E0E0
9190
1208
0E08
0C08
0C08
0C08
0C08
0818
1818
1818
1838
0038
0030
0030
0070
0070
0070
0070
ENDCHAR
STARTCHAR 1F21
ENCODING 7969
SWIDTH 576 0
DWIDTH 15 0
BBX 13 25 0 -7
BITMAP
0180
0380
0200
0200
0100
0000
60E0
9190
0B08
0A08
0608
0608
0C08
0C08
0C08
0C08
0C08
0C18
0018
0018
0038
0038
0038
0038
0038
ENDCHAR
STARTCHAR 1F22
ENCODING 7970
SWIDTH 576 0
DWIDTH 15 0
BBX 13 25 0 -7
BITMAP
0C80
1E80
02C0
0240
0440
0000
60E0
9190
0B08
0A08
0C08
0C08
0C08
0C08
0C18
0818
1818
1838
0038
0030
0030
0070
0070
0070
0070
ENDCHAR
STARTCHAR 1F23
ENCODING 7971
SWIDTH 615 0
DWIDTH 16 0
BBX 13 25 1 -7
BITMAP
0D80
1D80
1080
1040
0840
0000
E0E0
9110
1218
0E08
0C08
0C08
0C08
0818
1818
1818
1818
1838
0038
0030
0070
0070
0070
0070
0070
ENDCHAR
STARTCHAR 1F24
ENCODING 7972
SWIDTH 576 0
DWIDTH 15 0
BBX 13 25 0 -7
BITMAP
0E30
0F60
0160
0140
0280
0000
60E0
9190
0B08
0B08
0608
0608
0C08
0C08
0C08
0C08
0C08
0C18
0018
0018
0038
0038
0038
0038
0038
ENDCHAR
STARTCHAR 1F25
ENCODING 7973
SWIDTH 615 0
DWIDTH 16 0
BBX 13 25 1 -7
BITMAP
0E60
0E40
08C0
0880
0500
0000
E0E0
9190
1308
0E08
0408
0408
0C08
0C08
0C18
0818
1818
1838
0038
0030
0030
0070
0070
0070
0070
ENDCHAR
STARTCHAR 1F26
ENCODING 7974
SWIDTH 615 0
DWIDTH 16 0
BBX 13 29 1 -7
BITMAP
1C20
1660
3320
33A0
17E0
0780
0080
0080
0100
0000
E0E0
9190
1208
0E08
0C08
0C08
0C08
0C08
0818
1818
1818
1838
0038
0030
0030
0070
0070
0070
0070
ENDCHAR
STARTCHAR 1F27
ENCODING 7975
SWIDTH 615 0
DWIDTH 16 0
BBX 13 29 1 -7
BITMAP
1C60
2660
2320
33A0
33C0
0700
0400
0400
0200
0000
E0E0
9110
1218
0E08
0C08
0C08
0C08
0818
1818
1818
1818
1838
0038
0030
0070
0070
0070
0070
0070
ENDCHAR
STARTCHAR 1F28
ENCODING 7976
SWIDTH 1000 0
DWIDTH 26 0
BBX 24 18 1 0
BITMAP
63FCFF
F06018
106018
106018
206018
006018
006018
006018
007FF8
006018
006018
006018
006018
006018
006018
006018
006018
03FCFF
ENDCHAR
STARTCHAR 1F29
ENCODING 7977
SWIDTH 1000 0
DWIDTH 26 0
BBX 23 18 2 0
BITMAP
63F9FE
F0C030
80C030
80C030
40C030
00C030
00C030
00C030
00FFF0
00C030
00C030
00C030
00C030
00C030
00C030
00C030
00C030
03F9FE
ENDCHAR
STARTCHAR 1F2A
ENCODING 7978
SWIDTH 1038 0
DWIDTH 27 0
BBX 27 18 -1 0
BITMAP
643F9FE0
F60C0300
120C0300
130C0300
210C0300
000C0300
000C0300
000C0300
000FFF00
000C0300
000C0300
000C0300
000C0300
000C0300
000C0300
000C0300
000C0300
003F9FE0
ENDCHAR
STARTCHAR 1F2B
ENCODING 7979
SWIDTH 1076 0
DWIDTH 28 0
BBX 27 18 0 0
BITMAP
6C7F9FE0
F40C0300
A60C0300
820C0300
420C0300
000C0300
000C0300
000C0300
000FFF00
000C0300
000C0300
000C0300
000C0300
000C0300
000C0300
000C0300
000C0300
007F9FE0
ENDCHAR
STARTCHAR 1F2C
ENCODING 7980
SWIDTH 1076 0
DWIDTH 28 0
BBX 27 18 0 0
BITMAP
633F9FE0
F30C0300
160C0300
140C0300
240C0300
000C0300
000C0300
000C0300
000FFF00
000C0300
000C0300
000C0300
000C0300
000C0300
000C0300
000C0300
000C0300
003F9FE0
ENDCHAR
STARTCHAR 1F2D
ENCODING 7981
SWIDTH 1076 0
DWIDTH 28 0
BBX 27 18 0 0
BITMAP
627F9FE0
F60C0300
840C0300
8C0C0300
480C0300
000C0300
000C0300
000C0300
000FFF00
000C0300
000C0300
000C0300
000C0300
000C0300
000C0300
000C0300
000C0300
007F9FE0
ENDCHAR
STARTCHAR 1F2E
ENCODING 7982
SWIDTH 1038 0
DWIDTH 27 0
BBX 28 22 -2 0
BITMAP
70800000
58C00000
CCC00000
C6400000
5FBFCFF0
1E060180
02060180
02060180
04060180
00060180
00060180
00060180
0007FF80
00060180
00060180
00060180
00060180
00060180
00060180
00060180
00060180
003FCFF0
ENDCHAR
STARTCHAR 1F2F
ENCODING 7983
SWIDTH 1038 0
DWIDTH 27 0
BBX 28 22 -2 0
BITMAP
71800000
99800000
CC800000
CE800000
4F3F8FF0
1E0C0180
100C0180
100C0180
080C0180
000C0180
000C0180
000C0180
000FFF80
000C0180
000C0180
000C0180
000C0180
000C0180
000C0180
000C0180
000C0180
003F8FF0
ENDCHAR
STARTCHAR 1F30
ENCODING 7984
SWIDTH 307 0
DWIDTH 8 0
BBX 4 18 2 0
BITMAP
C0
E0
20
20
40
00
C0
C0
C0
C0
C0
80
80
80
80
90
F0
70
ENDCHAR
STARTCHAR 1F31
ENCODING 7985
SWIDTH 269 0
DWIDTH 7 0
BBX 4 18 2 0
BITMAP
60
E0
80
80
40
00
C0
C0
C0
C0
C0
80
80
80
80
90
F0
60
ENDCHAR
STARTCHAR 1F32
ENCODING 7986
SWIDTH 269 0
DWIDTH 7 0
BBX 8 18 -1 0
BITMAP
64
F6
12
12
21
00
18
18
18
18
18
10
10
10
10
12
1E
0C
ENDCHAR
STARTCHAR 1F33
ENCODING 7987
SWIDTH 307 0
DWIDTH 8 0
BBX 7 18 0 0
BITMAP
6C
EC
84
82
42
00
38
38
30
30
30
30
20
20
20
24
3C
1C
ENDCHAR
STARTCHAR 1F34
ENCODING 7988
SWIDTH 307 0
DWIDTH 8 0
BBX 7 18 1 0
BITMAP
E6
F6
14
18
28
40
30
30
30
30
30
20
20
20
20
24
3C
18
ENDCHAR
STARTCHAR 1F35
ENCODING 7989
SWIDTH 307 0
DWIDTH 8 0
BBX 7 18 1 0
BITMAP
66
E6
8C
88
50
00
70
70
60
60
60
60
40
40
40
44
7C
38
ENDCHAR
STARTCHAR 1F36
ENCODING 7990
SWIDTH 269 0
DWIDTH 7 0
BBX 8 22 -1 0
BITMAP
71
B9
99
CD
DE
1C
04
04
08
00
18
18
18
18
10
10
10
10
10
12
1E
0C
ENDCHAR
STARTCHAR 1F37
ENCODING 7991
SWIDTH 307 0
DWIDTH 8 0
BBX 8 22 0 0
BITMAP
63
B3
99
9D
9E
38
20
20
20
00
38
38
30
30
30
30
20
20
20
24
3C
1C
ENDCHAR
STARTCHAR 1F38
ENCODING 7992
SWIDTH 615 0
DWIDTH 16 0
BBX 14 18 1 0
BITMAP
63FC
F060
1060
1060
2060
0060
0060
0060
0060
0060
0060
0060
0060
0060
0060
0060
0060
03FC
ENDCHAR
STARTCHAR 1F39
ENCODING 7993
SWIDTH 615 0
DWIDTH 16 0
BBX 13 18 2 0
BITMAP
63F8
F0C0
80C0
80C0
40C0
00C0
00C0
00C0
00C0
00C0
00C0
00C0
00C0
00C0
00C0
00C0
00C0
03F8
ENDCHAR
STARTCHAR 1F3A
ENCODING 7994
SWIDTH 653 0
DWIDTH 17 0
BBX 17 18 -1 0
BITMAP
643F80
F60C00
120C00
120C00
210C00
000C00
000C00
000C00
000C00
000C00
000C00
000C00
000C00
000C00
000C00
000C00
000C00
003F80
ENDCHAR
STARTCHAR 1F3B
ENCODING 7995
SWIDTH 692 0
DWIDTH 18 0
BBX 17 18 0 0
BITMAP
6C7F80
F40C00
A60C00
820C00
420C00
000C00
000C00
000C00
000C00
000C00
000C00
000C00
000C00
000C00
000C00
000C00
000C00
007F80
ENDCHAR
STARTCHAR 1F3C
ENCODING 7996
SWIDTH 692 0
DWIDTH 18 0
BBX 17 18 0 0
BITMAP
633F80
F30C00
160C00
140C00
240C00
000C00
000C00
000C00
000C00
000C00
000C00
000C00
000C00
000C00
000C00
000C00
000C00
003F80
ENDCHAR
STARTCHAR 1F3D
ENCODING 7997
SWIDTH 692 0
DWIDTH 18 0
BBX 17 18 0 0
BITMAP
627F80
F60C00
840C00
8C0C00
480C00
000C00
000C00
000C00
000C00
000C00
000C00
000C00
000C00
000C00
000C00
000C00
000C00
007F80
ENDCHAR
STARTCHAR 1F3E
ENCODING 7998
SWIDTH 653 0
DWIDTH 17 0
BBX 18 22 -2 0
BITMAP
708000
58C000
CCC000
C64000
5FBFC0
1E0600
020600
020600
040600
000600
000600
000600
000600
000600
000600
000600
000600
000600
000600
000600
000600
003FC0
ENDCHAR
STARTCHAR 1F3F
ENCODING 7999
SWIDTH 615 0
DWIDTH 16 0
BBX 17 22 -2 0
BITMAP
718000
998000
CC8000
CE8000
4F3F80
1E0C00
100C00
100C00
080C00
000C00
000C00
000C00
000C00
000C00
000C00
000C00
000C00
000C00
000C00
000C00
000C00
003F80
ENDCHAR
STARTCHAR 1F40
ENCODING 8000
SWIDTH 423 0
DWIDTH 11 0
BBX 9 18 1 0
BITMAP
1800
1C00
0400
0400
0800
0000
1E00
7100
6100
E080
C080
C180
8180
8180
8380
8700
4E00
3C00
ENDCHAR
STARTCHAR 1F41
ENCODING 8001
SWIDTH 423 0
DWIDTH 11 0
BBX 9 18 1 0
BITMAP
1C00
1C00
1000
1000
0800
0000
1E00
7100
6100
E080
C080
C180
8180
8180
8380
8700
4E00
3C00
ENDCHAR
STARTCHAR 1F42
ENCODING 8002
SWIDTH 423 0
DWIDTH 11 0
BBX 9 18 1 0
BITMAP
6400
7600
1200
1200
2100
0000
1E00
7100
6100
E080
C080
C180
8180
8180
8380
8700
4E00
3C00
ENDCHAR
STARTCHAR 1F43
ENCODING 8003
SWIDTH 423 0
DWIDTH 11 0
BBX 9 18 1 0
BITMAP
3400
7600
4200
4200
2100
0000
1E00
7100
6100
E080
C080
C180
8180
8180
8380
8700
4E00
3C00
ENDCHAR
STARTCHAR 1F44
ENCODING 8004
SWIDTH 423 0
DWIDTH 11 0
BBX 9 18 1 0
BITMAP
3180
7B00
0B00
0A00
1400
0000
1E00
7100
6100
E080
C080
C180
8180
8180
8380
8700
4E00
3C00
ENDCHAR
STARTCHAR 1F45
ENCODING 8005
SWIDTH 423 0
DWIDTH 11 0
BBX 9 18 1 0
BITMAP
3300
7B00
4200
4400
2400
0000
1E00
7100
6100
E080
C080
C180
8180
8180
8380
8700
4E00
3C00
ENDCHAR
STARTCHAR 1F48
ENCODING 8008
SWIDTH 846 0
DWIDTH 22 0
BBX 20 18 1 0
BITMAP
603E00
F0E380
1181C0
1180C0
230060
030060
070070
070070
070070
070070
070070
070070
030060
030060
0180C0
0180C0
00E380
003E00
ENDCHAR
STARTCHAR 1F49
ENCODING 8009
SWIDTH 884 0
DWIDTH 23 0
BBX 20 18 2 0
BITMAP
607E00
E0C300
818180
8300C0
4700E0
060060
0E0070
0E0070
0E0070
0E0070
0E0070
0E0070
060060
0700E0
0300C0
018180
00E700
007E00
ENDCHAR
STARTCHAR 1F4A
ENCODING 8010
SWIDTH 923 0
DWIDTH 24 0
BBX 24 18 -1 0
BITMAP
6C07E0
FC0C30
161818
12300C
22700E
006006
00E007
00E007
00E007
00E007
00E007
00E007
006006
00700E
00300C
001818
000E70
0007E0
ENDCHAR
STARTCHAR 1F4B
ENCODING 8011
SWIDTH 923 0
DWIDTH 24 0
BBX 23 18 0 0
BITMAP
6C07C0
FC1C70
843038
823018
42600C
00600C
00E00E
00E00E
00E00E
00E00E
00E00E
00E00E
00600C
00600C
003018
003018
001C70
0007C0
ENDCHAR
STARTCHAR 1F4C
ENCODING 8012
SWIDTH 923 0
DWIDTH 24 0
BBX 23 18 0 0
BITMAP
630FC0
F21860
163030
146018
28E01C
00C00C
01C00E
01C00E
01C00E
01C00E
01C00E
01C00E
00C00C
00E01C
006018
003030
001CE0
000FC0
ENDCHAR
STARTCHAR 1F4D
ENCODING 8013
SWIDTH 884 0
DWIDTH 23 0
BBX 22 18 0 0
BITMAP
660F80
F638E0
846070
886030
48C018
00C018
01C01C
01C01C
01C01C
01C01C
01C01C
01C01C
00C018
00C018
006030
006030
0038E0
000F80
ENDCHAR
STARTCHAR 1F50
ENCODING 8016
SWIDTH 461 0
DWIDTH 12 0
BBX 9 18 2 0
BITMAP
3000
3800
0800
0800
1000
0000
C200
C100
C100
4080
8080
8080
8080
8180
8180
8100
4700
3C00
ENDCHAR
STARTCHAR 1F51
ENCODING 8017
SWIDTH 461 0
DWIDTH 12 0
BBX 9 18 2 0
BITMAP
1800
3C00
2000
2000
1000
0000
C200
C100
C100
4080
8080
8080
8080
8180
8180
8100
4700
3C00
ENDCHAR
STARTCHAR 1F52
ENCODING 8018
SWIDTH 461 0
DWIDTH 12 0
BBX 10 18 1 0
BITMAP
6600
F600
1200
1100
2100
0000
6100
6080
6080
2040
4040
4040
4040
40C0
40C0
6180
3F80
1E00
ENDCHAR
STARTCHAR 1F53
ENCODING 8019
SWIDTH 461 0
DWIDTH 12 0
BBX 9 18 2 0
BITMAP
EC00
EC00
8400
8200
4200
0000
C200
C100
C100
4080
8080
8080
8080
8180
8180
C300
7F00
3C00
ENDCHAR
STARTCHAR 1F54
ENCODING 8020
SWIDTH 461 0
DWIDTH 12 0
BBX 9 18 2 0
BITMAP
6300
F300
1600
1400
2800
0000
C200
C100
C100
C080
8080
8080
8080
8180
8180
C300
7F00
3C00
ENDCHAR
STARTCHAR 1F55
ENCODING 8021
SWIDTH 461 0
DWIDTH 12 0
BBX 9 18 2 0
BITMAP
6300
F600
8600
8C00
4800
0000
C200
C100
C100
C080
8080
8080
8080
8180
8180
C300
7F00
3C00
ENDCHAR
STARTCHAR 1F56
ENCODING 8022
SWIDTH 461 0
DWIDTH 12 0
BBX 10 22 1 0
BITMAP
7180
B980
9880
CC80
DF00
1C00
0400
0400
0800
0000
6100
6080
6080
2040
4040
4040
4040
40C0
40C0
4080
2380
1E00
ENDCHAR
STARTCHAR 1F57
ENCODING 8023
SWIDTH 461 0
DWIDTH 12 0
BBX 10 22 1 0
BITMAP
7180
B980
9880
CC80
CF00
1E00
1000
1000
0800
0000
6100
6080
6080
2040
4040
4040
4040
40C0
40C0
4080
2380
1E00
ENDCHAR
STARTCHAR 1F59
ENCODING 8025
SWIDTH 846 0
DWIDTH 22 0
BBX 19 18 2 0
BITMAP
6601C0
F18260
80C4E0
8048E0
406800
003800
003000
003000
003000
003000
003000
003000
003000
003000
003000
003000
003000
01FF00
ENDCHAR
STARTCHAR 1F5B
ENCODING 8027
SWIDTH 923 0
DWIDTH 24 0
BBX 23 18 0 0
BITMAP
6C401C
F43066
A6084E
82048E
420680
000700
000300
000300
000300
000300
000300
000300
000300
000300
000300
000300
000300
001FE0
ENDCHAR
STARTCHAR 1F5D
ENCODING 8029
SWIDTH 923 0
DWIDTH 24 0
BBX 23 18 0 0
BITMAP
62601C
F63066
84084E
8C048E
480680
000700
000300
000300
000300
000300
000300
000300
000300
000300
000300
000300
000300
001FE0
ENDCHAR
STARTCHAR 1F5F
ENCODING 8031
SWIDTH 846 0
DWIDTH 22 0
BBX 23 22 -2 0
BITMAP
708000
998000
CC8000
CE8000
4F001C
1E3866
100C4E
100680
080680
000380
000300
000300
000300
000300
000300
000300
000300
000300
000300
000300
000300
001FF0
ENDCHAR
STARTCHAR 1F60
ENCODING 8032
SWIDTH 653 0
DWIDTH 17 0
BBX 15 18 1 0
BITMAP
0300
0380
0080
0080
0100
0000
3010
7008
600C
E384
C386
C386
C386
C306
C106
620C
631C
1CF8
ENDCHAR
STARTCHAR 1F61
ENCODING 8033
SWIDTH 653 0
DWIDTH 17 0
BBX 15 18 1 0
BITMAP
0180
0380
0200
0200
0100
0000
3010
7008
600C
E384
C386
C386
C386
C186
C106
610E
219C
1E78
ENDCHAR
STARTCHAR 1F62
ENCODING 8034
SWIDTH 653 0
DWIDTH 17 0
BBX 15 18 1 0
BITMAP
0C80
1EC0
0240
0260
0420
0000
3010
7008
600C
E304
C386
C386
C306
C306
C106
610C
229C
1C78
ENDCHAR
STARTCHAR 1F63
ENCODING 8035
SWIDTH 653 0
DWIDTH 17 0
BBX 15 18 1 0
BITMAP
0EC0
0EC0
0840
0820
0420
0000
1810
3808
700C
E384
C386
C386
C386
C186
C106
610C
229C
1C78
ENDCHAR
STARTCHAR 1F64
ENCODING 8036
SWIDTH 653 0
DWIDTH 17 0
BBX 15 18 1 0
BITMAP
0E30
0F60
0160
0140
0680
0000
3010
7008
600C
E384
C386
C386
C386
C186
C186
610E
219C
1E78
ENDCHAR
STARTCHAR 1F65
ENCODING 8037
SWIDTH 653 0
DWIDTH 17 0
BBX 15 18 1 0
BITMAP
0620
0760
0A40
08C0
0480
0000
3010
7008
600C
E384
C386
C386
C386
C186
C106
610C
229C
1C78
ENDCHAR
STARTCHAR 1F66
ENCODING 8038
SWIDTH 653 0
DWIDTH 17 0
BBX 15 22 1 0
BITMAP
0E30
1730
1390
1990
1BE0
0380
0080
0080
0100
0000
3010
7008
600C
E384
C386
C386
C386
C306
C106
620C
631C
1CF8
ENDCHAR
STARTCHAR 1F67
ENCODING 8039
SWIDTH 653 0
DWIDTH 17 0
BBX 15 22 1 0
BITMAP
0E30
1730
1390
1990
19E0
0380
0200
0200
0100
0000
3010
7008
600C
E184
C186
C186
C186
C186
C106
610E
219C
1E78
ENDCHAR
STARTCHAR 1F68
ENCODING 8040
SWIDTH 884 0
DWIDTH 23 0
BBX 21 18 1 0
BITMAP
603F00
F0E1C0
11C0E0
138070
230030
070038
070038
070038
070038
030030
038070
018060
00E1C0
041210
041210
021210
03F3F0
03F3F0
ENDCHAR
STARTCHAR 1F69
ENCODING 8041
SWIDTH 923 0
DWIDTH 24 0
BBX 20 18 2 0
BITMAP
603E00
E0E380
8180C0
8380E0
470070
070070
070070
070070
070070
030060
0380E0
0180C0
00E380
041410
041410
021420
03F7E0
03F7E0
ENDCHAR
STARTCHAR 1F6A
ENCODING 8042
SWIDTH 961 0
DWIDTH 25 0
BBX 25 18 -1 0
BITMAP
6403F000
F60E1C00
161C0E00
12380700
22300300
00700380
00700380
00700380
00700380
00300300
00380700
00180600
000E1800
00412100
00412100
00212100
003F3F00
003F3F00
ENDCHAR
STARTCHAR 1F6B
ENCODING 8043
SWIDTH 1000 0
DWIDTH 26 0
BBX 24 18 0 0
BITMAP
6C03E0
FC0E38
84180C
82380E
427007
007007
007007
007007
007007
003006
003806
00180C
000E18
004121
004121
002122
003F3E
003F3E
ENDCHAR
STARTCHAR 1F6C
ENCODING 8044
SWIDTH 961 0
DWIDTH 25 0
BBX 23 18 0 0
BITMAP
6307C0
F31C70
163018
14701C
24E00E
00E00E
00E00E
00E00E
00E00E
00600C
00701C
003018
001C70
008282
008282
004284
007EFC
007EFC
ENDCHAR
STARTCHAR 1F6D
ENCODING 8045
SWIDTH 923 0
DWIDTH 24 0
BBX 22 18 0 0
BITMAP
660FC0
E638E0
846030
88E038
49C01C
01C01C
01C01C
01C01C
01C01C
00C018
00E018
006030
003860
010484
010484
008488
00FCF8
00FCF8
ENDCHAR
STARTCHAR 1F6E
ENCODING 8046
SWIDTH 923 0
DWIDTH 24 0
BBX 24 22 -2 0
BITMAP
708000
988000
CC8000
CE8000
5F87E0
1E0E38
02180C
02380E
047007
007007
007007
007007
007007
003006
00380E
00181C
000630
004141
004141
002142
003F7E
003F7E
ENDCHAR
STARTCHAR 1F6F
ENCODING 8047
SWIDTH 884 0
DWIDTH 23 0
BBX 24 22 -2 0
BITMAP
708000
988000
CC8000
CE8000
4F87E0
1E0E38
10380C
10380E
087006
007007
007007
007007
007007
003006
00300E
00181C
000C30
004242
004242
004242
003E7E
003E7E
ENDCHAR
STARTCHAR 1F70
ENCODING 8048
SWIDTH 576 0
DWIDTH 15 0
BBX 12 18 2 0
BITMAP
1800
0C00
0C00
0400
0200
0000
1C60
3E60
72C0
E2C0
C180
C180
8100
8300
8300
8680
4C70
3860
ENDCHAR
STARTCHAR 1F71
ENCODING 8049
SWIDTH 576 0
DWIDTH 15 0
BBX 12 18 2 0
BITMAP
0180
0180
0300
0200
0400
0000
1C60
3E60
72C0
E2C0
C180
C180
8100
8300
8300
8780
4EF0
3860
ENDCHAR
STARTCHAR 1F72
ENCODING 8050
SWIDTH 461 0
DWIDTH 12 0
BBX 9 18 2 0
BITMAP
3000
3000
1800
0800
0800
0000
3E00
E300
8000
8000
5E00
7E00
8000
8000
8080
C180
7F00
3E00
ENDCHAR
STARTCHAR 1F73
ENCODING 8051
SWIDTH 461 0
DWIDTH 12 0
BBX 9 18 2 0
BITMAP
0600
0600
0400
0800
0800
0000
3E00
E300
8000
8000
5E00
7E00
8000
8000
8080
C180
7F00
3E00
ENDCHAR
STARTCHAR 1F74
ENCODING 8052
SWIDTH 576 0
DWIDTH 15 0
BBX 12 25 1 -7
BITMAP
0C00
0C00
0400
0200
0200
0000
E1C0
A320
1610
1610
0C10
0C10
0C10
1810
1810
1810
1810
1830
0030
0030
0070
0070
0070
0070
0070
ENDCHAR
STARTCHAR 1F75
ENCODING 8053
SWIDTH 576 0
DWIDTH 15 0
BBX 12 25 1 -7
BITMAP
0180
0180
0100
0200
0200
0000
E1C0
A320
1610
1610
0C10
0C10
0C10
1810
1810
1810
1810
1830
0030
0030
0070
0070
0070
0070
0070
ENDCHAR
STARTCHAR 1F76
ENCODING 8054
SWIDTH 269 0
DWIDTH 7 0
BBX 5 18 1 0
BITMAP
80
C0
40
20
20
00
60
60
60
60
60
40
40
40
40
48
78
30
ENDCHAR
STARTCHAR 1F77
ENCODING 8055
SWIDTH 307 0
DWIDTH 8 0
BBX 4 18 2 0
BITMAP
10
30
20
20
40
00
C0
C0
C0
C0
C0
80
80
80
80
90
F0
70
ENDCHAR
STARTCHAR 1F78
ENCODING 8056
SWIDTH 423 0
DWIDTH 11 0
BBX 9 18 1 0
BITMAP
3000
3000
1000
0800
0800
0000
1E00
7100
6100
E080
C080
C180
8180
8180
8380
8700
4E00
3C00
ENDCHAR
STARTCHAR 1F79
ENCODING 8057
SWIDTH 423 0
DWIDTH 11 0
BBX 9 18 1 0
BITMAP
0600
0600
0C00
0800
0800
0000
1E00
7100
6100
E080
C080
C180
8180
8180
8380
8700
4E00
3C00
ENDCHAR
STARTCHAR 1F7A
ENCODING 8058
SWIDTH 461 0
DWIDTH 12 0
BBX 9 19 2 0
BITMAP
6000
6000
3000
1000
1000
0000
0000
C200
C100
C100
4080
8080
8080
8080
8180
8180
8100
4700
3C00
ENDCHAR
STARTCHAR 1F7B
ENCODING 8059
SWIDTH 461 0
DWIDTH 12 0
BBX 9 18 2 0
BITMAP
0C00
0C00
0800
1000
1000
0000
C200
C100
C100
4080
8080
8080
8080
8180
8180
C300
7F00
3C00
ENDCHAR
STARTCHAR 1F7C
ENCODING 8060
SWIDTH 653 0
DWIDTH 17 0
BBX 15 18 1 0
BITMAP
0600
0600
0300
0100
0100
0000
3010
7008
600C
E384
C386
C386
C386
C186
C106
610C
229C
1C78
ENDCHAR
STARTCHAR 1F7D
ENCODING 8061
SWIDTH 653 0
DWIDTH 17 0
BBX 15 18 1 0
BITMAP
00C0
00C0
0180
0100
0100
0000
3010
7008
600C
E384
C386
C386
C386
C186
C106
610C
229C
1C78
ENDCHAR
STARTCHAR 1F80
ENCODING 8064
SWIDTH 576 0
DWIDTH 15 0
BBX 12 24 2 -6
BITMAP
0E00
0F00
0100
0100
0200
0000
1C60
3E60
6240
C1C0
C180
C180
8300
8300
8300
8680
4C70
3860
0000
0800
0C00
0C00
0C00
0C00
ENDCHAR
STARTCHAR 1F81
ENCODING 8065
SWIDTH 576 0
DWIDTH 15 0
BBX 12 24 2 -6
BITMAP
0600
0F00
0800
0800
0400
0000
1C60
3E60
72C0
E2C0
C180
C180
8100
8300
8300
8680
4CF0
3860
0000
0800
0C00
0C00
0C00
0C00
ENDCHAR
STARTCHAR 1F82
ENCODING 8066
SWIDTH 576 0
DWIDTH 15 0
BBX 12 24 2 -6
BITMAP
1B00
3F00
0580
0480
0880
0000
1C60
3E60
72C0
E2C0
C180
C180
8100
8300
8300
8680
4C70
3860
0000
0800
0C00
0C00
0C00
0C00
ENDCHAR
STARTCHAR 1F83
ENCODING 8067
SWIDTH 576 0
DWIDTH 15 0
BBX 12 24 2 -6
BITMAP
1B00
3B00
2180
2080
1080
0000
1C60
3E60
72C0
E2C0
C180
C180
8100
8300
8300
8680
4C70
3860
0000
0800
0C00
0C00
0C00
0C00
ENDCHAR
STARTCHAR 1F84
ENCODING 8068
SWIDTH 576 0
DWIDTH 15 0
BBX 12 24 2 -6
BITMAP
18C0
1CC0
0580
0500
0B00
0000
1C60
3E60
72C0
E2C0
C180
C180
8100
8300
8300
8680
4C70
3860
0000
0800
0C00
0C00
0C00
0C00
ENDCHAR
STARTCHAR 1F85
ENCODING 8069
SWIDTH 576 0
DWIDTH 15 0
BBX 12 24 2 -6
BITMAP
1CC0
1DC0
1180
1100
0B00
0000
1C60
3E60
72C0
E2C0
C180
C180
8100
8300
8300
8680
4CF0
3860
0000
0800
0C00
0C00
0C00
0C00
ENDCHAR
STARTCHAR 1F86
ENCODING 8070
SWIDTH 576 0
DWIDTH 15 0
BBX 12 28 2 -6
BITMAP
1C40
2C40
2640
3340
3F80
0F00
0100
0100
0200
0000
1C60
3E60
62C0
C1C0
C180
C180
8300
8300
8300
8680
4C70
3860
0000
0800
0C00
0C00
0C00
0C00
ENDCHAR
STARTCHAR 1F87
ENCODING 8071
SWIDTH 576 0
DWIDTH 15 0
BBX 12 28 2 -6
BITMAP
1C40
2C40
2640
3340
3780
0F00
0800
0800
0800
0000
1C60
3E60
72C0
E2C0
C180
C180
8100
8300
8300
8680
4CF0
3860
0000
0800
0800
0C00
0C00
0C00
ENDCHAR
STARTCHAR 1F88
ENCODING 8072
SWIDTH 769 0
DWIDTH 20 0
BBX 19 25 1 -7
BITMAP
604000
F04000
10E000
10E000
20E000
017000
013000
013800
023800
021800
021C00
07FC00
040C00
0C0E00
0C0600
080600
1C0700
7F3FE0
000000
000000
008000
00C000
00C000
00C000
00C000
ENDCHAR
STARTCHAR 1F89
ENCODING 8073
SWIDTH 807 0
DWIDTH 21 0
BBX 18 25 2 -7
BITMAP
604000
F04000
80E000
80E000
41E000
017000
013000
033000
023800
021800
041800
07FC00
040C00
080E00
080600
180600
1C0700
7F3FC0
000000
000000
008000
00C000
00C000
00C000
00C000
ENDCHAR
STARTCHAR 1F8A
ENCODING 8074
SWIDTH 846 0
DWIDTH 22 0
BBX 22 25 -1 -7
BITMAP
660400
F60400
120E00
130E00
211E00
001700
001300
003300
002380
002180
004180
007FC0
0040C0
0080C0
0080E0
008060
018070
07F3FC
000000
000000
000800
000C00
000C00
000C00
000C00
ENDCHAR
STARTCHAR 1F8B
ENCODING 8075
SWIDTH 846 0
DWIDTH 22 0
BBX 22 25 0 -7
BITMAP
6C0800
FC0800
861C00
821C00
421C00
002E00
002600
002700
004700
004300
004380
00FF80
008180
0081C0
0100C0
0100C0
0300E0
0FE7FC
000000
000000
001000
001800
001800
001800
001800
ENDCHAR
STARTCHAR 1F8C
ENCODING 8076
SWIDTH 846 0
DWIDTH 22 0
BBX 21 25 0 -7
BITMAP
630800
F30800
161C00
141C00
243C00
002E00
002600
006600
004700
00C300
008300
00FF80
018180
010180
0101C0
0300C0
0300E0
1FE7F8
000000
000000
001000
001800
001800
001800
001800
ENDCHAR
STARTCHAR 1F8D
ENCODING 8077
SWIDTH 807 0
DWIDTH 21 0
BBX 20 25 0 -7
BITMAP
661000
F61000
843800
883800
483800
005C00
004C00
004C00
008E00
008600
010600
01FF00
010300
020300
020380
020180
0601C0
1FCFF0
000000
000000
002000
003000
003000
003000
003000
ENDCHAR
STARTCHAR 1F8E
ENCODING 8078
SWIDTH 807 0
DWIDTH 21 0
BBX 22 29 -2 -7
BITMAP
708000
58C000
CCC000
C64000
5F8400
1E0400
020E00
020E00
041600
001700
001300
002300
002380
006180
004180
007FC0
00C0C0
0080E0
0180E0
018060
038070
0FF3FC
000000
000000
000800
000C00
000C00
000C00
000C00
ENDCHAR
STARTCHAR 1F8F
ENCODING 8079
SWIDTH 769 0
DWIDTH 20 0
BBX 22 29 -2 -7
BITMAP
718000
998000
9C8000
CE8000
4F0800
1E0800
101C00
101C00
081C00
002E00
002600
002700
004300
004300
004380
00FF80
008180
0081C0
0100C0
0100C0
0380E0
0FE7FC
000000
000000
001000
001800
001800
001800
001800
ENDCHAR
STARTCHAR 1F90
ENCODING 8080
SWIDTH 576 0
DWIDTH 15 0
BBX 12 25 1 -7
BITMAP
0600
0700
0100
0100
0200
0000
E1C0
A320
1610
1610
0C10
0C10
0C10
0810
1810
1810
1810
1830
0030
0030
0870
0C70
0C70
0C70
0C70
ENDCHAR
STARTCHAR 1F91
ENCODING 8081
SWIDTH 576 0
DWIDTH 15 0
BBX 12 25 1 -7
BITMAP
0300
0700
0400
0400
0200
0000
E1C0
A320
1610
1610
0C10
0C10
0C10
0810
1810
1810
1810
1830
0030
0030
0870
0C70
0C70
0C70
0C70
ENDCHAR
STARTCHAR 1F92
ENCODING 8082
SWIDTH 576 0
DWIDTH 15 0
BBX 12 25 1 -7
BITMAP
1900
1D80
0480
04C0
0840
0000
E1C0
A320
1610
1610
0C10
0C10
0C10
0810
1810
1810
1810
1830
0030
0030
0870
0C70
0C70
0C70
0C70
ENDCHAR
STARTCHAR 1F93
ENCODING 8083
SWIDTH 576 0
DWIDTH 15 0
BBX 12 25 1 -7
BITMAP
1D00
1D80
1080
10C0
0840
0000
E1C0
9320
1610
1610
0C10
0C10
0C10
0810
1810
1810
1810
1830
0030
0030
0870
0C70
0C70
0C70
0C70
ENDCHAR
STARTCHAR 1F94
ENCODING 8084
SWIDTH 576 0
DWIDTH 15 0
BBX 12 25 1 -7
BITMAP
1C60
1EC0
02C0
0280
0500
0000
E1C0
A320
1610
1610
0C10
0C10
0C10
0810
1810
1810
1810
1830
0030
0030
0870
0C70
0C70
0C70
0C70
ENDCHAR
STARTCHAR 1F95
ENCODING 8085
SWIDTH 615 0
DWIDTH 16 0
BBX 13 25 1 -7
BITMAP
0660
0E40
08C0
0880
0500
0000
E0E0
9190
1308
0E08
0408
0408
0C08
0C08
0C18
0818
1818
1838
0038
0030
0430
0670
0670
0670
0670
ENDCHAR
STARTCHAR 1F96
ENCODING 8086
SWIDTH 576 0
DWIDTH 15 0
BBX 12 29 1 -7
BITMAP
1C60
2E60
2720
33A0
37C0
0700
0100
0100
0200
0000
E1C0
A320
1610
1610
0C10
0C10
0C10
0810
1810
1810
1810
1830
0030
0030
0870
0C70
0C70
0C70
0C70
ENDCHAR
STARTCHAR 1F97
ENCODING 8087
SWIDTH 576 0
DWIDTH 15 0
BBX 12 29 1 -7
BITMAP
1C60
2E60
2720
33A0
33C0
0700
0400
0400
0400
0000
E1C0
A320
1610
1610
0C10
0C10
0C10
0810
1810
1810
1810
1830
0030
0030
0870
0C70
0C70
0C70
0C70
ENDCHAR
STARTCHAR 1F98
ENCODING 8088
SWIDTH 1000 0
DWIDTH 26 0
BBX 24 25 1 -7
BITMAP
63FCFF
F06018
106018
106018
206018
006018
006018
006018
007FF8
006018
006018
006018
006018
006018
006018
006018
006018
03FCFF
000000
000000
000200
000300
000300
000300
000300
ENDCHAR
STARTCHAR 1F99
ENCODING 8089
SWIDTH 1000 0
DWIDTH 26 0
BBX 23 25 2 -7
BITMAP
63F9FE
F0C030
80C030
80C030
40C030
00C030
00C030
00C030
00FFF0
00C030
00C030
00C030
00C030
00C030
00C030
00C030
00C030
03F9FE
000000
000000
000400
000600
000600
000600
000600
ENDCHAR
STARTCHAR 1F9A
ENCODING 8090
SWIDTH 1038 0
DWIDTH 27 0
BBX 27 25 -1 -7
BITMAP
643F9FE0
F60C0300
120C0300
130C0300
210C0300
000C0300
000C0300
000C0300
000FFF00
000C0300
000C0300
000C0300
000C0300
000C0300
000C0300
000C0300
000C0300
003F9FE0
00000000
00000000
00004000
00006000
00006000
00006000
00006000
ENDCHAR
STARTCHAR 1F9B
ENCODING 8091
SWIDTH 1076 0
DWIDTH 28 0
BBX 27 25 0 -7
BITMAP
6C7F9FE0
F40C0300
A60C0300
820C0300
420C0300
000C0300
000C0300
000C0300
000FFF00
000C0300
000C0300
000C0300
000C0300
000C0300
000C0300
000C0300
000C0300
007F9FE0
00000000
00000000
00004000
00006000
00006000
00006000
00006000
ENDCHAR
STARTCHAR 1F9C
ENCODING 8092
SWIDTH 1076 0
DWIDTH 28 0
BBX 27 25 0 -7
BITMAP
633F9FE0
F30C0300
160C0300
140C0300
240C0300
000C0300
000C0300
000C0300
000FFF00
000C0300
000C0300
000C0300
000C0300
000C0300
000C0300
000C0300
000C0300
003F9FE0
00000000
00000000
00004000
00006000
00006000
00006000
00006000
ENDCHAR
STARTCHAR 1F9D
ENCODING 8093
SWIDTH 1076 0
DWIDTH 28 0
BBX 27 25 0 -7
BITMAP
627F9FE0
F60C0300
840C0300
8C0C0300
480C0300
000C0300
000C0300
000C0300
000FFF00
000C0300
000C0300
000C0300
000C0300
000C0300
000C0300
000C0300
000C0300
007F9FE0
00000000
00000000
00004000
00006000
00006000
00006000
00006000
ENDCHAR
STARTCHAR 1F9E
ENCODING 8094
SWIDTH 1038 0
DWIDTH 27 0
BBX 28 29 -2 -7
BITMAP
70800000
58C00000
CCC00000
C6400000
5FBFCFF0
1E060180
02060180
02060180
04060180
00060180
00060180
00060180
0007FF80
00060180
00060180
00060180
00060180
00060180
00060180
00060180
00060180
003FCFF0
00000000
00000000
00002000
00003000
00003000
00003000
00003000
ENDCHAR
STARTCHAR 1F9F
ENCODING 8095
SWIDTH 1038 0
DWIDTH 27 0
BBX 28 29 -2 -7
BITMAP
71800000
99800000
CC800000
CE800000
4F3F9FF0
1E0C0180
100C0180
100C0180
080C0180
000C0180
000C0180
000C0180
000FFF80
000C0180
000C0180
000C0180
000C0180
000C0180
000C0180
000C0180
000C0180
003F9FF0
00000000
00000000
00004000
00006000
00006000
00006000
00006000
ENDCHAR
STARTCHAR 1FA0
ENCODING 8096
SWIDTH 653 0
DWIDTH 17 0
BBX 15 24 1 -6
BITMAP
0300
0380
0080
0080
0100
0000
3010
7008
600C
E184
C186
C186
C186
C106
C106
610C
231C
1CF8
0000
0100
0180
0180
0180
0180
ENDCHAR
STARTCHAR 1FA1
ENCODING 8097
SWIDTH 653 0
DWIDTH 17 0
BBX 15 24 1 -6
BITMAP
0180
03C0
0200
0200
0100
0000
3010
7008
600C
E184
C186
C186
C186
C186
C106
610E
219C
1E78
0000
0100
0180
0180
0180
0180
ENDCHAR
STARTCHAR 1FA2
ENCODING 8098
SWIDTH 653 0
DWIDTH 17 0
BBX 15 24 1 -6
BITMAP
0CC0
1EC0
0240
0220
0420
0000
3010
7008
600C
E184
C186
C186
C186
C186
C106
610C
219C
1E78
0000
0100
0180
0180
0180
0180
ENDCHAR
STARTCHAR 1FA3
ENCODING 8099
SWIDTH 653 0
DWIDTH 17 0
BBX 15 24 1 -6
BITMAP
06C0
0EC0
0840
0820
0420
0000
1810
3808
700C
E184
C186
C186
C186
C186
C186
610E
219C
1E78
0000
0100
0180
0180
0180
0180
ENDCHAR
STARTCHAR 1FA4
ENCODING 8100
SWIDTH 653 0
DWIDTH 17 0
BBX 15 24 1 -6
BITMAP
0630
0F20
0160
0140
0280
0000
3010
7008
600C
E184
C186
C186
C186
C186
C186
610E
219C
1E78
0000
0100
0180
0180
0180
0180
ENDCHAR
STARTCHAR 1FA5
ENCODING 8101
SWIDTH 653 0
DWIDTH 17 0
BBX 15 24 1 -6
BITMAP
0720
0760
0860
0840
0680
0000
3010
7008
600C
E184
C186
C186
C186
C186
C186
610E
219C
1E78
0000
0100
0180
0180
0180
0180
ENDCHAR
STARTCHAR 1FA6
ENCODING 8102
SWIDTH 653 0
DWIDTH 17 0
BBX 15 28 1 -6
BITMAP
0E30
1730
1390
1990
1BE0
0380
0080
0080
0100
0000
3010
7008
600C
E184
C186
C186
C186
C106
C106
610C
231C
1CF8
0000
0100
0180
0180
0180
0180
ENDCHAR
STARTCHAR 1FA7
ENCODING 8103
SWIDTH 653 0
DWIDTH 17 0
BBX 15 28 1 -6
BITMAP
0E30
1730
1390
1990
19E0
0380
0200
0200
0100
0000
3010
7008
600C
E184
C186
C186
C186
C186
C086
610E
219C
1E78
0000
0100
0180
0180
0180
0180
ENDCHAR
STARTCHAR 1FA8
ENCODING 8104
SWIDTH 884 0
DWIDTH 23 0
BBX 21 25 1 -7
BITMAP
603F00
F0E1C0
11C0E0
138070
230030
070038
070038
070038
070038
030030
038070
018060
00E1C0
041210
041210
021210
03F3F0
03F3F0
000000
000000
000800
000C00
000C00
000C00
000C00
ENDCHAR
STARTCHAR 1FA9
ENCODING 8105
SWIDTH 923 0
DWIDTH 24 0
BBX 20 25 2 -7
BITMAP
603E00
E0E380
8180C0
8380E0
470070
070070
070070
070070
070070
030060
0380E0
0180C0
00E380
041410
041410
021420
03F7E0
03F7E0
000000
000000
000800
000C00
000C00
000C00
000C00
ENDCHAR
STARTCHAR 1FAA
ENCODING 8106
SWIDTH 961 0
DWIDTH 25 0
BBX 25 25 -1 -7
BITMAP
6403F000
F60E1C00
161C0E00
12380700
22300300
00700380
00700380
00700380
00700380
00300300
00380700
00180600
000E1800
00412100
00412100
00212100
003F3F00
003F3F00
00000000
00000000
00008000
0000C000
0000C000
0000C000
0000C000
ENDCHAR
STARTCHAR 1FAB
ENCODING 8107
SWIDTH 1000 0
DWIDTH 26 0
BBX 24 25 0 -7
BITMAP
6C03E0
FC0E38
84180C
82380E
427007
007007
007007
007007
007007
003006
003806
00180C
000E18
004121
004121
002122
003F3E
003F3E
000000
000000
000080
0000C0
0000C0
0000C0
0000C0
ENDCHAR
STARTCHAR 1FAC
ENCODING 8108
SWIDTH 961 0
DWIDTH 25 0
BBX 23 25 0 -7
BITMAP
6307C0
F31C70
163018
14701C
24E00E
00E00E
00E00E
00E00E
00E00E
00600C
00701C
003018
001C70
008282
008282
004284
007EFC
007EFC
000000
000000
000200
000300
000300
000300
000300
ENDCHAR
STARTCHAR 1FAD
ENCODING 8109
SWIDTH 923 0
DWIDTH 24 0
BBX 22 25 0 -7
BITMAP
660FC0
E638E0
846030
88E038
49C01C
01C01C
01C01C
01C01C
01C01C
00C018
00E018
006030
003860
010484
010484
008488
00FCF8
00FCF8
000000
000000
000200
000300
000300
000300
000300
ENDCHAR
STARTCHAR 1FAE
ENCODING 8110
SWIDTH 923 0
DWIDTH 24 0
BBX 24 29 -2 -7
BITMAP
708000
988000
CC8000
CE8000
5F87E0
1E0E38
02180C
02380E
047007
007007
007007
007007
007007
003006
00380E
00181C
000630
004141
004141
002142
003F7E
003F7E
000000
000000
000100
000180
000180
000180
000180
ENDCHAR
STARTCHAR 1FAF
ENCODING 8111
SWIDTH 884 0
DWIDTH 23 0
BBX 24 29 -2 -7
BITMAP
708000
988000
CC8000
CE8000
4F87E0
1E0E38
10380C
10380E
087006
007007
007007
007007
007007
003006
00300E
00181C
000C30
004242
004242
004242
003E7E
003E7E
000000
000000
000100
000180
000180
000180
000180
ENDCHAR
STARTCHAR 1FB0
ENCODING 8112
SWIDTH 576 0
DWIDTH 15 0
BBX 12 18 2 0
BITMAP
1040
1040
0880
0F80
0000
0000
1C60
3E60
7240
E1C0
C180
C180
8100
8100
8300
8680
6E70
3860
ENDCHAR
STARTCHAR 1FB1
ENCODING 8113
SWIDTH 576 0
DWIDTH 15 0
BBX 12 16 2 0
BITMAP
3F80
0000
0000
0000
1C60
7CC0
62C0
C3C0
C180
8380
8300
8300
8700
8480
CCF0
7860
ENDCHAR
STARTCHAR 1FB2
ENCODING 8114
SWIDTH 576 0
DWIDTH 15 0
BBX 12 24 2 -6
BITMAP
0800
0C00
0C00
0400
0200
0000
1C60
3E60
72C0
E2C0
C180
C180
8100
8300
8300
8680
4C70
3860
0000
0800
0C00
0C00
0C00
0C00
ENDCHAR
STARTCHAR 1FB3
ENCODING 8115
SWIDTH 576 0
DWIDTH 15 0
BBX 12 18 2 -6
BITMAP
1C60
3E60
72C0
E2C0
C180
C180
8100
8300
8300
8680
4C70
3860
0000
0800
0C00
0C00
0C00
0C00
ENDCHAR
STARTCHAR 1FB4
ENCODING 8116
SWIDTH 576 0
DWIDTH 15 0
BBX 12 24 2 -6
BITMAP
0180
0300
0300
0200
0400
0000
1C60
3E60
72C0
E2C0
C180
C180
8100
8300
8300
8780
4EF0
3860
0000
0800
0C00
0C00
0C00
0C00
ENDCHAR
STARTCHAR 1FB6
ENCODING 8118
SWIDTH 576 0
DWIDTH 15 0
BBX 12 18 2 0
BITMAP
1CC0
2CC0
3240
1180
0000
0000
1C60
3CC0
62C0
C2C0
C180
C180
8300
8300
8300
8680
4CF0
3860
ENDCHAR
STARTCHAR 1FB7
ENCODING 8119
SWIDTH 576 0
DWIDTH 15 0
BBX 12 24 2 -6
BITMAP
1CC0
2CC0
3240
1180
0000
0000
1C60
3CC0
62C0
C2C0
C180
C180
8300
8300
8300
8680
CCF0
7860
0000
0800
0C00
0C00
0C00
0C00
ENDCHAR
STARTCHAR 1FB8
ENCODING 8120
SWIDTH 807 0
DWIDTH 21 0
BBX 18 24 2 0
BITMAP
040800
040800
021000
01E000
000000
000000
00C000
00C000
00C000
01E000
01E000
016000
027000
027000
063000
043800
043800
0C1C00
0FFC00
180C00
100E00
100E00
300F00
FE3FC0
ENDCHAR
STARTCHAR 1FB9
ENCODING 8121
SWIDTH 769 0
DWIDTH 20 0
BBX 17 22 2 0
BITMAP
07F000
000000
000000
000000
008000
008000
01C000
01C000
01C000
02E000
026000
067000
047000
043000
0C3800
083800
0FF800
181C00
101C00
300C00
700E00
FE7F80
ENDCHAR
STARTCHAR 1FBA
ENCODING 8122
SWIDTH 769 0
DWIDTH 20 0
BBX 18 18 2 0
BITMAP
C08000
C0C000
41C000
21C000
21E000
03E000
026000
027000
067000
043000
043800
083800
0FF800
181C00
100C00
100C00
300E00
FE3FC0
ENDCHAR
STARTCHAR 1FBB
ENCODING 8123
SWIDTH 807 0
DWIDTH 21 0
BBX 18 18 2 0
BITMAP
304000
30C000
60C000
40E000
416000
016000
037000
023000
023800
063800
041800
041C00
0FFC00
080C00
080E00
180E00
180600
FE3FC0
ENDCHAR
STARTCHAR 1FBC
ENCODING 8124
SWIDTH 1038 0
DWIDTH 27 0
BBX 25 18 1 0
BITMAP
00C00000
00C00000
00C00000
01E00000
01E00000
01600000
02700000
02700000
06300F80
04380200
04380200
0C180200
0FFC0200
080C0200
180E0200
100E0200
380F0200
FE3FCF80
ENDCHAR
STARTCHAR 1FBD
ENCODING 8125
SWIDTH 230 0
DWIDTH 6 0
BBX 4 6 1 12
BITMAP
60
F0
10
10
20
40
ENDCHAR
STARTCHAR 1FBE
ENCODING 8126
SWIDTH 269 0
DWIDTH 7 0
BBX 5 10 1 0
BITMAP
F8
20
20
20
20
20
20
20
20
F8
ENDCHAR
STARTCHAR 1FBF
ENCODING 8127
SWIDTH 230 0
DWIDTH 6 0
BBX 4 6 1 12
BITMAP
60
F0
10
10
20
40
ENDCHAR
STARTCHAR 1FC0
ENCODING 8128
SWIDTH 423 0
DWIDTH 11 0
BBX 9 4 1 14
BITMAP
7180
9980
CF80
4700
ENDCHAR
STARTCHAR 1FC1
ENCODING 8129
SWIDTH 461 0
DWIDTH 12 0
BBX 9 7 2 12
BITMAP
F100
B980
9900
8600
4200
E700
C600
ENDCHAR
STARTCHAR 1FC2
ENCODING 8130
SWIDTH 576 0
DWIDTH 15 0
BBX 12 25 1 -7
BITMAP
0C00
0C00
0400
0200
0200
0000
E1C0
A320
1610
1610
0C10
0C10
0C10
0810
1810
1810
1810
1830
0030
0030
0870
0C70
0C70
0C70
0C70
ENDCHAR
STARTCHAR 1FC3
ENCODING 8131
SWIDTH 576 0
DWIDTH 15 0
BBX 12 19 1 -7
BITMAP
E1C0
A320
1610
1610
0C10
0C10
0C10
0810
1810
1810
1810
1830
0030
0030
0870
0C70
0C70
0C70
0C70
ENDCHAR
STARTCHAR 1FC4
ENCODING 8132
SWIDTH 576 0
DWIDTH 15 0
BBX 12 25 1 -7
BITMAP
0180
0180
0100
0200
0200
0000
E1C0
A320
1610
1610
0C10
0C10
0C10
0810
1810
1810
1810
1830
0030
0030
0870
0C70
0C70
0C70
0C70
ENDCHAR
STARTCHAR 1FC6
ENCODING 8134
SWIDTH 576 0
DWIDTH 15 0
BBX 12 25 1 -7
BITMAP
1C60
2660
3320
31C0
0000
0000
E1C0
A320
1610
1610
0C10
0C10
0C10
1810
1810
1810
1810
1830
0030
0030
0070
0070
0070
0070
0060
ENDCHAR
STARTCHAR 1FC7
ENCODING 8135
SWIDTH 576 0
DWIDTH 15 0
BBX 12 25 1 -7
BITMAP
1C60
2660
3320
31C0
0000
0000
E1C0
A320
1610
1610
0C10
0C10
0C10
0810
1810
1810
1810
1830
0030
0030
0870
0C70
0C70
0C70
0C70
ENDCHAR
STARTCHAR 1FC8
ENCODING 8136
SWIDTH 846 0
DWIDTH 22 0
BBX 20 18 0 0
BITMAP
C7FFF0
60C070
60C030
20C010
10C010
00C110
00C100
00C300
00FF00
00C300
00C300
00C100
00C110
00C010
00C010
00C030
00C070
07FFF0
ENDCHAR
STARTCHAR 1FC9
ENCODING 8137
SWIDTH 923 0
DWIDTH 24 0
BBX 20 18 2 0
BITMAP
23FFF0
60C070
60C030
40C010
80C010
00C110
00C100
00C300
00FF00
00C300
00C300
00C100
00C110
00C010
00C010
00C030
00C070
03FFF0
ENDCHAR
STARTCHAR 1FCA
ENCODING 8138
SWIDTH 923 0
DWIDTH 24 0
BBX 23 18 0 0
BITMAP
C7F9FE
60C030
60C030
20C030
10C030
00C030
00C030
00C030
00FFF0
00C030
00C030
00C030
00C030
00C030
00C030
00C030
00C030
07F9FE
ENDCHAR
STARTCHAR 1FCB
ENCODING 8139
SWIDTH 1000 0
DWIDTH 26 0
BBX 23 18 2 0
BITMAP
23F9FE
60C030
60C030
40C030
80C030
00C030
00C030
00C030
00FFF0
00C030
00C030
00C030
00C030
00C030
00C030
00C030
00C030
03F9FE
ENDCHAR
STARTCHAR 1FCC
ENCODING 8140
SWIDTH 1076 0
DWIDTH 28 0
BBX 26 18 1 0
BITMAP
FF3FC000
18060000
18060000
18060000
18060000
18060000
18060000
18060000
1FFE07C0
18060100
18060100
18060100
18060100
18060100
18060100
18060100
18060100
FF3FC7C0
ENDCHAR
STARTCHAR 1FCD
ENCODING 8141
SWIDTH 269 0
DWIDTH 7 0
BBX 8 6 -1 12
BITMAP
6C
FC
16
12
22
41
ENDCHAR
STARTCHAR 1FCE
ENCODING 8142
SWIDTH 307 0
DWIDTH 8 0
BBX 8 6 0 12
BITMAP
63
F3
16
14
24
40
ENDCHAR
STARTCHAR 1FCF
ENCODING 8143
SWIDTH 230 0
DWIDTH 6 0
BBX 9 9 -2 13
BITMAP
7080
9980
CC80
CE80
5F00
1E00
0200
0200
0400
ENDCHAR
STARTCHAR 1FD0
ENCODING 8144
SWIDTH 346 0
DWIDTH 9 0
BBX 7 18 1 0
BITMAP
80
82
44
7C
00
00
30
38
30
30
30
30
20
20
20
24
3C
18
ENDCHAR
STARTCHAR 1FD1
ENCODING 8145
SWIDTH 346 0
DWIDTH 9 0
BBX 7 16 1 0
BITMAP
FE
00
00
00
38
38
30
30
30
30
20
20
20
24
3C
1C
ENDCHAR
STARTCHAR 1FD2
ENCODING 8146
SWIDTH 307 0
DWIDTH 8 0
BBX 8 19 0 0
BITMAP
60
60
30
F7
EF
42
00
30
38
30
30
30
30
20
20
20
24
3C
1C
ENDCHAR
STARTCHAR 1FD3
ENCODING 8147
SWIDTH 307 0
DWIDTH 8 0
BBX 8 19 0 0
BITMAP
04
0C
08
EF
F7
42
00
30
38
30
30
30
30
20
20
20
24
3C
1C
ENDCHAR
STARTCHAR 1FD6
ENCODING 8150
SWIDTH 307 0
DWIDTH 8 0
BBX 8 18 0 0
BITMAP
71
B9
9D
8E
00
00
38
38
38
30
30
30
20
20
20
24
3E
1C
ENDCHAR
STARTCHAR 1FD7
ENCODING 8151
SWIDTH 307 0
DWIDTH 8 0
BBX 8 19 0 0
BITMAP
F1
8E
00
E6
E7
42
00
38
38
38
30
30
30
20
20
20
24
3C
1C
ENDCHAR
STARTCHAR 1FD8
ENCODING 8152
SWIDTH 384 0
DWIDTH 10 0
BBX 7 22 2 0
BITMAP
FE
00
00
00
FE
18
18
18
18
18
18
18
18
18
18
18
18
18
18
18
18
FE
ENDCHAR
STARTCHAR 1FD9
ENCODING 8153
SWIDTH 384 0
DWIDTH 10 0
BBX 8 24 1 0
BITMAP
81
81
42
3C
00
00
FF
18
18
18
18
18
18
18
18
18
18
18
18
18
18
18
18
FF
ENDCHAR
STARTCHAR 1FDA
ENCODING 8154
SWIDTH 538 0
DWIDTH 14 0
BBX 13 18 0 0
BITMAP
C7F8
60C0
60C0
20C0
10C0
00C0
00C0
00C0
00C0
00C0
00C0
00C0
00C0
00C0
00C0
00C0
00C0
07F8
ENDCHAR
STARTCHAR 1FDB
ENCODING 8155
SWIDTH 653 0
DWIDTH 17 0
BBX 13 18 3 0
BITMAP
67F8
60C0
C0C0
80C0
80C0
00C0
00C0
00C0
00C0
00C0
00C0
00C0
00C0
00C0
00C0
00C0
00C0
07F8
ENDCHAR
STARTCHAR 1FDD
ENCODING 8157
SWIDTH 269 0
DWIDTH 7 0
BBX 7 6 0 12
BITMAP
68
EC
84
86
C2
02
ENDCHAR
STARTCHAR 1FDE
ENCODING 8158
SWIDTH 269 0
DWIDTH 7 0
BBX 7 5 0 12
BITMAP
66
E6
8C
88
C8
ENDCHAR
STARTCHAR 1FDF
ENCODING 8159
SWIDTH 230 0
DWIDTH 6 0
BBX 9 9 -2 13
BITMAP
7080
9980
CC80
CE80
4F00
1C00
1000
1000
0800
ENDCHAR
STARTCHAR 1FE0
ENCODING 8160
SWIDTH 461 0
DWIDTH 12 0
BBX 9 18 2 0
BITMAP
8200
8200
C400
7800
0000
0000
C000
C200
C100
C100
8080
8080
8080
8180
8180
C300
7F00
3C00
ENDCHAR
STARTCHAR 1FE1
ENCODING 8161
SWIDTH 461 0
DWIDTH 12 0
BBX 9 16 2 0
BITMAP
FE00
0000
0000
0000
C200
C100
C100
C080
8080
8080
8080
8180
8180
8100
4700
3C00
ENDCHAR
STARTCHAR 1FE2
ENCODING 8162
SWIDTH 461 0
DWIDTH 12 0
BBX 10 19 1 0
BITMAP
6000
2000
3000
D700
C700
0200
0000
C100
C100
C080
4080
8040
8040
8040
80C0
80C0
4180
6300
1E00
ENDCHAR
STARTCHAR 1FE3
ENCODING 8163
SWIDTH 461 0
DWIDTH 12 0
BBX 10 19 1 0
BITMAP
0600
0C00
0C00
DF00
D700
0200
0000
C100
C100
C080
4080
8040
8040
8040
80C0
80C0
4180
6300
1E00
ENDCHAR
STARTCHAR 1FE4
ENCODING 8164
SWIDTH 461 0
DWIDTH 12 0
BBX 10 25 1 -7
BITMAP
0C00
1E00
0200
0200
0400
0000
0F00
3880
3080
7040
6040
60C0
40C0
40C0
41C0
4380
6700
5E00
4000
4000
C000
C000
C000
C000
C000
ENDCHAR
STARTCHAR 1FE5
ENCODING 8165
SWIDTH 461 0
DWIDTH 12 0
BBX 10 25 1 -7
BITMAP
0E00
0E00
0800
0800
0400
0000
0F00
3880
3080
7040
6040
60C0
40C0
40C0
41C0
4380
6700
5E00
4000
4000
C000
C000
C000
C000
C000
ENDCHAR
STARTCHAR 1FE6
ENCODING 8166
SWIDTH 461 0
DWIDTH 12 0
BBX 10 18 1 0
BITMAP
7180
9980
CC80
4700
0000
0000
6100
6080
6080
2040
4040
4040
4040
40C0
40C0
4080
2380
1E00
ENDCHAR
STARTCHAR 1FE7
ENCODING 8167
SWIDTH 461 0
DWIDTH 12 0
BBX 9 19 2 0
BITMAP
F300
9E00
0000
CE00
EE00
C400
0000
C000
C200
C100
4100
8080
8080
8080
8180
8180
8100
4700
3C00
ENDCHAR
STARTCHAR 1FE8
ENCODING 8168
SWIDTH 615 0
DWIDTH 16 0
BBX 14 24 1 0
BITMAP
1020
1020
0840
0780
0000
0000
C038
304C
189C
091C
0D00
0500
0600
0600
0600
0600
0600
0600
0600
0600
0600
0600
0600
3FE0
ENDCHAR
STARTCHAR 1FE9
ENCODING 8169
SWIDTH 615 0
DWIDTH 16 0
BBX 14 22 1 0
BITMAP
1FC0
0000
0000
0000
8038
604C
109C
091C
0D00
0500
0600
0600
0600
0600
0600
0600
0600
0600
0600
0600
0600
3FC0
ENDCHAR
STARTCHAR 1FEA
ENCODING 8170
SWIDTH 769 0
DWIDTH 20 0
BBX 18 18 1 0
BITMAP
8C0380
C204C0
C189C0
4091C0
20D000
205000
006000
006000
006000
006000
006000
006000
006000
006000
006000
006000
006000
03FE00
ENDCHAR
STARTCHAR 1FEB
ENCODING 8171
SWIDTH 846 0
DWIDTH 22 0
BBX 19 18 2 0
BITMAP
2601C0
618260
60C4E0
4048E0
806800
802800
003000
003000
003000
003000
003000
003000
003000
003000
003000
003000
003000
01FF00
ENDCHAR
STARTCHAR 1FEC
ENCODING 8172
SWIDTH 884 0
DWIDTH 23 0
BBX 20 18 2 0
BITMAP
63FF80
F0C1E0
80C060
80C070
40C070
00C070
00C070
00C0E0
00FF80
00C000
00C000
00C000
00C000
00C000
00C000
00C000
00C000
03F800
ENDCHAR
STARTCHAR 1FED
ENCODING 8173
SWIDTH 461 0
DWIDTH 12 0
BBX 8 7 2 12
BITMAP
20
20
30
10
F7
EF
42
ENDCHAR
STARTCHAR 1FEE
ENCODING 8174
SWIDTH 461 0
DWIDTH 12 0
BBX 8 7 2 12
BITMAP
04
04
0C
08
EF
F7
42
ENDCHAR
STARTCHAR 1FEF
ENCODING 8175
SWIDTH 153 0
DWIDTH 4 0
BBX 3 5 1 12
BITMAP
C0
C0
40
60
20
ENDCHAR
STARTCHAR 1FF2
ENCODING 8178
SWIDTH 653 0
DWIDTH 17 0
BBX 15 24 1 -6
BITMAP
0600
0200
0300
0100
0080
0000
3010
7008
600C
E184
C186
C186
C186
C186
C106
610E
219C
1E78
0000
0100
0180
0180
0180
0180
ENDCHAR
STARTCHAR 1FF3
ENCODING 8179
SWIDTH 653 0
DWIDTH 17 0
BBX 15 18 1 -6
BITMAP
3010
7008
600C
E184
C186
C186
C186
C186
C106
610E
219C
1E78
0000
0100
0180
0180
0180
0180
ENDCHAR
STARTCHAR 1FF4
ENCODING 8180
SWIDTH 653 0
DWIDTH 17 0
BBX 15 24 1 -6
BITMAP
0040
00C0
0080
0080
0100
0000
3010
7008
600C
E184
C186
C186
C186
C186
C186
610E
219C
1E78
0000
0100
0180
0180
0180
0180
ENDCHAR
STARTCHAR 1FF6
ENCODING 8182
SWIDTH 653 0
DWIDTH 17 0
BBX 15 18 1 0
BITMAP
0E30
1330
1990
08E0
0000
0000
3010
7008
600C
E384
C386
C386
C386
C186
C106
610C
229C
1C78
ENDCHAR
STARTCHAR 1FF7
ENCODING 8183
SWIDTH 653 0
DWIDTH 17 0
BBX 15 24 1 -6
BITMAP
0E30
1330
1990
08E0
0000
0000
3010
7008
600C
E184
C186
C186
C186
C186
C106
610E
219C
1E78
0000
0100
0180
0180
0180
0180
ENDCHAR
STARTCHAR 1FF8
ENCODING 8184
SWIDTH 807 0
DWIDTH 21 0
BBX 19 18 1 0
BITMAP
C07C00
C1C700
430380
630180
2600C0
0600C0
0E00E0
0E00E0
0E00E0
0E00E0
0E00E0
0E00E0
0600C0
0600C0
030180
030180
01C700
007C00
ENDCHAR
STARTCHAR 1FF9
ENCODING 8185
SWIDTH 846 0
DWIDTH 22 0
BBX 18 18 3 0
BITMAP
60F800
638E00
460700
860300
8C0180
0C0180
1C01C0
1C01C0
1C01C0
1C01C0
1C01C0
1C01C0
0C0180
0C0180
060300
060300
038E00
00F800
ENDCHAR
STARTCHAR 1FFA
ENCODING 8186
SWIDTH 884 0
DWIDTH 23 0
BBX 20 18 1 0
BITMAP
C03E00
C0E380
4180C0
6380E0
270070
070070
070070
070070
070070
030060
0380E0
0180C0
00C380
043410
041410
021420
03F7E0
03F7E0
ENDCHAR
STARTCHAR 1FFB
ENCODING 8187
SWIDTH 884 0
DWIDTH 23 0
BBX 19 18 2 0
BITMAP
207C00
61C700
630180
4701C0
8E00E0
8E00E0
0E00E0
0E00E0
0E00E0
0600C0
0701C0
030180
018700
086820
082820
042840
07EFC0
07EFC0
ENDCHAR
STARTCHAR 1FFC
ENCODING 8188
SWIDTH 1000 0
DWIDTH 26 0
BBX 23 18 2 0
BITMAP
07C000
1C7000
301800
701C00
E00E00
E00E00
E00E00
E00E00
E00E3E
600C08
701C08
301808
1C7008
828208
828208
428408
7EFC08
7EFC3E
ENDCHAR
STARTCHAR 1FFD
ENCODING 8189
SWIDTH 230 0
DWIDTH 6 0
BBX 3 5 3 12
BITMAP
60
60
40
C0
80
ENDCHAR
STARTCHAR 1FFE
ENCODING 8190
SWIDTH 230 0
DWIDTH 6 0
BBX 3 5 2 12
BITMAP
60
E0
80
80
C0
ENDCHAR
STARTCHAR 2000
ENCODING 8192
SWIDTH 500 0
DWIDTH 13 0
BBX 0 0 0 0
BITMAP
ENDCHAR
STARTCHAR 2001
ENCODING 8193
SWIDTH 1000 0
DWIDTH 26 0
BBX 0 0 0 0
BITMAP
ENDCHAR
STARTCHAR 2002
ENCODING 8194
SWIDTH 500 0
DWIDTH 13 0
BBX 0 0 0 0
BITMAP
ENDCHAR
STARTCHAR 2003
ENCODING 8195
SWIDTH 1000 0
DWIDTH 26 0
BBX 0 0 0 0
BITMAP
ENDCHAR
STARTCHAR 2004
ENCODING 8196
SWIDTH 346 0
DWIDTH 9 0
BBX 0 0 0 0
BITMAP
ENDCHAR
STARTCHAR 2005
ENCODING 8197
SWIDTH 269 0
DWIDTH 7 0
BBX 0 0 0 0
BITMAP
ENDCHAR
STARTCHAR 2006
ENCODING 8198
SWIDTH 153 0
DWIDTH 4 0
BBX 0 0 0 0
BITMAP
ENDCHAR
STARTCHAR 2007
ENCODING 8199
SWIDTH 576 0
DWIDTH 15 0
BBX 0 0 0 0
BITMAP
ENDCHAR
STARTCHAR 2008
ENCODING 8200
SWIDTH 269 0
DWIDTH 7 0
BBX 0 0 0 0
BITMAP
ENDCHAR
STARTCHAR 2009
ENCODING 8201
SWIDTH 153 0
DWIDTH 4 0
BBX 0 0 0 0
BITMAP
ENDCHAR
STARTCHAR 200A
ENCODING 8202
SWIDTH 38 0
DWIDTH 1 0
BBX 0 0 0 0
BITMAP
ENDCHAR
STARTCHAR 200B
ENCODING 8203
SWIDTH 0 0
DWIDTH 0 0
BBX 0 0 0 0
BITMAP
ENDCHAR
STARTCHAR 200C
ENCODING 8204
SWIDTH 0 0
DWIDTH 0 0
BBX 0 0 0 0
BITMAP
ENDCHAR
STARTCHAR 200D
ENCODING 8205
SWIDTH 0 0
DWIDTH 0 0
BBX 0 0 0 0
BITMAP
ENDCHAR
STARTCHAR 2010
ENCODING 8208
SWIDTH 423 0
DWIDTH 11 0
BBX 7 1 2 6
BITMAP
FE
ENDCHAR
STARTCHAR 2011
ENCODING 8209
SWIDTH 423 0
DWIDTH 11 0
BBX 7 1 2 6
BITMAP
FE
ENDCHAR
STARTCHAR 2012
ENCODING 8210
SWIDTH 576 0
DWIDTH 15 0
BBX 12 1 2 6
BITMAP
FFF0
ENDCHAR
STARTCHAR 2013
ENCODING 8211
SWIDTH 615 0
DWIDTH 16 0
BBX 13 1 2 6
BITMAP
FFF8
ENDCHAR
STARTCHAR 2014
ENCODING 8212
SWIDTH 1000 0
DWIDTH 26 0
BBX 22 1 2 6
BITMAP
FFFFFC
ENDCHAR
STARTCHAR 2016
ENCODING 8214
SWIDTH 461 0
DWIDTH 12 0
BBX 6 24 3 -6
BITMAP
84
84
84
84
84
84
84
84
84
84
84
84
84
84
84
84
84
84
84
84
84
84
84
84
ENDCHAR
STARTCHAR 2017
ENCODING 8215
SWIDTH 538 0
DWIDTH 14 0
BBX 14 4 0 -7
BITMAP
FFFC
0000
0000
FFFC
ENDCHAR
STARTCHAR 2018
ENCODING 8216
SWIDTH 269 0
DWIDTH 7 0
BBX 3 8 2 11
BITMAP
20
40
80
80
80
E0
E0
60
ENDCHAR
STARTCHAR 2019
ENCODING 8217
SWIDTH 269 0
DWIDTH 7 0
BBX 3 8 2 10
BITMAP
C0
E0
E0
20
20
40
40
80
ENDCHAR
STARTCHAR 201A
ENCODING 8218
SWIDTH 269 0
DWIDTH 7 0
BBX 3 8 2 -4
BITMAP
C0
E0
E0
20
20
40
40
80
ENDCHAR
STARTCHAR 201B
ENCODING 8219
SWIDTH 269 0
DWIDTH 7 0
BBX 4 8 2 10
BITMAP
60
F0
E0
80
80
80
40
20
ENDCHAR
STARTCHAR 201C
ENCODING 8220
SWIDTH 461 0
DWIDTH 12 0
BBX 8 8 2 11
BITMAP
21
42
44
84
84
E7
F7
63
ENDCHAR
STARTCHAR 201D
ENCODING 8221
SWIDTH 461 0
DWIDTH 12 0
BBX 8 8 2 10
BITMAP
C6
EF
E7
21
21
42
42
84
ENDCHAR
STARTCHAR 201E
ENCODING 8222
SWIDTH 461 0
DWIDTH 12 0
BBX 8 8 2 -4
BITMAP
C6
EF
E7
21
21
42
42
84
ENDCHAR
STARTCHAR 201F
ENCODING 8223
SWIDTH 461 0
DWIDTH 12 0
BBX 8 8 2 10
BITMAP
63
F7
E7
84
84
44
42
21
ENDCHAR
STARTCHAR 2020
ENCODING 8224
SWIDTH 538 0
DWIDTH 14 0
BBX 12 23 1 -5
BITMAP
0600
0700
0700
0700
0200
F270
FFF0
6260
0200
0700
0700
0700
0200
0200
0200
0200
0200
0200
0200
0200
0200
0200
0200
ENDCHAR
STARTCHAR 2021
ENCODING 8225
SWIDTH 538 0
DWIDTH 14 0
BBX 12 23 1 -5
BITMAP
0600
0600
0600
0600
0200
F270
FFF0
6260
0600
0600
0200
0200
0200
0600
0600
6260
FFF0
F270
0200
0600
0600
0600
0600
ENDCHAR
STARTCHAR 2022
ENCODING 8226
SWIDTH 538 0
DWIDTH 14 0
BBX 6 6 4 6
BITMAP
78
FC
FC
FC
FC
30
ENDCHAR
STARTCHAR 2026
ENCODING 8230
SWIDTH 807 0
DWIDTH 21 0
BBX 17 3 2 0
BITMAP
E1C380
E1C380
E1C380
ENDCHAR
STARTCHAR 2030
ENCODING 8240
SWIDTH 1192 0
DWIDTH 31 0
BBX 27 18 2 0
BITMAP
38020000
44040000
C6080000
C6080000
C6100000
C6200000
C6200000
44400000
38400000
00860380
01198640
01308C40
0230CC60
0430CC60
0430CC60
0830CC60
08188640
100F0380
ENDCHAR
STARTCHAR 2031
ENCODING 8241
SWIDTH 1576 0
DWIDTH 41 0
BBX 36 18 2 0
BITMAP
3802000000
4404000000
C608000000
C608000000
C610000000
C620000000
C620000000
4440000000
3840000000
00860381C0
0119864220
01308C4630
0230CC6630
0430CC6630
0430CC6630
0830CC6630
0818864620
100F0381C0
ENDCHAR
STARTCHAR 2032
ENCODING 8242
SWIDTH 269 0
DWIDTH 7 0
BBX 5 6 1 12
BITMAP
18
30
20
60
40
80
ENDCHAR
STARTCHAR 2033
ENCODING 8243
SWIDTH 423 0
DWIDTH 11 0
BBX 9 6 1 12
BITMAP
1980
3180
2300
6200
4400
8400
ENDCHAR
STARTCHAR 2034
ENCODING 8244
SWIDTH 615 0
DWIDTH 16 0
BBX 14 6 1 12
BITMAP
198C
3198
2310
6220
4420
8440
ENDCHAR
STARTCHAR 2039
ENCODING 8249
SWIDTH 307 0
DWIDTH 8 0
BBX 3 10 3 1
BITMAP
20
40
80
80
80
80
80
80
40
20
ENDCHAR
STARTCHAR 203A
ENCODING 8250
SWIDTH 307 0
DWIDTH 8 0
BBX 3 10 2 1
BITMAP
80
40
40
20
20
20
20
60
40
80
ENDCHAR
STARTCHAR 203B
ENCODING 8251
SWIDTH 692 0
DWIDTH 18 0
BBX 15 16 1 0
BITMAP
8000
C382
4384
2388
1010
0820
0440
E28E
E10E
E28E
0440
0820
1010
2388
4384
8382
ENDCHAR
STARTCHAR 203C
ENCODING 8252
SWIDTH 538 0
DWIDTH 14 0
BBX 10 18 2 0
BITMAP
E1C0
E1C0
E1C0
E1C0
E1C0
E1C0
4080
4080
4080
4080
4080
4080
4080
4080
0000
E1C0
E1C0
E1C0
ENDCHAR
STARTCHAR 203E
ENCODING 8254
SWIDTH 538 0
DWIDTH 14 0
BBX 14 1 0 21
BITMAP
FFFC
ENDCHAR
STARTCHAR 203F
ENCODING 8255
SWIDTH 576 0
DWIDTH 15 0
BBX 15 3 0 -5
BITMAP
C006
3C78
07E0
ENDCHAR
STARTCHAR 2040
ENCODING 8256
SWIDTH 576 0
DWIDTH 15 0
BBX 15 3 0 18
BITMAP
0FE0
3838
C006
ENDCHAR
STARTCHAR 2042
ENCODING 8258
SWIDTH 923 0
DWIDTH 24 0
BBX 20 18 2 0
BITMAP
006000
032600
01AC00
007000
00B800
032600
032600
006000
0C6180
0C6180
C99930
6B8D70
1C0380
3A0740
C99D30
CC9910
0C0180
0C0180
ENDCHAR
STARTCHAR 2044
ENCODING 8260
SWIDTH 76 0
DWIDTH 2 0
BBX 8 24 -3 -6
BITMAP
01
01
01
02
02
02
04
04
04
08
08
08
10
10
10
20
20
20
60
40
40
C0
80
80
ENDCHAR
STARTCHAR 2047
ENCODING 8263
SWIDTH 961 0
DWIDTH 25 0
BBX 22 18 2 0
BITMAP
3E03E0
430418
81881C
81880C
E18F0C
61871C
030018
060030
0C0060
100080
300100
220120
220120
1C00C0
000000
1C00E0
1C00E0
1C00E0
ENDCHAR
STARTCHAR 2048
ENCODING 8264
SWIDTH 769 0
DWIDTH 20 0
BBX 16 18 2 0
BITMAP
3E07
4307
8187
8187
E187
6187
0302
0602
0C02
1802
3002
2202
2202
1C02
0000
1C07
1C07
1C07
ENDCHAR
STARTCHAR 2049
ENCODING 8265
SWIDTH 730 0
DWIDTH 19 0
BBX 16 18 2 0
BITMAP
E07C
E086
E103
E103
E1C3
E0C3
4006
400C
4018
4020
4060
4044
4044
4038
0000
E038
E038
E038
ENDCHAR
STARTCHAR 2054
ENCODING 8276
SWIDTH 576 0
DWIDTH 15 0
BBX 15 3 0 -6
BITMAP
0FE0
3838
C006
ENDCHAR
STARTCHAR 2070
ENCODING 8304
SWIDTH 461 0
DWIDTH 12 0
BBX 8 11 2 7
BITMAP
3C
66
63
C3
C3
C3
C3
C3
63
66
1C
ENDCHAR
STARTCHAR 2074
ENCODING 8308
SWIDTH 461 0
DWIDTH 12 0
BBX 8 11 2 7
BITMAP
0C
1C
1C
2C
4C
4C
8C
FF
0C
0C
3F
ENDCHAR
STARTCHAR 2075
ENCODING 8309
SWIDTH 423 0
DWIDTH 11 0
BBX 7 12 2 7
BITMAP
84
F8
80
80
B8
CE
06
06
C6
C6
8C
78
ENDCHAR
STARTCHAR 2076
ENCODING 8310
SWIDTH 423 0
DWIDTH 11 0
BBX 7 11 2 7
BITMAP
1C
66
66
C0
D8
E4
C6
C6
C6
64
38
ENDCHAR
STARTCHAR 2077
ENCODING 8311
SWIDTH 423 0
DWIDTH 11 0
BBX 6 11 2 7
BITMAP
FC
C4
84
04
08
10
10
10
30
30
30
ENDCHAR
STARTCHAR 2078
ENCODING 8312
SWIDTH 461 0
DWIDTH 12 0
BBX 8 11 2 7
BITMAP
7C
82
82
82
F4
3E
C7
83
83
C6
3C
ENDCHAR
STARTCHAR 2079
ENCODING 8313
SWIDTH 423 0
DWIDTH 11 0
BBX 7 11 2 7
BITMAP
38
64
C6
C6
C6
6E
36
06
C4
8C
70
ENDCHAR
STARTCHAR 207A
ENCODING 8314
SWIDTH 576 0
DWIDTH 15 0
BBX 13 13 1 5
BITMAP
0200
0200
0200
0200
0200
0200
FFF8
0200
0200
0200
0200
0200
0200
ENDCHAR
STARTCHAR 207B
ENCODING 8315
SWIDTH 576 0
DWIDTH 15 0
BBX 13 1 1 11
BITMAP
FFF8
ENDCHAR
STARTCHAR 207C
ENCODING 8316
SWIDTH 576 0
DWIDTH 15 0
BBX 13 4 1 9
BITMAP
FFF8
0000
0000
FFF8
ENDCHAR
STARTCHAR 207D
ENCODING 8317
SWIDTH 230 0
DWIDTH 6 0
BBX 4 15 1 4
BITMAP
10
20
40
40
80
80
80
80
80
80
80
40
40
20
10
ENDCHAR
STARTCHAR 207E
ENCODING 8318
SWIDTH 230 0
DWIDTH 6 0
BBX 4 15 1 4
BITMAP
80
40
40
20
20
10
10
10
10
10
10
20
20
40
80
ENDCHAR
STARTCHAR 2080
ENCODING 8320
SWIDTH 461 0
DWIDTH 12 0
BBX 8 11 2 -4
BITMAP
1C
66
63
C3
C3
C3
C3
C3
63
66
1C
ENDCHAR
STARTCHAR 2081
ENCODING 8321
SWIDTH 461 0
DWIDTH 12 0
BBX 6 11 3 -4
BITMAP
10
10
F0
30
30
30
30
30
30
30
FC
ENDCHAR
STARTCHAR 2082
ENCODING 8322
SWIDTH 423 0
DWIDTH 11 0
BBX 7 11 2 -4
BITMAP
38
CE
86
C6
66
0C
18
30
40
42
FE
ENDCHAR
STARTCHAR 2083
ENCODING 8323
SWIDTH 461 0
DWIDTH 12 0
BBX 7 11 3 -4
BITMAP
78
86
C6
04
78
0C
06
46
C6
8C
78
ENDCHAR
STARTCHAR 2084
ENCODING 8324
SWIDTH 461 0
DWIDTH 12 0
BBX 8 11 2 -4
BITMAP
0C
0C
1C
2C
4C
4C
8C
FF
0C
0C
3F
ENDCHAR
STARTCHAR 2085
ENCODING 8325
SWIDTH 423 0
DWIDTH 11 0
BBX 7 12 2 -4
BITMAP
84
F8
80
80
B8
CE
06
06
C6
C6
8C
78
ENDCHAR
STARTCHAR 2086
ENCODING 8326
SWIDTH 423 0
DWIDTH 11 0
BBX 7 11 2 -4
BITMAP
1C
22
66
C0
D8
E4
C6
C6
C6
64
38
ENDCHAR
STARTCHAR 2087
ENCODING 8327
SWIDTH 423 0
DWIDTH 11 0
BBX 6 11 2 -5
BITMAP
FC
84
84
04
08
10
10
30
30
30
30
ENDCHAR
STARTCHAR 2088
ENCODING 8328
SWIDTH 461 0
DWIDTH 12 0
BBX 8 11 2 -4
BITMAP
38
C6
82
82
F4
3C
C7
83
83
C6
3C
ENDCHAR
STARTCHAR 2089
ENCODING 8329
SWIDTH 423 0
DWIDTH 11 0
BBX 7 11 2 -4
BITMAP
38
64
C6
C6
C6
E6
7E
06
C4
8C
70
ENDCHAR
STARTCHAR 208A
ENCODING 8330
SWIDTH 576 0
DWIDTH 15 0
BBX 13 13 1 -6
BITMAP
0200
0200
0200
0200
0200
0200
FFF8
0200
0200
0200
0200
0200
0200
ENDCHAR
STARTCHAR 208B
ENCODING 8331
SWIDTH 576 0
DWIDTH 15 0
BBX 13 1 1 0
BITMAP
FFF8
ENDCHAR
STARTCHAR 208C
ENCODING 8332
SWIDTH 576 0
DWIDTH 15 0
BBX 13 4 1 -2
BITMAP
FFF8
0000
0000
FFF8
ENDCHAR
STARTCHAR 208D
ENCODING 8333
SWIDTH 230 0
DWIDTH 6 0
BBX 4 14 1 -6
BITMAP
20
20
40
40
80
80
80
80
80
80
40
40
20
10
ENDCHAR
STARTCHAR 208E
ENCODING 8334
SWIDTH 230 0
DWIDTH 6 0
BBX 4 14 1 -6
BITMAP
40
40
20
20
10
10
10
10
10
10
20
20
40
80
ENDCHAR
STARTCHAR 20AC
ENCODING 8364
SWIDTH 576 0
DWIDTH 15 0
BBX 14 18 1 0
BITMAP
03C4
0C3C
181C
380C
3008
7004
7000
FFC0
7000
FFC0
7000
7000
3000
3008
3808
1808
0C10
03E0
ENDCHAR
STARTCHAR 20DD
ENCODING 8413
SWIDTH 0 0
DWIDTH 0 0
BBX 24 25 -19 -6
BITMAP
007E00
018180
060060
080010
100008
200004
200004
400002
400002
800001
800001
800001
800001
800001
800001
800001
400002
400002
200004
200004
100008
080010
060020
0181C0
007E00
ENDCHAR
STARTCHAR 210C
ENCODING 8460
SWIDTH 769 0
DWIDTH 20 0
BBX 17 24 2 -5
BITMAP
01C000
07E400
0C7800
182000
100000
300000
307800
31FE00
3A1F00
1C0700
1C0380
0E0380
070180
070180
030180
030100
E20200
FC0600
388C00
03F800
06E000
040000
040000
03C000
ENDCHAR
STARTCHAR 2116
ENCODING 8470
SWIDTH 1076 0
DWIDTH 28 0
BBX 23 19 1 -1
BITMAP
3E01F0
070238
070238
078238
058200
05C200
04C218
04E224
046264
047246
043246
043A44
041A24
041E38
C40E00
E40E00
C40600
C8067E
700200
ENDCHAR
STARTCHAR 211E
ENCODING 8478
SWIDTH 538 0
DWIDTH 14 0
BBX 14 16 1 -2
BITMAP
FF80
30E0
3060
3060
3060
30C0
3F00
3180
30C4
30C8
30D0
30E0
30C0
FD70
0200
0400
ENDCHAR
STARTCHAR 211F
ENCODING 8479
SWIDTH 576 0
DWIDTH 15 0
BBX 15 23 1 -3
BITMAP
001C
0006
0002
0002
0002
FF84
30C4
3068
3068
30E8
30D0
3F10
31A0
30E0
30C0
30C0
30C0
30C0
FCF0
0100
0100
01C0
01C0
ENDCHAR
STARTCHAR 2122
ENCODING 8482
SWIDTH 961 0
DWIDTH 25 0
BBX 24 11 1 8
BITMAP
FFDE0F
CCC61C
8C4B1C
8C4B1C
8C4B2C
0C09AC
0C09AC
0C09CC
0C08CC
0C04CC
3F1E9F
ENDCHAR
STARTCHAR 2123
ENCODING 8483
SWIDTH 576 0
DWIDTH 15 0
BBX 13 24 1 -4
BITMAP
0E00
0300
0100
0100
0100
FEF8
3220
3220
1C40
1C40
1C40
0C80
0C80
1480
1680
2700
2300
2300
4200
4000
8000
C000
E000
4000
ENDCHAR
STARTCHAR 2126
ENCODING 8486
SWIDTH 730 0
DWIDTH 19 0
BBX 15 19 2 0
BITMAP
07C0
1830
3018
701C
E00E
E00E
E00E
E00E
E00E
E00E
600C
3018
3038
0C60
8282
8282
4284
7EFC
7EFC
ENDCHAR
STARTCHAR 212D
ENCODING 8493
SWIDTH 730 0
DWIDTH 19 0
BBX 16 19 2 0
BITMAP
0070
0EFA
193C
3308
6300
6300
C380
C380
C1C0
C0C0
C0E0
C060
E060
6041
7043
3982
1E0E
0FFC
03F0
ENDCHAR
STARTCHAR 2132
ENCODING 8498
SWIDTH 692 0
DWIDTH 18 0
BBX 15 19 2 0
BITMAP
01FC
0030
0030
0030
0030
0030
0830
0830
0830
0FF0
0E30
0830
0830
8830
8030
8030
C030
E030
FFFE
ENDCHAR
STARTCHAR 2135
ENCODING 8501
SWIDTH 576 0
DWIDTH 15 0
BBX 12 15 2 0
BITMAP
4040
C0C0
C1E0
E1F0
F0F0
7870
7C60
9F80
8F80
87C0
C1C0
F0E0
F060
F060
F040
ENDCHAR
STARTCHAR 214E
ENCODING 8526
SWIDTH 461 0
DWIDTH 12 0
BBX 11 12 1 0
BITMAP
07E0
0180
0180
1180
1180
1F80
1180
9180
8180
8180
4180
7FE0
ENDCHAR
STARTCHAR 2153
ENCODING 8531
SWIDTH 884 0
DWIDTH 23 0
BBX 18 18 3 0
BITMAP
100400
F00400
300800
301000
301000
302000
302000
304700
3098C0
3098C0
FD1880
030F00
020180
0600C0
0408C0
0818C0
1810C0
100F00
ENDCHAR
STARTCHAR 2154
ENCODING 8532
SWIDTH 846 0
DWIDTH 22 0
BBX 19 18 2 0
BITMAP
7C0200
860200
860400
E60800
460800
081000
102000
602380
424C60
FE8C60
008040
010780
0100C0
020060
040460
040C60
080840
100780
ENDCHAR
STARTCHAR 2155
ENCODING 8533
SWIDTH 884 0
DWIDTH 23 0
BBX 18 18 3 0
BITMAP
100400
F00C00
300800
301000
301000
302000
306080
307F00
30A000
30A000
FD2F00
033180
0200C0
0600C0
0430C0
0831C0
182180
101F00
ENDCHAR
STARTCHAR 2156
ENCODING 8534
SWIDTH 846 0
DWIDTH 22 0
BBX 18 18 2 0
BITMAP
7C0200
860400
860800
E60800
061000
081000
103080
625F00
425000
FE9000
009700
011980
0200C0
0200C0
0418C0
0418C0
081180
100F00
ENDCHAR
STARTCHAR 2157
ENCODING 8535
SWIDTH 884 0
DWIDTH 23 0
BBX 18 18 3 0
BITMAP
780400
860800
C60800
041000
781000
0C2000
066080
C67F00
86A000
8CA000
792F00
023180
0200C0
0400C0
0830C0
0831C0
102180
101F00
ENDCHAR
STARTCHAR 2158
ENCODING 8536
SWIDTH 884 0
DWIDTH 23 0
BBX 19 18 2 0
BITMAP
0C0200
1C0600
2C0400
2C0800
4C0800
8C1000
FF3040
0C3F80
0C5000
0C5000
3F9780
0198C0
010060
020060
021860
0418E0
0810C0
080F80
ENDCHAR
STARTCHAR 2159
ENCODING 8537
SWIDTH 884 0
DWIDTH 23 0
BBX 18 18 3 0
BITMAP
100400
F00800
300800
301000
301000
302000
302000
304700
308980
309980
FD3000
033700
023880
0430C0
0430C0
0830C0
181880
100F00
ENDCHAR
STARTCHAR 215A
ENCODING 8538
SWIDTH 846 0
DWIDTH 22 0
BBX 18 18 2 0
BITMAP
F80200
800400
800400
B80800
CE1000
061000
062000
464380
C64C40
8C88C0
789800
011B00
021C80
0218C0
0418C0
0818C0
080880
100700
ENDCHAR
STARTCHAR 215B
ENCODING 8539
SWIDTH 884 0
DWIDTH 23 0
BBX 19 18 3 0
BITMAP
100400
F00C00
300800
301000
301000
302000
306000
304F00
30B080
30A040
FD2040
033C80
020F80
0611C0
042060
082060
182040
101F80
ENDCHAR
STARTCHAR 215C
ENCODING 8540
SWIDTH 884 0
DWIDTH 23 0
BBX 19 18 3 0
BITMAP
780200
860400
C60800
040800
781000
0C2000
062000
C64700
C698C0
8C9040
791040
011E80
020780
0418E0
041060
081060
101040
100F80
ENDCHAR
STARTCHAR 215D
ENCODING 8541
SWIDTH 846 0
DWIDTH 22 0
BBX 19 18 2 0
BITMAP
F80200
800400
800800
B80800
CE1000
061000
062000
464700
C658C0
8C9040
791040
011E80
020780
0218E0
041060
081060
081040
100F80
ENDCHAR
STARTCHAR 215E
ENCODING 8542
SWIDTH 846 0
DWIDTH 22 0
BBX 19 18 2 0
BITMAP
FE0200
C60400
840800
040800
081000
101000
102000
104700
3058C0
309040
309040
011C80
020F80
0211C0
041060
041060
081040
100F80
ENDCHAR
STARTCHAR 215F
ENCODING 8543
SWIDTH 576 0
DWIDTH 15 0
BBX 15 18 3 0
BITMAP
1002
F004
3004
3008
3010
3010
3020
3040
3040
3080
FD80
0100
0200
0600
0400
0800
0800
1000
ENDCHAR
STARTCHAR 2160
ENCODING 8544
SWIDTH 384 0
DWIDTH 10 0
BBX 8 18 1 0
BITMAP
FF
18
18
18
18
18
18
18
18
18
18
18
18
18
18
18
18
FF
ENDCHAR
STARTCHAR 2161
ENCODING 8545
SWIDTH 730 0
DWIDTH 19 0
BBX 17 18 1 0
BITMAP
FF7F80
180C00
180C00
180C00
180C00
180C00
180C00
180C00
180C00
180C00
180C00
180C00
180C00
180C00
180C00
180C00
180C00
FF7F80
ENDCHAR
STARTCHAR 2162
ENCODING 8546
SWIDTH 1076 0
DWIDTH 28 0
BBX 26 18 1 0
BITMAP
FF7FBFC0
180C0600
180C0600
180C0600
180C0600
180C0600
180C0600
180C0600
180C0600
180C0600
180C0600
180C0600
180C0600
180C0600
180C0600
180C0600
180C0600
FF7FBFC0
ENDCHAR
STARTCHAR 2163
ENCODING 8547
SWIDTH 1115 0
DWIDTH 29 0
BBX 27 18 1 0
BITMAP
FF7F8FE0
180E0180
180E0100
18060100
18070200
18030200
18030200
18038400
18018400
1801C400
1801C800
1800C800
1800E800
18007000
18007000
18007000
18002000
FF002000
ENDCHAR
STARTCHAR 2164
ENCODING 8548
SWIDTH 769 0
DWIDTH 20 0
BBX 18 18 1 0
BITMAP
FF1FC0
1C0300
1C0200
0C0200
0E0600
060400
070400
070800
030800
038800
039000
019000
01D000
00E000
00E000
00E000
004000
004000
ENDCHAR
STARTCHAR 2165
ENCODING 8549
SWIDTH 1115 0
DWIDTH 29 0
BBX 27 18 1 0
BITMAP
FF1FDFE0
1C030300
1C020300
0C020300
0E040300
06040300
06040300
07080300
03080300
03880300
03900300
01900300
01D00300
00E00300
00E00300
00E00300
00400300
00401FE0
ENDCHAR
STARTCHAR 2166
ENCODING 8550
SWIDTH 1461 0
DWIDTH 38 0
BBX 36 18 1 0
BITMAP
FF1FDFEFF0
1C03030180
1C02030180
0C02030180
0E04030180
0604030180
0604030180
0708030180
0308030180
0388030180
0390030180
0190030180
01D0030180
00E0030180
00E0030180
00E0030180
0040030180
00401FEFF0
ENDCHAR
STARTCHAR 2167
ENCODING 8551
SWIDTH 1846 0
DWIDTH 48 0
BBX 46 18 1 0
BITMAP
FF1FDFEFF3FC
1C0303018060
1C0203018060
0C0203018060
0E0403018060
060403018060
060403018060
070803018060
030803018060
038803018060
039003018060
019003018060
01D003018060
00E003018060
00E003018060
00E003018060
004003018060
00401FEFF3FC
ENDCHAR
STARTCHAR 2168
ENCODING 8552
SWIDTH 1115 0
DWIDTH 29 0
BBX 27 18 1 0
BITMAP
FF7FDFC0
18070600
18070600
18038400
18038800
1801D800
1800D000
1800E000
18006000
18007000
1800B000
1801B800
18011C00
18021C00
18060E00
18040600
180C0700
FF7F1FE0
ENDCHAR
STARTCHAR 2169
ENCODING 8553
SWIDTH 769 0
DWIDTH 20 0
BBX 18 18 1 0
BITMAP
7FBF80
0E0C00
0E0C00
070800
071000
03B000
01A000
01C000
00C000
00E000
016000
037000
023800
043800
0C1C00
080C00
180E00
FE3FC0
ENDCHAR
STARTCHAR 216A
ENCODING 8554
SWIDTH 1115 0
DWIDTH 29 0
BBX 27 18 1 0
BITMAP
7F9FDFE0
0E060300
0E040300
07080300
03180300
03900300
01A00300
01C00300
00E00300
00E00300
01700300
03300300
02380300
04180300
0C1C0300
080E0300
180E0300
FE3FDFE0
ENDCHAR
STARTCHAR 216B
ENCODING 8555
SWIDTH 1538 0
DWIDTH 40 0
BBX 36 18 1 0
BITMAP
7F9FDFEFF0
0E06030180
0E04030180
0708030180
0318030180
0390030180
01A0030180
01C0030180
00E0030180
00E0030180
0170030180
0330030180
0238030180
0418030180
0C1C030180
080E030180
180E030180
FE3FDFEFF0
ENDCHAR
STARTCHAR 216C
ENCODING 8556
SWIDTH 653 0
DWIDTH 17 0
BBX 15 18 1 0
BITMAP
FF00
1800
1800
1800
1800
1800
1800
1800
1800
1800
1800
1802
1802
1802
1806
1806
180E
FFFE
ENDCHAR
STARTCHAR 216D
ENCODING 8557
SWIDTH 692 0
DWIDTH 18 0
BBX 14 18 2 0
BITMAP
0784
186C
203C
601C
600C
C00C
C004
C000
C000
C000
C000
C004
6004
6004
2008
3018
1830
07C0
ENDCHAR
STARTCHAR 216E
ENCODING 8558
SWIDTH 769 0
DWIDTH 20 0
BBX 17 18 1 0
BITMAP
FFF000
180C00
180600
180300
180300
180180
180180
180180
180180
180180
180180
180180
180180
180300
180300
180600
180C00
FFF000
ENDCHAR
STARTCHAR 216F
ENCODING 8559
SWIDTH 846 0
DWIDTH 22 0
BBX 20 18 1 0
BITMAP
FC03F0
1C0380
1E0580
160580
160580
170580
130980
130980
138980
139180
119180
11D180
11D180
10E180
10E180
10E180
104180
FE4FF0
ENDCHAR
STARTCHAR 2170
ENCODING 8560
SWIDTH 307 0
DWIDTH 8 0
BBX 6 18 1 0
BITMAP
70
70
20
00
00
00
F0
30
30
30
30
30
30
30
30
30
30
FC
ENDCHAR
STARTCHAR 2171
ENCODING 8561
SWIDTH 500 0
DWIDTH 13 0
BBX 11 18 1 0
BITMAP
70C0
70C0
2000
0000
0000
0000
F1C0
30C0
30C0
30C0
30C0
30C0
30C0
30C0
30C0
30C0
30C0
FDE0
ENDCHAR
STARTCHAR 2172
ENCODING 8562
SWIDTH 730 0
DWIDTH 19 0
BBX 17 18 1 0
BITMAP
70C600
70C600
200200
000000
000000
000000
F1CF00
30C700
30C700
30C700
30C700
30C700
30C700
30C700
30C700
30C700
30C700
FDEF80
ENDCHAR
STARTCHAR 2173
ENCODING 8563
SWIDTH 769 0
DWIDTH 20 0
BBX 18 18 1 0
BITMAP
700000
700000
200000
000000
000000
000000
F3E3C0
30C100
30C100
304200
306200
302200
303400
303400
301400
301800
301800
FC0800
ENDCHAR
STARTCHAR 2174
ENCODING 8564
SWIDTH 538 0
DWIDTH 14 0
BBX 13 12 1 0
BITMAP
FCF8
3060
3040
1840
1880
0C80
0C80
0D00
0700
0700
0200
0200
ENDCHAR
STARTCHAR 2175
ENCODING 8565
SWIDTH 807 0
DWIDTH 21 0
BBX 20 18 0 0
BITMAP
0001C0
0001C0
000080
000000
000000
000000
FCFBC0
3820C0
1820C0
1840C0
0C40C0
0C40C0
0C80C0
0680C0
0680C0
0300C0
0300C0
0203F0
ENDCHAR
STARTCHAR 2176
ENCODING 8566
SWIDTH 1000 0
DWIDTH 26 0
BBX 25 18 0 0
BITMAP
0001C300
0001C300
00008000
00000000
00000000
00000000
FCFBC700
3820C300
1820C300
1840C300
0C40C300
0C40C300
0C80C300
0680C300
0680C300
0300C300
0300C300
0203F780
ENDCHAR
STARTCHAR 2177
ENCODING 8567
SWIDTH 1230 0
DWIDTH 32 0
BBX 31 18 0 0
BITMAP
0001C30C
0001C30C
00008000
00000000
00000000
00000000
FCFBC71C
3820C30C
1820C30C
1840C30C
0C40C30C
0C40C30C
0C80C30C
0680C30C
0680C30C
0300C30C
0300C30C
0203F79E
ENDCHAR
STARTCHAR 2178
ENCODING 8568
SWIDTH 769 0
DWIDTH 20 0
BBX 18 18 1 0
BITMAP
700000
700000
200000
000000
000000
000000
F1E780
30C200
306400
306400
303800
301800
301800
302C00
302C00
304600
308300
FDEFC0
ENDCHAR
STARTCHAR 2179
ENCODING 8569
SWIDTH 538 0
DWIDTH 14 0
BBX 12 12 1 0
BITMAP
F9E0
3080
3900
1900
0E00
0E00
0600
0B00
1300
1180
21C0
F3F0
ENDCHAR
STARTCHAR 217A
ENCODING 8570
SWIDTH 769 0
DWIDTH 20 0
BBX 18 18 1 0
BITMAP
000300
000300
000100
000000
000000
000000
F9E700
308300
390300
190300
0E0300
0C0300
060300
0B0300
130300
118300
21C300
F3F7C0
ENDCHAR
STARTCHAR 217B
ENCODING 8571
SWIDTH 1000 0
DWIDTH 26 0
BBX 24 18 1 0
BITMAP
000306
000306
000100
000000
000000
000000
F9E71E
308306
390306
190306
0E0306
0C0306
060306
0B0306
130306
118306
21C306
F3F7DF
ENDCHAR
STARTCHAR 217C
ENCODING 8572
SWIDTH 307 0
DWIDTH 8 0
BBX 6 18 1 0
BITMAP
F0
30
30
30
30
30
30
30
30
30
30
30
30
30
30
30
30
FC
ENDCHAR
STARTCHAR 217D
ENCODING 8573
SWIDTH 423 0
DWIDTH 11 0
BBX 9 12 1 0
BITMAP
1E00
2100
6080
C180
C180
C000
C000
C000
C080
6080
2100
1E00
ENDCHAR
STARTCHAR 217E
ENCODING 8574
SWIDTH 538 0
DWIDTH 14 0
BBX 12 18 1 0
BITMAP
07C0
00C0
00C0
00C0
00C0
00C0
1CC0
62C0
61C0
C1C0
C0C0
C0C0
C0C0
C0C0
C0C0
61C0
61C0
1EF0
ENDCHAR
STARTCHAR 217F
ENCODING 8575
SWIDTH 807 0
DWIDTH 21 0
BBX 19 12 1 0
BITMAP
F3C700
34F980
3871C0
3861C0
3061C0
3061C0
3061C0
3061C0
3061C0
3061C0
3061C0
FDFBE0
ENDCHAR
STARTCHAR 2180
ENCODING 8576
SWIDTH 1153 0
DWIDTH 30 0
BBX 27 18 2 0
BITMAP
07FFFC00
18060300
30060180
60060080
600600C0
600600C0
C0060060
C0060060
C0060060
C0060060
C0060060
C00600E0
600600C0
600600C0
20060080
30060180
18060300
07FFFC00
ENDCHAR
STARTCHAR 2181
ENCODING 8577
SWIDTH 769 0
DWIDTH 20 0
BBX 17 18 1 0
BITMAP
FFF000
181C00
180600
1F8300
18C300
186380
183180
183180
183180
183180
183180
183180
186380
18C300
1F8700
180600
181C00
FFF000
ENDCHAR
STARTCHAR 2182
ENCODING 8578
SWIDTH 1153 0
DWIDTH 30 0
BBX 27 18 2 0
BITMAP
03FFF800
0C060600
38060380
307FC180
618630C0
630618C0
E7061CE0
C6060C60
C6060C60
C6060C60
C6060C60
E30618E0
630618C0
618630C0
307FC180
38060380
0C060600
03FFF800
ENDCHAR
STARTCHAR 2183
ENCODING 8579
SWIDTH 653 0
DWIDTH 17 0
BBX 14 18 2 0
BITMAP
8780
D860
F010
E018
C018
C00C
800C
000C
000C
000C
000C
800C
8018
8018
4010
4030
3060
0F80
ENDCHAR
STARTCHAR 2184
ENCODING 8580
SWIDTH 423 0
DWIDTH 11 0
BBX 8 12 2 0
BITMAP
7C
86
83
C3
C3
03
03
03
03
82
86
78
ENDCHAR
STARTCHAR 2185
ENCODING 8581
SWIDTH 653 0
DWIDTH 17 0
BBX 16 24 2 -6
BITMAP
0788
1868
2038
6018
6008
C008
C008
C000
C000
C000
C000
C000
6000
6008
6008
3018
1838
07D8
0018
0018
0018
0018
0018
00FF
ENDCHAR
STARTCHAR 2186
ENCODING 8582
SWIDTH 615 0
DWIDTH 16 0
BBX 14 18 1 0
BITMAP
1FE0
0300
0300
0300
0300
0300
0300
0300
0300
0300
0300
0300
C30C
7318
1FF0
0FE0
07C0
0300
ENDCHAR
STARTCHAR 2187
ENCODING 8583
SWIDTH 846 0
DWIDTH 22 0
BBX 19 18 1 0
BITMAP
FFF800
180600
1FC380
183180
1F18C0
189CE0
184C60
184C60
184C60
184C60
18CC60
188C60
1F18E0
1818C0
183180
1FC300
180600
FFF800
ENDCHAR
STARTCHAR 2188
ENCODING 8584
SWIDTH 1307 0
DWIDTH 34 0
BBX 30 18 2 0
BITMAP
03FFFF00
0E0300C0
187FF870
31830630
630FE318
6333139C
E723098C
C623098C
C623098C
C623098C
C623198C
E713118C
630FE31C
63030318
31C30630
187FF860
0E0300C0
03FFFF00
ENDCHAR
STARTCHAR 2190
ENCODING 8592
SWIDTH 923 0
DWIDTH 24 0
BBX 22 7 1 3
BITMAP
080000
100000
300000
FFFFFC
300000
100000
080000
ENDCHAR
STARTCHAR 2191
ENCODING 8593
SWIDTH 384 0
DWIDTH 10 0
BBX 7 22 1 -4
BITMAP
10
10
38
7C
92
10
10
10
10
10
10
10
10
10
10
10
10
10
10
10
10
10
ENDCHAR
STARTCHAR 2192
ENCODING 8594
SWIDTH 923 0
DWIDTH 24 0
BBX 22 7 1 3
BITMAP
000040
000020
000010
FFFFFC
000030
000020
000040
ENDCHAR
STARTCHAR 2193
ENCODING 8595
SWIDTH 384 0
DWIDTH 10 0
BBX 7 22 1 -4
BITMAP
10
10
10
10
10
10
10
10
10
10
10
10
10
10
10
10
10
92
74
38
10
10
ENDCHAR
STARTCHAR 2194
ENCODING 8596
SWIDTH 923 0
DWIDTH 24 0
BBX 22 7 1 3
BITMAP
080040
100020
300010
FFFFFC
300030
100020
080040
ENDCHAR
STARTCHAR 2195
ENCODING 8597
SWIDTH 384 0
DWIDTH 10 0
BBX 7 22 1 -4
BITMAP
10
10
38
7C
92
10
10
10
10
10
10
10
10
10
10
10
10
92
74
38
10
10
ENDCHAR
STARTCHAR 2196
ENCODING 8598
SWIDTH 923 0
DWIDTH 24 0
BBX 22 22 1 -4
BITMAP
800000
7E0000
600000
500000
480000
440000
420000
010000
008000
004000
002000
001000
000800
000400
000200
000100
000080
000040
000020
000010
000008
000004
ENDCHAR
STARTCHAR 2197
ENCODING 8599
SWIDTH 923 0
DWIDTH 24 0
BBX 22 22 1 -4
BITMAP
000004
0000FC
000018
000028
000048
000088
000108
000200
000400
000800
001000
002000
004000
008000
010000
020000
040000
080000
100000
200000
400000
800000
ENDCHAR
STARTCHAR 2198
ENCODING 8600
SWIDTH 923 0
DWIDTH 24 0
BBX 22 22 1 -4
BITMAP
800000
400000
200000
100000
080000
040000
020000
010000
008000
004000
002000
001000
000800
000400
000200
000100
000088
000048
000028
000018
0000FC
00000C
ENDCHAR
STARTCHAR 2199
ENCODING 8601
SWIDTH 923 0
DWIDTH 24 0
BBX 22 22 1 -4
BITMAP
000004
00000C
000018
000030
000060
0000C0
000180
000300
000600
000C00
001800
003000
006000
00C000
010000
020000
440000
480000
500000
600000
7E0000
C00000
ENDCHAR
STARTCHAR 21D0
ENCODING 8656
SWIDTH 923 0
DWIDTH 24 0
BBX 22 12 1 1
BITMAP
020000
040000
080000
1FFFFC
200000
400000
C00000
600000
3FFFFC
180000
0C0000
060000
ENDCHAR
STARTCHAR 21D1
ENCODING 8657
SWIDTH 576 0
DWIDTH 15 0
BBX 12 22 1 -4
BITMAP
0600
0F00
1980
30C0
70E0
D0B0
9090
1080
1080
1080
1080
1080
1080
1080
1080
1080
1080
1080
1080
1080
1080
1080
ENDCHAR
STARTCHAR 21D2
ENCODING 8658
SWIDTH 923 0
DWIDTH 24 0
BBX 22 12 1 1
BITMAP
000080
000040
000020
FFFFF0
000008
000004
000004
000008
FFFFF0
000020
000040
000080
ENDCHAR
STARTCHAR 21D3
ENCODING 8659
SWIDTH 576 0
DWIDTH 15 0
BBX 12 22 1 -4
BITMAP
1080
1080
1080
1080
1080
1080
1080
1080
1080
1080
1080
1080
1080
1080
1080
1080
D0B0
70E0
30C0
1980
0F00
0600
ENDCHAR
STARTCHAR 21D4
ENCODING 8660
SWIDTH 923 0
DWIDTH 24 0
BBX 22 12 1 1
BITMAP
040080
0C00C0
180060
3FFFF0
600018
C0000C
C0000C
600018
3FFFF0
180060
0C00C0
040080
ENDCHAR
STARTCHAR 21D5
ENCODING 8661
SWIDTH 576 0
DWIDTH 15 0
BBX 12 22 1 -4
BITMAP
0600
0F00
1980
30C0
70E0
D0B0
1080
1080
1080
1080
1080
1080
1080
1080
1080
1080
D0B0
70E0
30C0
1980
0F00
0600
ENDCHAR
STARTCHAR 2200
ENCODING 8704
SWIDTH 692 0
DWIDTH 18 0
BBX 14 22 2 -4
BITMAP
8004
C004
C00C
4008
6008
6018
3FF8
2010
3030
1030
1020
1860
0860
0840
0CC0
04C0
0480
0680
0780
0300
0300
0300
ENDCHAR
STARTCHAR 2201
ENCODING 8705
SWIDTH 538 0
DWIDTH 14 0
BBX 10 22 2 -4
BITMAP
3F00
7380
4080
C0C0
C0C0
C0C0
C000
C000
C000
C000
C000
C000
C000
C000
C000
C000
C0C0
C0C0
C0C0
4080
6180
3F00
ENDCHAR
STARTCHAR 2202
ENCODING 8706
SWIDTH 538 0
DWIDTH 14 0
BBX 11 19 1 0
BITMAP
0700
08C0
1040
0060
0060
0060
0060
0E60
3160
61E0
60C0
E0C0
C1C0
C1C0
C180
C180
C300
6200
3C00
ENDCHAR
STARTCHAR 2203
ENCODING 8707
SWIDTH 615 0
DWIDTH 16 0
BBX 12 22 2 -4
BITMAP
FFF0
0010
0010
0010
0010
0010
0010
0010
0010
0010
0010
7FF0
0010
0010
0010
0010
0010
0010
0010
0010
0010
FFF0
ENDCHAR
STARTCHAR 2204
ENCODING 8708
SWIDTH 615 0
DWIDTH 16 0
BBX 12 26 2 -6
BITMAP
0040
0040
FFF0
00D0
0090
0090
0190
0110
0110
0310
0210
0210
0210
7FF0
0410
0410
0C10
0810
0810
1810
1010
1010
1010
FFF0
2000
2000
ENDCHAR
STARTCHAR 2205
ENCODING 8709
SWIDTH 769 0
DWIDTH 20 0
BBX 17 17 1 0
BITMAP
03E080
0C1900
100600
200600
400900
401100
802080
804080
808080
810080
820080
440100
480100
300200
300600
480800
87F000
ENDCHAR
STARTCHAR 2206
ENCODING 8710
SWIDTH 653 0
DWIDTH 17 0
BBX 15 18 1 0
BITMAP
0100
0380
0380
0380
05C0
04C0
08C0
08E0
0860
1070
1070
1030
2038
2018
401C
401C
7FFC
FFFE
ENDCHAR
STARTCHAR 2207
ENCODING 8711
SWIDTH 653 0
DWIDTH 17 0
BBX 14 18 1 0
BITMAP
FFFC
7FFC
7004
7008
3008
3808
1810
1810
1C20
0C20
0E20
0E40
0640
0740
0380
0380
0300
0100
ENDCHAR
ENDFONT
